SplineFontDB: 3.0
FontName: Scorek
FullName: Scorek
FamilyName: Scorek
Weight: Normal
Copyright: Copyright \\251 2016 Steinberg Media Technologies GmbH. This font is licensed under the SIL Open Font License \\(http://scripts.sil.org/OFL\\).
Version: 001.001
ItalicAngle: 0
UnderlinePosition: -100
UnderlineWidth: 50
Ascent: 800
Descent: 200
InvalidEm: 0
sfntRevision: 0x00010000
LayerCount: 2
Layer: 0 0 "Warstwa t+AUIA-a" 1
Layer: 1 0 "Plan pierwszy" 0
XUID: [1021 683 1934613914 10696356]
StyleMap: 0x0040
FSType: 0
OS2Version: 3
OS2_WeightWidthSlopeOnly: 0
OS2_UseTypoMetrics: 0
CreationTime: 1461314537
ModificationTime: 1537015221
PfmFamily: 81
TTFWeight: 400
TTFWidth: 5
LineGap: 0
VLineGap: 0
Panose: 5 6 0 0 0 0 0 0 0 0
OS2TypoAscent: 2012
OS2TypoAOffset: 0
OS2TypoDescent: -2012
OS2TypoDOffset: 0
OS2TypoLinegap: 0
OS2WinAscent: 2012
OS2WinAOffset: 0
OS2WinDescent: 2012
OS2WinDOffset: 0
HheadAscent: 2012
HheadAOffset: 0
HheadDescent: -2012
HheadDOffset: 0
OS2SubXSize: 650
OS2SubYSize: 600
OS2SubXOff: 0
OS2SubYOff: 75
OS2SupXSize: 650
OS2SupYSize: 600
OS2SupXOff: 0
OS2SupYOff: 350
OS2StrikeYSize: 50
OS2StrikeYPos: 165
OS2CapHeight: 475
OS2XHeight: 275
OS2Vendor: 'SMTG'
OS2CodePages: 00000001.00000000
OS2UnicodeRanges: 00000001.12004000.01000000.00000000
Lookup: 3 0 0 "'ss01' Style Set 1 lookup 0" { "'ss01' Style Set 1 lookup 0 subtable"  } ['ss01' ('DFLT' <'dflt' > ) ]
Lookup: 3 0 0 "'ss02' Style Set 2 lookup 1" { "'ss02' Style Set 2 lookup 1 subtable"  } ['ss02' ('DFLT' <'dflt' > ) ]
Lookup: 3 0 0 "'ss03' Style Set 3 lookup 2" { "'ss03' Style Set 3 lookup 2 subtable"  } ['ss03' ('DFLT' <'dflt' > ) ]
Lookup: 3 0 0 "'ss04' Style Set 4 lookup 3" { "'ss04' Style Set 4 lookup 3 subtable"  } ['ss04' ('DFLT' <'dflt' > ) ]
Lookup: 3 0 0 "'ss05' Style Set 5 lookup 4" { "'ss05' Style Set 5 lookup 4 subtable"  } ['ss05' ('DFLT' <'dflt' > ) ]
Lookup: 3 0 0 "'salt' Stylistic Alternatives lookup 5" { "'salt' Stylistic Alternatives lookup 5 subtable"  } ['salt' ('DFLT' <'dflt' > ) ]

StartChar: u02669
Encoding: 9833 9833 2
Width: 332
Flags: MW
HStem: -141 829
VStem: 302 30<115 875>
LayerCount: 2
Fore
SplineSet
302 115 m 1
 302 875 l 1
 332 875 l 1
 332 47 l 2
 332 -48 209 -141 109 -141 c 0
 48 -141 0 -106 0 -47 c 0
 0 50 99 141 222 141 c 0
 255 141 283 132 302 115 c 1
EndSplineSet
Validated: 1
EndChar

StartChar: u0266A
Encoding: 9834 9834 3
Width: 553
Flags: MW
HStem: -138 1011<78.5 321.5>
VStem: 302 30<118 611> 523 43<217.5 269.5>
LayerCount: 2
Fore
SplineSet
451 594 m 0
 514 494 566 376 566 251 c 0
 566 173 540 78 540 78 c 2
 535 61 523 57 514 58 c 2
 512 59 l 2
 506 63 496 72 496 88 c 0
 496 92 497 97 499 103 c 0
 516 148 523 195 523 240 c 0
 523 299 514 356 499 390 c 0
 468 463 394 573 332 611 c 1
 332 50 l 2
 332 -45 209 -138 109 -138 c 0
 48 -138 0 -103 0 -44 c 0
 0 53 99 144 222 144 c 0
 255 144 283 135 302 118 c 1
 302 623 l 1
 302 623 302 623 302 623 c 1
 302 858 l 2
 302 860 302 862 302 863 c 2
 302 864 l 1
 302 864 l 1
 303 871 307 873 312 873 c 0
 331 873 339 867 342 851 c 0
 358 755 400 673 451 594 c 0
EndSplineSet
Validated: 37
EndChar

StartChar: u0266B
Encoding: 9835 9835 4
Width: 962
Flags: MW
HStem: -141 829<78.5 332 708.5 789> 563 125<317 332 332 659 317 317 620 620 620 659 659 932>
VStem: 302 30<115 688 46 688> 317 342<563 688 563 688> 932 30<115 563 563 563>
LayerCount: 2
Fore
SplineSet
302 115 m 1xa0
 302 688 l 1
 332 688 l 1
 332 46 l 2
 331 -48 209 -141 109 -141 c 0
 48 -141 0 -106 0 -47 c 0
 0 50 99 141 222 141 c 0
 255 141 283 131 302 115 c 1xa0
659 688 m 1x50
 659 563 l 1
 317 563 l 1
 317 688 l 1
 659 688 l 1x50
620 688 m 1x48
 962 688 l 1
 962 46 l 2
 961 -48 839 -141 739 -141 c 0
 678 -141 630 -106 630 -47 c 0
 630 50 729 141 852 141 c 0
 885 141 912 131 932 115 c 1
 932 563 l 1
 620 563 l 1
 620 688 l 1x48
EndSplineSet
Validated: 5
EndChar

StartChar: u0266C
Encoding: 9836 9836 5
Width: 963
Flags: MW
HStem: -141 829<78.5 332> 376 125<310 652 310 652 621 652 652 933 621 621> 563 125<310 332 332 652 310 310 621 652 652 933 621 621>
VStem: 302 30<115 688 46 688> 310 342<376 501 376 501 563 688 376 688> 933 30<116 376 376 376 501 563 563 563>
LayerCount: 2
Fore
SplineSet
302 115 m 1x90
 302 688 l 1
 332 688 l 1
 332 46 l 2
 331 -48 209 -141 109 -141 c 0
 48 -141 0 -106 0 -47 c 0
 0 50 99 141 222 141 c 0
 255 141 283 131 302 115 c 1x90
621 688 m 1x64
 963 688 l 1
 963 47 l 2
 962 -47 840 -140 740 -140 c 0
 679 -140 631 -105 631 -46 c 0
 631 51 730 142 853 142 c 0
 886 142 913 132 933 116 c 1
 933 376 l 1
 621 376 l 1
 621 501 l 1
 933 501 l 1
 933 563 l 1
 621 563 l 1
 621 688 l 1x64
652 501 m 1x68
 652 376 l 1
 310 376 l 1
 310 501 l 1
 652 501 l 1x68
652 688 m 1
 652 563 l 1
 310 563 l 1
 310 688 l 1
 652 688 l 1
EndSplineSet
Validated: 5
EndChar

StartChar: u0266D
Encoding: 9837 9837 6
Width: 226
Flags: MW
HStem: 100 53<112 136>
VStem: 0 50<411 427.5> 157 69<34 51.5>
LayerCount: 2
Fore
SplineSet
47 -81 m 2
 47 -86 49 -96 58 -96 c 0
 61 -96 64 -95 68 -93 c 0
 98 -74 127 -42 140 -18 c 0
 152 3 157 24 157 42 c 0
 157 61 151 78 141 89 c 0
 135 96 126 100 116 100 c 0
 108 100 99 98 90 93 c 0
 76 85 50 63 46 51 c 0
 45 47 44 35 44 19 c 0
 44 -21 47 -81 47 -81 c 2
12 -170 m 0
 4 -160 0 411 0 411 c 2
 1 429 17 439 31 439 c 0
 41 439 50 433 50 422 c 0
 50 402 44 162 43 140 c 0
 43 133 47 126 54 123 c 0
 56 122 57 122 59 122 c 0
 64 122 75 131 81 136 c 0
 92 143 104 147 115 150 c 0
 122 152 129 153 136 153 c 0
 182 150 226 114 226 57 c 0
 226 11 195 -50 106 -112 c 0
 81 -129 57 -156 27 -173 c 1
 27 -173 24 -175 21 -175 c 0
 18 -175 15 -174 12 -170 c 0
EndSplineSet
Validated: 1
EndChar

StartChar: u0266E
Encoding: 9838 9838 7
Width: 169
Flags: MW
HStem: -335 676<12 143 12 156> -163 93<45.5 119>
VStem: 0 37<-66 -64 -64 39 160 162 162 329> 131 37<-323 -174 -174 -170 -29 74 74 76>
LayerCount: 2
Fore
SplineSet
37 39 m 2xb0
 37 -64 l 2
 37 -68 42 -70 49 -70 c 0
 74 -70 131 -47 131 -29 c 2x70
 131 74 l 2
 131 78 128 79 122 79 c 0
 98 79 37 53 37 39 c 2xb0
141 181 m 2
 156 186 l 2
 157 187 159 187 160 187 c 0
 164 187 168 184 168 179 c 2
 168 -323 l 2
 168 -330 162 -335 156 -335 c 2
 143 -335 l 2
 136 -335 131 -330 131 -323 c 2
 131 -174 l 2
 131 -166 124 -163 114 -163 c 0
 85 -163 29 -187 15 -193 c 0
 14 -194 12 -194 12 -194 c 2
 11 -194 9 -195 8 -195 c 0
 3 -195 0 -192 0 -186 c 2
 0 329 l 2
 0 336 5 341 12 341 c 2
 25 341 l 2
 31 341 37 336 37 329 c 2
 37 162 l 2
 37 158 41 157 47 157 c 0
 73 157 137 180 137 180 c 2
 138 180 139 181 141 181 c 2
EndSplineSet
Validated: 1
EndChar

StartChar: u0266F
Encoding: 9839 9839 8
Width: 249
Flags: MW
HStem: -348 698<59.5 188>
VStem: 50 30<-337 -214 -214 -211.5 171 175 175 295> 168 30<-293 -168 -168 -165 213 217 217 339> 237 12
LayerCount: 2
Fore
SplineSet
168 -45 m 0
 170 -36 172 -8 172 19 c 0
 172 46 170 71 168 76 c 0
 166 80 160 82 153 82 c 0
 128 82 82 61 80 44 c 0
 78 36 77 1 77 -30 c 0
 77 -54 78 -76 80 -80 c 0
 81 -83 86 -85 92 -85 c 0
 115 -85 162 -65 168 -45 c 0
237 118 m 2
 211 108 l 2
 203 105 198 86 198 79 c 2
 198 -14 l 2
 198 -26 205 -32 211 -32 c 2
 237 -22 l 2
 239 -21 240 -21 242 -21 c 0
 246 -21 249 -24 249 -29 c 2
 249 -100 l 2
 249 -106 244 -114 237 -117 c 2
 237 -117 216 -125 209 -128 c 0
 202 -131 198 -143 198 -151 c 2
 198 -293 l 2
 198 -299 192 -304 181 -304 c 0
 174 -304 168 -299 168 -293 c 2
 168 -168 l 2
 168 -162 163 -150 155 -150 c 0
 154 -150 152 -151 151 -151 c 2
 90 -176 l 2
 85 -178 80 -185 80 -198 c 2
 80 -337 l 2
 80 -343 73 -348 63 -348 c 0
 56 -348 50 -343 50 -337 c 2
 50 -214 l 2
 50 -209 45 -198 38 -198 c 0
 37 -198 36 -198 35 -199 c 0
 26 -202 12 -208 12 -208 c 2
 11 -208 9 -209 8 -209 c 0
 3 -209 0 -206 0 -200 c 2
 0 -129 l 2
 0 -123 5 -115 12 -113 c 2
 12 -113 33 -104 39 -102 c 0
 45 -99 50 -90 50 -79 c 2
 50 20 l 2
 50 28 44 38 37 38 c 0
 36 38 35 37 34 37 c 0
 27 33 12 27 12 27 c 2
 11 27 9 26 8 26 c 0
 3 26 0 29 0 35 c 2
 0 106 l 2
 0 112 5 120 12 122 c 2
 12 122 32 130 38 133 c 0
 44 136 50 146 50 160 c 2
 50 295 l 2
 50 301 56 306 66 306 c 0
 73 306 80 301 80 295 c 2
 80 175 l 2
 80 167 83 155 92 155 c 0
 109 159 143 173 155 180 c 0
 164 186 167 199 168 209 c 2
 168 339 l 2
 168 345 174 350 184 350 c 0
 192 350 198 345 198 339 c 2
 198 217 l 2
 198 209 205 204 212 204 c 0
 217 205 237 213 237 213 c 2
 239 214 240 214 242 214 c 0
 246 214 249 211 249 206 c 2
 249 135 l 2
 249 129 244 121 237 118 c 2
EndSplineSet
Validated: 1
EndChar

StartChar: uniE000
Encoding: 57344 57344 9
Width: 84
Flags: W
HStem: 0 21G<70 72.5215> 994 3<71.093 74.9531>
VStem: 14 30<77.9997 221.963 774.648 919.702> 49 33<301.371 428.814 566.551 685.392>
LayerCount: 2
Fore
SplineSet
77 6 m 4
 77 2.94792183234 74.042921871 0 71 0 c 4
 69 0 67 1 63 6 c 4
 41 34 14 92 14 192 c 4
 14 265 49 327 49 397 c 4
 49 462 20 478 2 498 c 5
 30 530 49 556 49 603 c 4
 49 666 14 706 14 805 c 4
 14 905 41 963 63 990 c 4
 67 995 69 997 71 997 c 4
 73 997 74 995 75 994 c 4
 76 994 77 992 77 990 c 4
 77 987 76 984 72 980 c 4
 67 971 44 921 44 869 c 4
 44 815 74 722 81 662 c 4
 82 657 82 651 82 646 c 4
 82 587 49 516 20 498 c 5
 49 480 82 409 82 350 c 4
 82 344 82 339 81 334 c 4
 74 275 44 181 44 128 c 4
 44 75 67 25 72 17 c 4
 76 12 77 9 77 6 c 4
EndSplineSet
Validated: 1
AlternateSubs2: "'salt' Stylistic Alternatives lookup 5 subtable" uniE000.salt01 uniE000.salt02 uniE000.salt03 uniE000.salt04
EndChar

StartChar: uniE001
Encoding: 57345 57345 10
Width: 95
Flags: MW
HStem: 0 21G<18 20>
VStem: 8 33<362.5 379.5 616.5 633> 46 30<142 154.5 842 855>
LayerCount: 2
Fore
SplineSet
70 498 m 1
 41 516 8 587 8 646 c 0
 8 651 8 657 9 662 c 0
 16 722 46 815 46 869 c 0
 46 921 23 971 18 980 c 0
 14 984 13 987 13 990 c 0
 13 992 14 994 15 994 c 0
 16 995 17 997 19 997 c 0xc0
 21 997 23 995 27 990 c 0
 49 963 76 905 76 805 c 0
 76 706 41 666 41 600 c 0
 41 534 70 519 88 498 c 1xa0
 70 478 41 462 41 394 c 0
 41 331 76 291 76 192 c 0
 76 92 49 34 27 6 c 0
 23 1 21 0 19 0 c 0
 17 0 16 1 15 2 c 0
 14 3 13 4 13 6 c 0
 13 9 14 12 18 17 c 0
 23 25 46 75 46 128 c 0xc0
 46 181 16 275 9 334 c 0
 8 339 8 344 8 350 c 0
 8 409 41 480 70 498 c 1
EndSplineSet
Validated: 1
EndChar

StartChar: uniE002
Encoding: 57346 57346 11
Width: 558
Flags: MW
HStem: -318 1639<455.5 458>
VStem: 0 125<-23 1026 -23 1143 -23 1146>
LayerCount: 2
Fore
SplineSet
0 -140 m 2
 0 1143 l 2
 0 1149 2 1150 7 1150 c 2
 109 1150 l 1
 300 1164 426 1296 435 1307 c 0
 441 1314 450 1321 461 1321 c 0
 466 1319 469 1315 469 1307 c 0
 469 1304 469 1301 468 1297 c 0
 428 1130 285 1056 125 1026 c 1
 125 -23 l 1
 285 -53 428 -127 467 -294 c 0
 468 -298 469 -302 469 -305 c 0
 469 -312 466 -316 458 -318 c 0
 450 -318 441 -311 435 -304 c 0
 426 -293 300 -161 109 -147 c 1
 7 -147 l 2
 2 -147 0 -146 0 -140 c 2
EndSplineSet
Validated: 1
EndChar

StartChar: uniE010
Encoding: 57360 57360 12
Width: 500
Flags: MW
HStem: 484 32<0 500 0 500>
VStem: 0 500<484 516 484 516>
LayerCount: 2
Fore
SplineSet
500 484 m 1
 0 484 l 1
 0 516 l 1
 500 516 l 1
 500 484 l 1
EndSplineSet
Validated: 1
EndChar

StartChar: uniE011
Encoding: 57361 57361 13
Width: 500
Flags: MW
HStem: 359 32<0 500 0 500> 609 32<0 500 0 500>
VStem: 0 500<359 391 359 391 609 641 359 641>
LayerCount: 2
Fore
SplineSet
500 391 m 1
 500 359 l 1
 0 359 l 1
 0 391 l 1
 500 391 l 1
500 641 m 1
 500 609 l 1
 0 609 l 1
 0 641 l 1
 500 641 l 1
EndSplineSet
Validated: 1
EndChar

StartChar: uniE012
Encoding: 57362 57362 14
Width: 500
Flags: MW
HStem: 234 32<0 500 0 500> 484 32<0 500 0 500> 734 32<0 500 0 500>
VStem: 0 500<234 266 234 266 484 516 234 516 734 766>
CounterMasks: 1 e0
LayerCount: 2
Fore
SplineSet
500 516 m 1
 500 484 l 1
 0 484 l 1
 0 516 l 1
 500 516 l 1
500 766 m 1
 500 734 l 1
 0 734 l 1
 0 766 l 1
 500 766 l 1
500 266 m 1
 500 234 l 1
 0 234 l 1
 0 266 l 1
 500 266 l 1
EndSplineSet
Validated: 1
EndChar

StartChar: uniE013
Encoding: 57363 57363 15
Width: 500
Flags: MW
HStem: 109 32<0 500 0 500> 359 32<0 500 0 500> 609 32<0 500 0 500> 859 32<0 500 0 500>
VStem: 0 500<109 141 109 141 359 391 109 391 609 641 859 891>
LayerCount: 2
Fore
SplineSet
500 391 m 1
 500 359 l 1
 0 359 l 1
 0 391 l 1
 500 391 l 1
500 641 m 1
 500 609 l 1
 0 609 l 1
 0 641 l 1
 500 641 l 1
500 141 m 1
 500 109 l 1
 0 109 l 1
 0 141 l 1
 500 141 l 1
500 891 m 1
 500 859 l 1
 0 859 l 1
 0 891 l 1
 500 891 l 1
EndSplineSet
Validated: 1
EndChar

StartChar: uniE014
Encoding: 57364 57364 16
Width: 500
Flags: MW
HStem: -16 32<0 500 0 500> 234 32<0 500 0 500> 484 32<0 500 0 500> 734 32<0 500 0 500> 984 32<0 500 0 500>
VStem: 0 500<-16 16 -16 16 234 266 -16 266 484 516 734 766 984 1016>
LayerCount: 2
Fore
SplineSet
500 516 m 1
 500 484 l 1
 0 484 l 1
 0 516 l 1
 500 516 l 1
500 766 m 1
 500 734 l 1
 0 734 l 1
 0 766 l 1
 500 766 l 1
500 266 m 1
 500 234 l 1
 0 234 l 1
 0 266 l 1
 500 266 l 1
500 1016 m 1
 500 984 l 1
 0 984 l 1
 0 1016 l 1
 500 1016 l 1
500 16 m 1
 500 -16 l 1
 0 -16 l 1
 0 16 l 1
 500 16 l 1
EndSplineSet
Validated: 1
EndChar

StartChar: uniE015
Encoding: 57365 57365 17
Width: 500
Flags: MW
HStem: -141 32<0 500 0 500> 109 32<0 500 0 500> 359 32<0 500 0 500> 609 32<0 500 0 500> 859 32<0 500 0 500> 1109 32<0 500 0 500>
VStem: 0 500<-141 -109 -141 -109 109 141 -141 141 359 391 609 641 859 891 1109 1141>
LayerCount: 2
Fore
SplineSet
500 641 m 1
 500 609 l 1
 0 609 l 1
 0 641 l 1
 500 641 l 1
500 891 m 1
 500 859 l 1
 0 859 l 1
 0 891 l 1
 500 891 l 1
500 391 m 1
 500 359 l 1
 0 359 l 1
 0 391 l 1
 500 391 l 1
500 1141 m 1
 500 1109 l 1
 0 1109 l 1
 0 1141 l 1
 500 1141 l 1
500 141 m 1
 500 109 l 1
 0 109 l 1
 0 141 l 1
 500 141 l 1
500 -109 m 1
 500 -141 l 1
 0 -141 l 1
 0 -109 l 1
 500 -109 l 1
EndSplineSet
Validated: 1
EndChar

StartChar: uniE016
Encoding: 57366 57366 18
Width: 750
Flags: MW
HStem: 484 32<0 750 0 750>
VStem: 0 750<484 516 484 516>
LayerCount: 2
Fore
SplineSet
750 484 m 1
 0 484 l 1
 0 516 l 1
 750 516 l 1
 750 484 l 1
EndSplineSet
Validated: 1
EndChar

StartChar: uniE017
Encoding: 57367 57367 19
Width: 750
Flags: MW
HStem: 359 32<0 750 0 750> 609 32<0 750 0 750>
VStem: 0 750<359 391 359 391 609 641 359 641>
LayerCount: 2
Fore
SplineSet
750 391 m 1
 750 359 l 1
 0 359 l 1
 0 391 l 1
 750 391 l 1
750 641 m 1
 750 609 l 1
 0 609 l 1
 0 641 l 1
 750 641 l 1
EndSplineSet
Validated: 1
EndChar

StartChar: uniE018
Encoding: 57368 57368 20
Width: 750
Flags: MW
HStem: 234 32<0 750 0 750> 484 32<0 750 0 750> 734 32<0 750 0 750>
VStem: 0 750<234 266 234 266 484 516 234 516 734 766 234 766>
CounterMasks: 1 e0
LayerCount: 2
Fore
SplineSet
750 516 m 1
 750 484 l 1
 0 484 l 1
 0 516 l 1
 750 516 l 1
750 766 m 1
 750 734 l 1
 0 734 l 1
 0 766 l 1
 750 766 l 1
750 266 m 1
 750 234 l 1
 0 234 l 1
 0 266 l 1
 750 266 l 1
EndSplineSet
Validated: 1
EndChar

StartChar: uniE019
Encoding: 57369 57369 21
Width: 750
Flags: MW
HStem: 109 32<0 750 0 750> 359 32<0 750 0 750> 609 32<0 750 0 750> 859 32<0 750 0 750>
VStem: 0 750<109 141 109 141 359 391 109 391 609 641 109 641 859 891>
LayerCount: 2
Fore
SplineSet
750 391 m 1
 750 359 l 1
 0 359 l 1
 0 391 l 1
 750 391 l 1
750 641 m 1
 750 609 l 1
 0 609 l 1
 0 641 l 1
 750 641 l 1
750 141 m 1
 750 109 l 1
 0 109 l 1
 0 141 l 1
 750 141 l 1
750 891 m 1
 750 859 l 1
 0 859 l 1
 0 891 l 1
 750 891 l 1
EndSplineSet
Validated: 1
EndChar

StartChar: uniE01A
Encoding: 57370 57370 22
Width: 750
Flags: MW
HStem: -16 32<0 750 0 750> 234 32<0 750 0 750> 484 32<0 750 0 750> 734 32<0 750 0 750> 984 32<0 750 0 750>
VStem: 0 750<-16 16 -16 16 234 266 -16 266 484 516 -16 516 734 766 984 1016>
LayerCount: 2
Fore
SplineSet
750 516 m 1
 750 484 l 1
 0 484 l 1
 0 516 l 1
 750 516 l 1
750 766 m 1
 750 734 l 1
 0 734 l 1
 0 766 l 1
 750 766 l 1
750 266 m 1
 750 234 l 1
 0 234 l 1
 0 266 l 1
 750 266 l 1
750 1016 m 1
 750 984 l 1
 0 984 l 1
 0 1016 l 1
 750 1016 l 1
750 16 m 1
 750 -16 l 1
 0 -16 l 1
 0 16 l 1
 750 16 l 1
EndSplineSet
Validated: 1
EndChar

StartChar: uniE01B
Encoding: 57371 57371 23
Width: 750
Flags: MW
HStem: -141 32<0 750 0 750> 109 32<0 750 0 750> 359 32<0 750 0 750> 609 32<0 750 0 750> 859 32<0 750 0 750> 1109 32<0 750 0 750>
VStem: 0 750<-141 -109 -141 -109 109 141 -141 141 359 391 -141 391 609 641 859 891 1109 1141>
LayerCount: 2
Fore
SplineSet
750 641 m 1
 750 609 l 1
 0 609 l 1
 0 641 l 1
 750 641 l 1
750 891 m 1
 750 859 l 1
 0 859 l 1
 0 891 l 1
 750 891 l 1
750 391 m 1
 750 359 l 1
 0 359 l 1
 0 391 l 1
 750 391 l 1
750 1141 m 1
 750 1109 l 1
 0 1109 l 1
 0 1141 l 1
 750 1141 l 1
750 141 m 1
 750 109 l 1
 0 109 l 1
 0 141 l 1
 750 141 l 1
750 -109 m 1
 750 -141 l 1
 0 -141 l 1
 0 -109 l 1
 750 -109 l 1
EndSplineSet
Validated: 1
EndChar

StartChar: uniE01C
Encoding: 57372 57372 24
Width: 250
Flags: MW
HStem: 484 32<0 250 0 250>
VStem: 0 250<484 516 484 516>
LayerCount: 2
Fore
SplineSet
250 484 m 1
 0 484 l 1
 0 516 l 1
 250 516 l 1
 250 484 l 1
EndSplineSet
Validated: 1
EndChar

StartChar: uniE01D
Encoding: 57373 57373 25
Width: 250
Flags: MW
HStem: 359 32<0 250 0 250> 609 32<0 250 0 250>
VStem: 0 250<359 391 359 391 609 641>
LayerCount: 2
Fore
SplineSet
250 391 m 1
 250 359 l 1
 0 359 l 1
 0 391 l 1
 250 391 l 1
250 641 m 1
 250 609 l 1
 0 609 l 1
 0 641 l 1
 250 641 l 1
EndSplineSet
Validated: 1
EndChar

StartChar: uniE01E
Encoding: 57374 57374 26
Width: 250
Flags: MW
HStem: 234 32<0 250 0 250> 484 32<0 250 0 250> 734 32<0 250 0 250>
VStem: 0 250<234 266 234 266 484 516 734 766>
CounterMasks: 1 e0
LayerCount: 2
Fore
SplineSet
250 516 m 1
 250 484 l 1
 0 484 l 1
 0 516 l 1
 250 516 l 1
250 766 m 1
 250 734 l 1
 0 734 l 1
 0 766 l 1
 250 766 l 1
250 266 m 1
 250 234 l 1
 0 234 l 1
 0 266 l 1
 250 266 l 1
EndSplineSet
Validated: 1
EndChar

StartChar: uniE01F
Encoding: 57375 57375 27
Width: 250
Flags: MW
HStem: 109 32<0 250 0 250> 359 32<0 250 0 250> 609 32<0 250 0 250> 859 32<0 250 0 250>
VStem: 0 250<109 141 109 141 359 391 609 641 859 891>
LayerCount: 2
Fore
SplineSet
250 391 m 1
 250 359 l 1
 0 359 l 1
 0 391 l 1
 250 391 l 1
250 641 m 1
 250 609 l 1
 0 609 l 1
 0 641 l 1
 250 641 l 1
250 141 m 1
 250 109 l 1
 0 109 l 1
 0 141 l 1
 250 141 l 1
250 891 m 1
 250 859 l 1
 0 859 l 1
 0 891 l 1
 250 891 l 1
EndSplineSet
Validated: 1
EndChar

StartChar: uniE020
Encoding: 57376 57376 28
Width: 250
Flags: MW
HStem: -16 32<0 250 0 250> 234 32<0 250 0 250> 484 32<0 250 0 250> 734 32<0 250 0 250> 984 32<0 250 0 250>
VStem: 0 250<-16 16 -16 16 234 266 484 516 734 766 984 1016>
LayerCount: 2
Fore
SplineSet
250 516 m 1
 250 484 l 1
 0 484 l 1
 0 516 l 1
 250 516 l 1
250 766 m 1
 250 734 l 1
 0 734 l 1
 0 766 l 1
 250 766 l 1
250 266 m 1
 250 234 l 1
 0 234 l 1
 0 266 l 1
 250 266 l 1
250 1016 m 1
 250 984 l 1
 0 984 l 1
 0 1016 l 1
 250 1016 l 1
250 16 m 1
 250 -16 l 1
 0 -16 l 1
 0 16 l 1
 250 16 l 1
EndSplineSet
Validated: 1
EndChar

StartChar: uniE021
Encoding: 57377 57377 29
Width: 250
Flags: MW
HStem: -141 32<0 250 0 250> 109 32<0 250 0 250> 359 32<0 250 0 250> 609 32<0 250 0 250> 859 32<0 250 0 250> 1109 32<0 250 0 250>
VStem: 0 250<-141 -109 -141 -109 109 141 359 391 609 641 859 891 1109 1141>
LayerCount: 2
Fore
SplineSet
250 641 m 1
 250 609 l 1
 0 609 l 1
 0 641 l 1
 250 641 l 1
250 891 m 1
 250 859 l 1
 0 859 l 1
 0 891 l 1
 250 891 l 1
250 391 m 1
 250 359 l 1
 0 359 l 1
 0 391 l 1
 250 391 l 1
250 1141 m 1
 250 1109 l 1
 0 1109 l 1
 0 1141 l 1
 250 1141 l 1
250 141 m 1
 250 109 l 1
 0 109 l 1
 0 141 l 1
 250 141 l 1
250 -109 m 1
 250 -141 l 1
 0 -141 l 1
 0 -109 l 1
 250 -109 l 1
EndSplineSet
Validated: 1
EndChar

StartChar: uniE022
Encoding: 57378 57378 30
Width: 332
Flags: MW
HStem: -20 40<-80 412 -80 412>
VStem: -80 492<-20 20 -20 20>
LayerCount: 2
Fore
SplineSet
412 -20 m 1
 -80 -20 l 1
 -80 20 l 1
 412 20 l 1
 412 -20 l 1
EndSplineSet
Validated: 1
EndChar

StartChar: uniE023
Encoding: 57379 57379 31
Width: 532
Flags: MW
HStem: -20 40<-80 612 -80 612>
VStem: -80 692<-20 20 -20 20>
LayerCount: 2
Fore
SplineSet
612 -20 m 1
 -80 -20 l 1
 -80 20 l 1
 612 20 l 1
 612 -20 l 1
EndSplineSet
Validated: 1
EndChar

StartChar: uniE024
Encoding: 57380 57380 32
Width: 132
Flags: MW
HStem: -20 40<-80 212 -80 212>
VStem: -80 292<-20 20 -20 20>
LayerCount: 2
Fore
SplineSet
212 -20 m 1
 -80 -20 l 1
 -80 20 l 1
 212 20 l 1
 212 -20 l 1
EndSplineSet
Validated: 1
EndChar

StartChar: uniE030
Encoding: 57392 57392 33
Width: 36
Flags: MW
HStem: 0 21G<0 36 0 0>
VStem: 0 36<0 1000>
LayerCount: 2
Fore
SplineSet
36 0 m 1
 0 0 l 1
 0 1000 l 1
 36 1000 l 1
 36 0 l 1
EndSplineSet
Validated: 1
EndChar

StartChar: uniE031
Encoding: 57393 57393 34
Width: 144
Flags: MW
HStem: 0 21G<0 36 0 0 108 108 108 144>
VStem: 0 36<0 1000> 108 36<0 1000 0 1000>
LayerCount: 2
Fore
SplineSet
36 0 m 1
 0 0 l 1
 0 1000 l 1
 36 1000 l 1
 36 0 l 1
144 1000 m 1
 144 0 l 1
 108 0 l 1
 108 1000 l 1
 144 1000 l 1
EndSplineSet
Validated: 1
EndChar

StartChar: uniE032
Encoding: 57394 57394 35
Width: 229
Flags: MW
HStem: 0 21G<0 36 0 0 103 103 103 228>
VStem: 0 36<0 1000> 103 125<0 1000 0 1000>
LayerCount: 2
Fore
SplineSet
36 0 m 1
 0 0 l 1
 0 1000 l 1
 36 1000 l 1
 36 0 l 1
228 1000 m 1
 228 0 l 1
 103 0 l 1
 103 1000 l 1
 228 1000 l 1
EndSplineSet
Validated: 1
EndChar

StartChar: uniE033
Encoding: 57395 57395 36
Width: 228
Flags: MW
HStem: 0 21G<0 0 0 125 192 192 192 228>
VStem: 0 125<0 1000 0 1000> 192 36<0 1000 0 1000>
LayerCount: 2
Fore
SplineSet
192 0 m 1
 192 1000 l 1
 228 1000 l 1
 228 0 l 1
 192 0 l 1
0 0 m 1
 0 1000 l 1
 125 1000 l 1
 125 0 l 1
 0 0 l 1
EndSplineSet
Validated: 1
EndChar

StartChar: uniE034
Encoding: 57396 57396 37
Width: 125
Flags: MW
HStem: 0 21G<0 125 0 0>
VStem: 0 125<0 1000 0 1000>
LayerCount: 2
Fore
SplineSet
125 1000 m 1
 125 0 l 1
 0 0 l 1
 0 1000 l 1
 125 1000 l 1
EndSplineSet
Validated: 1
EndChar

StartChar: uniE035
Encoding: 57397 57397 38
Width: 343
Flags: MW
HStem: 0 21G<0 125 0 0 218 218 218 343>
VStem: 0 125<0 1000 0 1000> 218 125<0 1000 0 1000>
LayerCount: 2
Fore
SplineSet
125 1000 m 1
 125 0 l 1
 0 0 l 1
 0 1000 l 1
 125 1000 l 1
343 1000 m 1
 343 0 l 1
 218 0 l 1
 218 1000 l 1
 343 1000 l 1
EndSplineSet
Validated: 1
EndChar

StartChar: uniE036
Encoding: 57398 57398 39
Width: 36
Flags: MW
HStem: 0 125<0 36 0 36> 875 125<0 36 0 36>
VStem: 0 36<0 125 0 125 182 471 528 817 875 1000>
LayerCount: 2
Fore
SplineSet
36 875 m 1
 0 875 l 1
 0 1000 l 1
 36 1000 l 1
 36 875 l 1
36 471 m 1
 36 182 l 1
 0 182 l 1
 0 471 l 1
 36 471 l 1
36 817 m 1
 36 528 l 1
 0 528 l 1
 0 817 l 1
 36 817 l 1
36 125 m 1
 36 0 l 1
 0 0 l 1
 0 125 l 1
 36 125 l 1
EndSplineSet
Validated: 1
EndChar

StartChar: uniE037
Encoding: 57399 57399 40
Width: 49
Flags: MW
HStem: 0 49<18 31.5> 86 49<18 31.5> 172 50<18 31.5> 259 49<18 31.5> 345 49<18 31.5> 431 49<18 31.5> 517 49<18 31.5> 603 50<18 31.5> 690 49<18 31.5> 776 49<18 31.5> 862 49<18 31.5> 948 49<18 31.5>
VStem: 0 49<18 31.5 104 117.5 190.5 204 276.5 290 362.5 376 449 462.5 535 548.5 621 635 707.5 721 793.5 807 880 893.5 966 979.5>
LayerCount: 2
Fore
SplineSet
25 49 m 0
 38 49 49 38 49 25 c 0
 49 11 38 0 25 0 c 0
 11 0 0 11 0 25 c 0
 0 38 11 49 25 49 c 0
25 135 m 0
 38 135 49 124 49 111 c 0
 49 97 38 86 25 86 c 0
 11 86 0 97 0 111 c 0
 0 124 11 135 25 135 c 0
25 222 m 0
 38 222 49 211 49 197 c 0
 49 184 38 172 25 172 c 0
 11 172 0 184 0 197 c 0
 0 211 11 222 25 222 c 0
25 308 m 0
 38 308 49 297 49 283 c 0
 49 270 38 259 25 259 c 0
 11 259 0 270 0 283 c 0
 0 297 11 308 25 308 c 0
25 394 m 0
 38 394 49 383 49 369 c 0
 49 356 38 345 25 345 c 0
 11 345 0 356 0 369 c 0
 0 383 11 394 25 394 c 0
25 480 m 0
 38 480 49 469 49 456 c 0
 49 442 38 431 25 431 c 0
 11 431 0 442 0 456 c 0
 0 469 11 480 25 480 c 0
25 566 m 0
 38 566 49 555 49 542 c 0
 49 528 38 517 25 517 c 0
 11 517 0 528 0 542 c 0
 0 555 11 566 25 566 c 0
25 653 m 0
 38 653 49 642 49 628 c 0
 49 614 38 603 25 603 c 0
 11 603 0 614 0 628 c 0
 0 642 11 653 25 653 c 0
25 739 m 0
 38 739 49 728 49 714 c 0
 49 701 38 690 25 690 c 0
 11 690 0 701 0 714 c 0
 0 728 11 739 25 739 c 0
25 825 m 0
 38 825 49 814 49 800 c 0
 49 787 38 776 25 776 c 0
 11 776 0 787 0 800 c 0
 0 814 11 825 25 825 c 0
25 997 m 0
 38 997 49 986 49 973 c 0
 49 959 38 948 25 948 c 0
 11 948 0 959 0 973 c 0
 0 986 11 997 25 997 c 0
49 887 m 0
 49 873 38 862 25 862 c 0
 11 862 0 873 0 887 c 0
 0 900 11 911 25 911 c 0
 38 911 49 900 49 887 c 0
EndSplineSet
Validated: 1
EndChar

StartChar: uniE038
Encoding: 57400 57400 41
Width: 37
Flags: MW
HStem: 500 500<1 37 1 37>
VStem: 1 36<500 1000>
LayerCount: 2
Fore
SplineSet
37 500 m 1
 1 500 l 1
 1 1000 l 1
 37 1000 l 1
 37 500 l 1
EndSplineSet
Validated: 1
EndChar

StartChar: uniE039
Encoding: 57401 57401 42
Width: 36
Flags: MW
HStem: 868 252<0 36 0 36>
VStem: 0 36<868 1120>
LayerCount: 2
Fore
SplineSet
36 868 m 1
 0 868 l 1
 0 1120 l 1
 36 1120 l 1
 36 868 l 1
EndSplineSet
Validated: 1
EndChar

StartChar: uniE050
Encoding: 57424 57424 43
Width: 612
Flags: HMW
LayerCount: 2
Fore
SplineSet
242.534 531.6 m 5
 207.7781 650.978 190.4002 771.111 190.4002 891.998 c 4
 190.4002 949.4199 203.2459 1003.82 228.9334 1055.199 c 4
 254.6209 1106.576 290.1326 1149.6433 335.4664 1184.396 c 4
 336.97812 1185.90967 339.24472 1186.66358 342.2662 1186.66358 c 4
 345.28671 1186.66358 347.55429 1185.909674 349.066 1184.396 c 4
 386.8463 1140.5767 419.3326 1082.398 446.5338 1009.865 c 4
 473.733 937.3318 487.3317 873.11 487.3317 817.199 c 4
 487.3317 752.2205 471.4665 691.776 439.7321 635.866 c 4
 407.9997 579.9539 363.4206 519.511 306.0001 454.533 c 5
 324.1329 394.0877 343.0216 323.82 362.6671 243.732 c 5
 369.46593 243.732 l 6
 440.48843 243.732 498.66593 218.8004 543.99893 168.9332 c 4
 589.33293 119.065 611.99893 61.6452 611.99893 -3.3328 c 4
 611.99893 -84.9334 577.99893 -151.4218 509.99993 -202.8008 c 4
 485.82023 -219.4209 459.37783 -232.2676 430.66593 -241.333 c 5
 430.66593 -259.4658 l 5
 430.66593 -277.5996 l 6
 430.66593 -327.4668 429.912024 -371.2881 428.40031 -409.0666 c 4
 423.86613 -469.5129 402.33291 -520.8886 363.79871 -563.2006 c 4
 325.26551 -605.5121 278.04481 -626.6654 222.13271 -626.6654 c 4
 169.24601 -626.6654 123.91201 -607.3998 86.13371 -568.8666 c 4
 48.35541 -530.3334 29.46671 -484.6225 29.46671 -431.7336 c 4
 29.46671 -404.5344 40.42081 -381.1115 62.33391 -361.466 c 4
 84.24601 -341.8205 109.55561 -332.0002 138.26651 -332.0002 c 4
 163.95501 -332.0002 185.48721 -341.82051 202.86711 -361.466 c 4
 220.24601 -381.1115 228.93351 -404.5344 228.93351 -431.7336 c 4
 228.93351 -455.9113 219.8671 -477.0666 201.73331 -495.2004 c 4
 183.59951 -513.3332 162.44521 -522.3996 138.26651 -522.3996 c 4
 126.17961 -522.3996 114.08881 -519.37714 101.99991 -513.33319 c 5
 129.20111 -563.20039 169.99991 -588.13299 224.39991 -588.13299 c 4
 269.73291 -588.13299 307.88821 -570.00019 338.86691 -533.73359 c 4
 369.84541 -497.46499 386.84641 -454.39959 389.86691 -404.53459 c 4
 391.37863 -366.75429 392.13253 -324.44569 392.13253 -277.59959 c 6
 392.13253 -248.13279 l 5
 367.95483 -251.15427 343.02123 -252.66599 317.33373 -252.66599 c 4
 228.17943 -252.66599 152.99973 -217.91209 91.79973 -148.39899 c 4
 30.60053 -78.88829 0.000929999999954 4.22201 0.000929999999954 100.93301 c 4
 0.000929999999954 122.08731 2.26753 143.62051 6.80073 165.53361 c 4
 11.33296 187.44471 15.86714 206.33241 20.39933 222.19961 c 4
 24.93449 238.06581 34.00093 257.33141 47.60053 279.99941 c 4
 61.20113 302.66541 71.02243 319.66541 77.06733 330.99941 c 4
 83.11225 342.33241 96.33293 360.46621 116.73333 385.39881 c 4
 137.13373 410.33241 149.97843 426.19861 155.26753 432.99841 c 4
 160.55464 439.79821 175.28903 456.79921 199.46673 483.99841 c 4
 223.64443 511.19961 237.99993 527.06481 242.53413 531.59901 c 5
 242.534 531.6 l 5
428.4 -202.8 m 5
 463.1539 -192.2219 491.8658 -171.4445 514.5328 -140.466 c 4
 537.1998 -109.4875 548.5338 -76.6223 548.5338 -41.8664 c 4
 548.5338 3.4656 533.7994 43.8885 504.3326 79.3996 c 4
 474.8658 114.9123 435.9556 135.6877 387.5996 141.7336 c 5
 411.7773 25.3796 425.3769 -89.4654 428.4004 -202.7994 c 5
 428.4 -202.8 l 5
319.601 -216.399 m 5
 348.3129 -216.399 372.4877 -214.88728 392.1332 -211.86677 c 5
 389.11172 -98.53277 374.0004 20.08923 346.8012 144.00023 c 5
 307.5121 142.48851 276.1537 130.02173 252.7338 106.59983 c 4
 229.3119 83.17993 217.601 56.35573 217.601 26.13403 c 4
 217.601 -23.73217 244.0453 -63.77707 296.934 -93.99897 c 4
 301.46623 -98.53315 303.73283 -103.06538 303.73283 -107.60057 c 4
 303.73283 -119.68747 296.934 -125.73237 283.33343 -125.73237 c 6
 276.53363 -125.73237 l 5
 202.48873 -84.93257 165.46663 -25.99997 165.46663 51.06663 c 4
 165.46663 94.88893 179.82213 134.93383 208.53503 171.20063 c 4
 237.24693 207.46723 276.53403 230.13323 326.40103 239.19963 c 5
 320.70279 260.56683 304.93623 315.50043 279.09733 404.00063 c 4
 277.52506 409.38735 275.91471 414.89813 274.26725 420.53383 c 5
 239.51335 381.24573 213.06705 350.26723 194.93425 327.60123 c 4
 176.80045 304.93423 156.02115 275.84533 132.60125 240.33463 c 4
 109.18035 204.82193 92.18035 169.68913 81.60125 134.93463 c 4
 71.02315 100.18073 65.73405 63.91313 65.73405 26.13463 c 4
 65.73405 -38.84487 91.42155 -95.51137 142.80045 -143.86537 c 4
 194.18035 -192.22087 253.11245 -216.39857 319.60145 -216.39857 c 5
 319.601 -216.399 l 5
387.6 1050.67 m 5
 340.7543 1024.9815 303.3549 988.7149 275.401 941.871 c 4
 247.4449 895.0253 233.4674 844.4022 233.4674 790.004 c 4
 233.4674 729.5597 246.3131 654.759 272.0006 565.605 c 5
 320.3561 623.0259 357.3795 677.425 383.0666 728.803 c 4
 408.7541 780.1829 421.5998 834.583 421.5998 892.003 c 4
 421.5998 946.4024 410.2668 999.292 387.6 1050.67 c 5
EndSplineSet
Validated: 1
AlternateSubs2: "'ss01' Style Set 1 lookup 0 subtable" uniE050.ss01
EndChar

StartChar: uniE052
Encoding: 57426 57426 44
Width: 612
Flags: W
HStem: -881.798 16.4551<236.255 303.24> -643.188 16.4561<277.909 334.564> -626.665 38.5324<152.87 297.411> -522.4 190.399<102.567 194.792> -252.666 36.267<228.303 392.133>
VStem: 0.00093 65.7331<-29.7835 152.558> 29.4667 199.467<-488.205 -372.915> 165.467 52.1344<-39.5427 90.8926> 190.4 43.0672<673.301 899.602> 192.588 27.4277<-854.864 -787.12> 230.985 27.4258<-714.175 -659.556> 329.722 30.1689<-847.223 -787.008> 348.919 27.4277<-717.889 -653.13> 392.133 38.5334<-478.245 -248.133 -202.799 -10.0007> 421.6 65.7319<768.61 951.601> 548.534 63.4651<-105.643 45.2288>
LayerCount: 2
Fore
SplineSet
242.534 531.6 m 5xfc05
 207.7781 650.978 190.4002 771.111 190.4002 891.998 c 4
 190.4002 949.4199 203.2459 1003.82 228.9334 1055.199 c 4
 254.6209 1106.576 290.1326 1149.6433 335.4664 1184.396 c 4
 336.97812 1185.90967 339.24472 1186.66358 342.2662 1186.66358 c 4
 345.28671 1186.66358 347.55429 1185.909674 349.066 1184.396 c 4
 386.8463 1140.5767 419.3326 1082.398 446.5338 1009.865 c 4
 473.733 937.3318 487.3317 873.11 487.3317 817.199 c 4xfc83
 487.3317 752.2205 471.4665 691.776 439.7321 635.866 c 4
 407.9997 579.9539 363.4206 519.511 306.0001 454.533 c 5
 324.1329 394.0877 343.0216 323.82 362.6671 243.732 c 5
 369.46593 243.732 l 6
 440.48843 243.732 498.66593 218.8004 543.99893 168.9332 c 4
 589.33293 119.065 611.99893 61.6452 611.99893 -3.3328 c 4
 611.99893 -84.9334 577.99893 -151.4218 509.99993 -202.8008 c 4
 485.82023 -219.4209 459.37783 -232.2676 430.66593 -241.333 c 5
 430.66593 -259.4658 l 5
 430.66593 -277.5996 l 6
 430.66593 -327.4668 429.912024 -371.2881 428.40031 -409.0666 c 4
 423.86613 -469.5129 402.33291 -520.8886 363.79871 -563.2006 c 4
 325.26551 -605.5121 278.04481 -626.6654 222.13271 -626.6654 c 4
 169.24601 -626.6654 123.91201 -607.3998 86.13371 -568.8666 c 4
 48.35541 -530.3334 29.46671 -484.6225 29.46671 -431.7336 c 4
 29.46671 -404.5344 40.42081 -381.1115 62.33391 -361.466 c 4
 84.24601 -341.8205 109.55561 -332.0002 138.26651 -332.0002 c 4
 163.95501 -332.0002 185.48721 -341.82051 202.86711 -361.466 c 4
 220.24601 -381.1115 228.93351 -404.5344 228.93351 -431.7336 c 4xfa05
 228.93351 -455.9113 219.8671 -477.0666 201.73331 -495.2004 c 4
 183.59951 -513.3332 162.44521 -522.3996 138.26651 -522.3996 c 4
 126.17961 -522.3996 114.08881 -519.37714 101.99991 -513.33319 c 5
 129.20111 -563.20039 169.99991 -588.13299 224.39991 -588.13299 c 4
 269.73291 -588.13299 307.88821 -570.00019 338.86691 -533.73359 c 4
 369.84541 -497.46499 386.84641 -454.39959 389.86691 -404.53459 c 4
 391.37863 -366.75429 392.13253 -324.44569 392.13253 -277.59959 c 6
 392.13253 -248.13279 l 5
 367.95483 -251.15427 343.02123 -252.66599 317.33373 -252.66599 c 4
 228.17943 -252.66599 152.99973 -217.91209 91.79973 -148.39899 c 4
 30.60053 -78.88829 0.000929999999954 4.22201 0.000929999999954 100.93301 c 4
 0.000929999999954 122.08731 2.26753 143.62051 6.80073 165.53361 c 4
 11.33296 187.44471 15.86714 206.33241 20.39933 222.19961 c 4
 24.93449 238.06581 34.00093 257.33141 47.60053 279.99941 c 4
 61.20113 302.66541 71.02243 319.66541 77.06733 330.99941 c 4
 83.11225 342.33241 96.33293 360.46621 116.73333 385.39881 c 4
 137.13373 410.33241 149.97843 426.19861 155.26753 432.99841 c 4
 160.55464 439.79821 175.28903 456.79921 199.46673 483.99841 c 4
 223.64443 511.19961 237.99993 527.06481 242.53413 531.59901 c 5
 242.534 531.6 l 5xfc05
428.4 -202.8 m 5
 463.1539 -192.2219 491.8658 -171.4445 514.5328 -140.466 c 4
 537.1998 -109.4875 548.5338 -76.6223 548.5338 -41.8664 c 4
 548.5338 3.4656 533.7994 43.8885 504.3326 79.3996 c 4
 474.8658 114.9123 435.9556 135.6877 387.5996 141.7336 c 5
 411.7773 25.3796 425.3769 -89.4654 428.4004 -202.7994 c 5
 428.4 -202.8 l 5
319.601 -216.399 m 5
 348.3129 -216.399 372.4877 -214.88728 392.1332 -211.86677 c 5
 389.11172 -98.53277 374.0004 20.08923 346.8012 144.00023 c 5
 307.5121 142.48851 276.1537 130.02173 252.7338 106.59983 c 4
 229.3119 83.17993 217.601 56.35573 217.601 26.13403 c 4
 217.601 -23.73217 244.0453 -63.77707 296.934 -93.99897 c 4
 301.46623 -98.53315 303.73283 -103.06538 303.73283 -107.60057 c 4
 303.73283 -119.68747 296.934 -125.73237 283.33343 -125.73237 c 6
 276.53363 -125.73237 l 5
 202.48873 -84.93257 165.46663 -25.99997 165.46663 51.06663 c 4xfd01
 165.46663 94.88893 179.82213 134.93383 208.53503 171.20063 c 4
 237.24693 207.46723 276.53403 230.13323 326.40103 239.19963 c 5
 320.70279 260.56683 304.93623 315.50043 279.09733 404.00063 c 4
 277.52506 409.38735 275.91471 414.89813 274.26725 420.53383 c 5
 239.51335 381.24573 213.06705 350.26723 194.93425 327.60123 c 4
 176.80045 304.93423 156.02115 275.84533 132.60125 240.33463 c 4
 109.18035 204.82193 92.18035 169.68913 81.60125 134.93463 c 4
 71.02315 100.18073 65.73405 63.91313 65.73405 26.13463 c 4
 65.73405 -38.84487 91.42155 -95.51137 142.80045 -143.86537 c 4
 194.18035 -192.22087 253.11245 -216.39857 319.60145 -216.39857 c 5
 319.601 -216.399 l 5
387.6 1050.67 m 5
 340.7543 1024.9815 303.3549 988.7149 275.401 941.871 c 4
 247.4449 895.0253 233.4674 844.4022 233.4674 790.004 c 4
 233.4674 729.5597 246.3131 654.759 272.0006 565.605 c 5
 320.3561 623.0259 357.3795 677.425 383.0666 728.803 c 4
 408.7541 780.1829 421.5998 834.583 421.5998 892.003 c 4xf883
 421.5998 946.4024 410.2668 999.292 387.6 1050.67 c 5
321.4921875 -744.666015625 m 5
 334.291992188 -753.806640625 342.51953125 -761.12109375 346.176757812 -766.606445312 c 4
 355.318359375 -777.578125 359.890625 -789.462890625 359.890625 -802.26171875 c 4xf811
 359.890625 -826.033203125 350.748046875 -845.23046875 332.462890625 -859.858398438 c 4
 314.177734375 -874.484375 292.237304688 -881.797851562 266.638671875 -881.797851562 c 4
 217.271484375 -881.797851562 192.587890625 -863.514648438 192.587890625 -826.9453125 c 4
 192.587890625 -794.033203125 213.615234375 -769.34765625 255.66796875 -752.892578125 c 5
 239.2109375 -740.094726562 230.985351562 -723.637695312 230.985351562 -703.526367188 c 4
 230.985351562 -681.583984375 238.756835938 -663.299804688 254.298828125 -648.671875 c 4
 269.838867188 -634.046875 288.581054688 -626.731445312 310.521484375 -626.731445312 c 4
 328.806640625 -626.731445312 344.34765625 -632.215820312 357.1484375 -643.1875 c 4
 369.946289062 -654.158203125 376.346679688 -666.956054688 376.346679688 -681.583984375 c 4xf869
 376.346679688 -701.6953125 368.118164062 -717.239257812 351.662109375 -728.208984375 c 4
 346.176757812 -733.6953125 336.1171875 -739.1796875 321.4921875 -744.666015625 c 5
307.778320312 -736.436523438 m 4
 309.607421875 -736.436523438 311.436523438 -735.5234375 313.265625 -733.6953125 c 4
 337.036132812 -722.725585938 348.918945312 -705.35546875 348.918945312 -681.583984375 c 4
 348.918945312 -670.61328125 345.26171875 -661.471679688 337.94921875 -654.158203125 c 4
 330.634765625 -646.842773438 320.579101562 -643.1875 307.778320312 -643.1875 c 4
 293.151367188 -643.1875 281.265625 -647.302734375 272.124023438 -655.529296875 c 4
 262.984375 -663.754882812 258.411132812 -674.26953125 258.411132812 -687.069335938 c 4xf829
 258.411132812 -705.35546875 274.8671875 -721.811523438 307.778320312 -736.436523438 c 4
269.381835938 -761.12109375 m 6
 267.552734375 -762.951171875 265.725585938 -763.864257812 263.895507812 -763.864257812 c 4
 234.640625 -776.6640625 220.015625 -795.861328125 220.015625 -821.459960938 c 4
 220.015625 -850.715820312 236.470703125 -865.342773438 269.381835938 -865.342773438 c 4
 285.837890625 -865.342773438 300.009765625 -860.770507812 311.891601562 -851.629882812 c 4
 323.77734375 -842.48828125 329.721679688 -831.517578125 329.721679688 -818.71875 c 4xf851
 329.721679688 -802.26171875 320.579101562 -788.548828125 302.294921875 -777.578125 c 6
 269.381835938 -761.12109375 l 6
EndSplineSet
Validated: 1
EndChar

StartChar: uniE05C
Encoding: 57436 57436 45
Width: 699
Flags: MW
HStem: -506 32<441 493.5 441 545> -89 36<475.5 507.5> 53 36<475.5 507.5 439.5 556.5> 474 32<441 493.5>
VStem: 0 128<-482 482> 187 43<-482 -44 40 44 44 482> 289 145<-386 -353.5 353.5 386> 558 141<-339 -218.5 218.5 339>
LayerCount: 2
Fore
SplineSet
21 503 m 6
 107 503 l 6
 121 503 128 496 128 482 c 6
 128 -482 l 6
 128 -496 121 -503 107 -503 c 6
 21 -503 l 6
 7 -503 0 -496 0 -482 c 6
 0 482 l 6
 0 496 7 503 21 503 c 6
230 482 m 6
 230 44 l 6
 230 36 235 37 239 38 c 4
 265 45 307 71 328 184 c 4
 331 200 337 209 347 209 c 4
 358 209 363 199 368 182 c 4
 381 138 404 89 475 89 c 4
 540 89 558 153 558 284 c 4
 558 415 535 474 452 474 c 4
 430 474 410 471 394 466 c 4
 377 461 367 454 367 447 c 4
 367 442 383 436 394 432 c 4
 414 425 434 405 434 367 c 4
 434 323 405 298 366 298 c 4
 323 298 289 327 289 380 c 4
 289 443 344 506 463 506 c 4
 627 506 699 391 699 287 c 4
 699 149 623 53 490 53 c 4
 461 53 442 58 429 62 c 4
 419 65 409 67 400 61 c 4
 386 52 364 20 364 0 c 4
 364 -20 386 -52 400 -61 c 4
 409 -67 419 -65 429 -62 c 4
 442 -58 461 -53 490 -53 c 4
 623 -53 699 -149 699 -287 c 4
 699 -391 627 -506 463 -506 c 4
 344 -506 289 -443 289 -380 c 4
 289 -327 323 -298 366 -298 c 4
 405 -298 434 -323 434 -367 c 4
 434 -405 414 -425 394 -432 c 4
 383 -436 367 -442 367 -447 c 4
 367 -454 377 -461 394 -466 c 4
 410 -471 430 -474 452 -474 c 4
 535 -474 558 -415 558 -284 c 4
 558 -153 540 -89 475 -89 c 4
 404 -89 381 -138 368 -182 c 4
 363 -199 358 -209 347 -209 c 4
 337 -209 331 -200 328 -184 c 4
 307 -71 265 -45 239 -38 c 4
 235 -37 230 -36 230 -44 c 6
 230 -482 l 6
 230 -496 223 -503 209 -503 c 6
 208 -503 l 6
 194 -503 187 -496 187 -482 c 6
 187 482 l 6
 187 496 194 503 208 503 c 6
 209 503 l 6
 223 503 230 496 230 482 c 6
EndSplineSet
Validated: 1
AlternateSubs2: "'salt' Stylistic Alternatives lookup 5 subtable" uniE05C.salt01 uniE05C.salt03
AlternateSubs2: "'ss01' Style Set 1 lookup 0 subtable" uniE05C.ss01
EndChar

StartChar: uniE05D
Encoding: 57437 57437 46
Width: 699
Flags: MW
HStem: -741 15<288 315 288 326.5> -520 15<336 359> -506 32<441 493.5 441 545> -89 36<475.5 507.5> 53 36<475.5 507.5 439.5 556.5> 474 32<441 493.5>
VStem: 0 128<-482 482> 187 43<-482 -44 40 44 44 482> 224 39<-697 -680 -697 -670> 262 47<-562 -551> 278 93 289 145<-386 -353.5 353.5 386> 346 47<-693 -678.5> 379 38<-560.5 -544> 558 141<-339 -218.5 218.5 339>
LayerCount: 2
Fore
SplineSet
347 -520 m 0xdf46
 325 -520 309 -533 309 -555 c 0xbe8a
 309 -569 317 -578 340 -596 c 0xbf26
 348 -601 351 -601 355 -598 c 0
 372 -586 379 -569 379 -552 c 0
 379 -536 371 -520 347 -520 c 0xdf46
291 -636 m 0
 270 -649 263 -672 263 -688 c 0
 263 -706 273 -726 303 -726 c 0xdf46
 327 -726 346 -712 346 -686 c 0xbf26
 346 -671 338 -664 306 -639 c 0
 299 -634 296 -633 291 -636 c 0
348 -505 m 0
 397 -505 417 -528 417 -557 c 0
 417 -575 407 -596 380 -610 c 0
 368 -616 370 -618 377 -626 c 0
 389 -639 393 -652 393 -670 c 0
 393 -716 351 -741 302 -741 c 0xbe8a
 248 -741 224 -715 224 -682 c 0
 224 -658 237 -636 269 -623 c 0
 281 -618 279 -616 274 -609 c 0
 266 -599 262 -587 262 -572 c 0
 262 -530 297 -505 348 -505 c 0
21 503 m 2
 107 503 l 2
 121 503 128 496 128 482 c 2
 128 -482 l 2
 128 -496 121 -503 107 -503 c 2
 21 -503 l 2
 7 -503 0 -496 0 -482 c 2
 0 482 l 2
 0 496 7 503 21 503 c 2
230 482 m 2xbf12
 230 44 l 2
 230 36 235 37 239 38 c 0
 265 45 307 71 328 184 c 0
 331 200 337 209 347 209 c 0
 358 209 363 199 368 182 c 0
 381 138 404 89 475 89 c 0
 540 89 558 153 558 284 c 0
 558 415 535 474 452 474 c 0
 430 474 410 471 394 466 c 0
 377 461 367 454 367 447 c 0
 367 442 383 436 394 432 c 0
 414 425 434 405 434 367 c 0
 434 323 405 298 366 298 c 0
 323 298 289 327 289 380 c 0
 289 443 344 506 463 506 c 0
 627 506 699 391 699 287 c 0
 699 149 623 53 490 53 c 0
 461 53 442 58 429 62 c 0
 419 65 409 67 400 61 c 0
 386 52 364 20 364 0 c 0
 364 -20 386 -52 400 -61 c 0
 409 -67 419 -65 429 -62 c 0
 442 -58 461 -53 490 -53 c 0
 623 -53 699 -149 699 -287 c 0
 699 -391 627 -506 463 -506 c 0
 344 -506 289 -443 289 -380 c 0
 289 -327 323 -298 366 -298 c 0
 405 -298 434 -323 434 -367 c 0
 434 -405 414 -425 394 -432 c 0
 383 -436 367 -442 367 -447 c 0
 367 -454 377 -461 394 -466 c 0
 410 -471 430 -474 452 -474 c 0
 535 -474 558 -415 558 -284 c 0
 558 -153 540 -89 475 -89 c 0
 404 -89 381 -138 368 -182 c 0
 363 -199 358 -209 347 -209 c 0
 337 -209 331 -200 328 -184 c 0
 307 -71 265 -45 239 -38 c 0
 235 -37 230 -36 230 -44 c 2
 230 -482 l 2
 230 -496 223 -503 209 -503 c 2
 208 -503 l 2
 194 -503 187 -496 187 -482 c 2
 187 482 l 2
 187 496 194 503 208 503 c 2
 209 503 l 2
 223 503 230 496 230 482 c 2xbf12
EndSplineSet
Validated: 1
EndChar

StartChar: uniE062
Encoding: 57442 57442 47
Width: 684
Flags: HMW
HStem: -179 108<614.5 645.5> -110 210<119.5 154.5> 70 110<613.5 644.5> 224 38<178 282>
VStem: 0 67<-1 131> 381 150<-88.5 41.5> 576 108<-140.5 -109.5>
LayerCount: 2
Fore
SplineSet
252 262 m 4x5e
 425 262 531 146 531 -28 c 4
 531 -159 479 -281 392 -375 c 4
 286 -489 158 -565 25 -630 c 4
 19 -633 13 -635 8 -635 c 4
 -1 -635 -5 -629 -5 -623 c 4
 -5 -615 1 -610 10 -605 c 4
 134 -534 237 -449 297 -356 c 4
 359 -260 381 -140 381 -37 c 4
 381 120 335 224 229 224 c 4
 127 224 67 151 67 111 c 4
 67 101 70 93 83 93 c 4
 96 93 106 100 133 100 c 4
 182 100 229 60 229 -4 c 4
 229 -66 186 -110 123 -110 c 4
 42 -110 0 -41 0 39 c 4
 0 135 78 262 252 262 c 4x5e
630 -71 m 4xbe
 661 -71 684 -94 684 -125 c 4
 684 -156 661 -179 630 -179 c 4
 599 -179 576 -156 576 -125 c 4
 576 -94 599 -71 630 -71 c 4xbe
629 180 m 4
 660 180 684 156 684 125 c 4
 684 94 660 70 629 70 c 4
 598 70 574 94 574 125 c 4
 574 156 598 180 629 180 c 4
EndSplineSet
Validated: 1
AlternateSubs2: "'salt' Stylistic Alternatives lookup 5 subtable" uniE062.salt01 uniE062.salt02
AlternateSubs2: "'ss01' Style Set 1 lookup 0 subtable" uniE062.ss01
EndChar

StartChar: uniE064
Encoding: 57444 57444 48
Width: 684
Flags: W
HStem: -1046.16 16.9395<235.937 304.28> -806.575 15.7295<279.531 333.084> -179 108<586.382 673.618> -110 203<68.3058 161.038> 70 110<584.743 673.257> 224 38<145.737 294.385>
VStem: 0 67<-1 129.05> 193.146 26.6201<-1018.3 -951.182> 230.654 27.8301<-878.221 -824.284> 329.875 30.25<-1011.16 -951.858> 349.234 26.6201<-881.241 -817.949> 381 150<-171.967 95.1981> 576 108<-168.618 -81.382 80.743 169.257>
LayerCount: 2
Fore
SplineSet
321.404296875 -908.215820312 m 5xc7b8
 334.715820312 -917.895507812 341.974609375 -923.9453125 345.604492188 -929.995117188 c 4
 355.284179688 -940.884765625 360.125 -952.984375 360.125 -966.294921875 c 4xc7d8
 360.125 -990.495117188 350.4453125 -1009.85449219 332.294921875 -1024.375 c 4
 314.145507812 -1038.89550781 292.365234375 -1046.15527344 266.955078125 -1046.15527344 c 4
 217.344726562 -1046.15527344 193.145507812 -1026.79492188 193.145507812 -990.495117188 c 4
 193.145507812 -957.825195312 213.715820312 -933.625 256.065429688 -916.684570312 c 5
 239.125 -903.375 230.654296875 -887.645507812 230.654296875 -867.075195312 c 4
 230.654296875 -845.294921875 239.125 -827.145507812 254.854492188 -812.625 c 4
 270.584960938 -798.104492188 288.734375 -790.845703125 310.515625 -790.845703125 c 4
 328.665039062 -790.845703125 344.395507812 -795.684570312 357.705078125 -806.575195312 c 4
 371.015625 -817.465820312 375.854492188 -830.775390625 375.854492188 -845.294921875 c 4
 375.854492188 -865.865234375 368.595703125 -881.595703125 351.654296875 -892.484375 c 4
 345.604492188 -898.534179688 335.924804688 -902.165039062 321.404296875 -908.215820312 c 5xc7b8
308.095703125 -900.955078125 m 4
 310.515625 -900.955078125 310.515625 -899.745117188 312.934570312 -897.325195312 c 4
 337.134765625 -886.434570312 349.234375 -869.495117188 349.234375 -845.294921875 c 4xc7b8
 349.234375 -834.405273438 345.604492188 -825.934570312 338.345703125 -818.674804688 c 4
 331.084960938 -811.415039062 321.404296875 -806.575195312 308.095703125 -806.575195312 c 4
 293.575195312 -806.575195312 281.474609375 -811.415039062 271.794921875 -819.884765625 c 4
 262.115234375 -828.354492188 258.484375 -838.034179688 258.484375 -851.345703125 c 4
 258.484375 -869.495117188 275.424804688 -886.434570312 308.095703125 -900.955078125 c 4
269.375 -925.155273438 m 6
 266.955078125 -927.575195312 265.745117188 -927.575195312 263.325195312 -927.575195312 c 4
 234.284179688 -940.884765625 219.765625 -960.245117188 219.765625 -985.655273438 c 4
 219.765625 -1014.6953125 236.705078125 -1029.21582031 269.375 -1029.21582031 c 4
 286.315429688 -1029.21582031 299.625 -1025.58496094 311.724609375 -1015.90527344 c 4
 323.825195312 -1006.22460938 329.875 -996.544921875 329.875 -983.234375 c 4xc7d8
 329.875 -966.294921875 320.1953125 -952.984375 302.044921875 -942.095703125 c 6
 269.375 -925.155273438 l 6
252 262 m 0
 425 262 531 146 531 -28 c 0
 531 -159 479 -281 392 -375 c 0
 286 -489 158 -565 25 -630 c 0
 19 -633 13 -635 8 -635 c 0
 -1 -635 -5 -629 -5 -623 c 0
 -5 -615 1 -610 10 -605 c 0
 134 -534 237 -449 297 -356 c 0
 359 -260 381 -140 381 -37 c 0
 381 120 335 224 229 224 c 0
 127 224 67 151 67 111 c 0
 67 101 70 93 83 93 c 0
 96 93 106 100 133 100 c 0
 182 100 229 60 229 -4 c 0
 229 -66 186 -110 123 -110 c 0xd798
 42 -110 0 -41 0 39 c 0
 0 135 78 262 252 262 c 0
630 -71 m 0xe798
 661 -71 684 -94 684 -125 c 0
 684 -156 661 -179 630 -179 c 0
 599 -179 576 -156 576 -125 c 0
 576 -94 599 -71 630 -71 c 0xe798
629 180 m 0xcf98
 660 180 684 156 684 125 c 0
 684 94 660 70 629 70 c 0
 598 70 574 94 574 125 c 0
 574 156 598 180 629 180 c 0xcf98
EndSplineSet
Validated: 1
EndChar

StartChar: uniE069
Encoding: 57449 57449 50
Width: 382
Flags: HMW
LayerCount: 2
Fore
SplineSet
160 -235 m 2
 160 -243 154 -250 146 -250 c 2
 14 -250 l 2
 6 -250 0 -243 0 -235 c 2
 0 235 l 2
 0 243 6 250 14 250 c 2
 146 250 l 2
 154 250 160 243 160 235 c 2
 160 -235 l 2
382 235 m 2
 382 -235 l 2
 382 -243 376 -250 368 -250 c 2
 236 -250 l 2
 228 -250 222 -243 222 -235 c 2
 222 235 l 2
 222 243 228 250 236 250 c 2
 368 250 l 2
 376 250 382 243 382 235 c 2
EndSplineSet
Validated: 1
AlternateSubs2: "'salt' Stylistic Alternatives lookup 5 subtable" uniE069.salt01
EndChar

StartChar: uniE06D
Encoding: 57453 57453 54
Width: 409
Flags: HMW
HStem: -748 53<87 234 234 239> -533 53<87 203 203 234 87 203> -330 53<87 203 87 87> -87 51<126 276 126 292 111 276> 178 64<203 203> 711 53<18 173 18 387 233 387 233 233>
VStem: 27 60<-695 -533 -480 -330> 173 60<293 711 293 711> 297 60<-420.5 -381> 318 60<-636.5 -591>
LayerCount: 2
Fore
SplineSet
387 711 m 1xf740
 233 711 l 1xf740
 233 293 l 1
 173 293 l 1
 173 711 l 1
 18 711 l 1
 18 764 l 1xe280
 387 764 l 1
 387 711 l 1xf740
408 -228 m 1x6280
 341 -228 l 1
 292 -87 l 1xdf40
 111 -87 l 1
 61 -228 l 1
 -3 -228 l 1
 165 242 l 1
 243 242 l 1
 408 -228 l 1x6280
276 -36 m 1
 203 178 l 1
 126 -36 l 1
 276 -36 l 1
378 -613 m 0
 378 -691 324 -748 239 -748 c 2
 27 -748 l 1
 27 -277 l 1
 218 -277 l 2
 307 -277 357 -328 357 -397 c 0
 357 -444 335 -479 292 -499 c 1
 352 -522 378 -557 378 -613 c 0
297 -405 m 0
 297 -357 270 -330 203 -330 c 2
 87 -330 l 1
 87 -480 l 1
 203 -480 l 2
 270 -480 297 -453 297 -405 c 0
318 -614 m 0
 318 -568 290 -533 234 -533 c 2
 87 -533 l 1
 87 -695 l 1
 234 -695 l 2
 290 -695 318 -659 318 -614 c 0
EndSplineSet
Validated: 1
AlternateSubs2: "'salt' Stylistic Alternatives lookup 5 subtable" uniE06D.salt01 uniE06D.salt02
EndChar

StartChar: uniE06E
Encoding: 57454 57454 55
Width: 271
Flags: HMW
HStem: -508 36<57 156 156 159> -364 35<57 135 135 156 57 135> -228 35<57 135 57 57> -65 33<83 184 83 195 73 184> 112 43<135 135> 469 35<11 115 11 258 155 258 155 155>
VStem: 17 40<-472 -364 -329 -228> 115 40<189 469 189 469> 198 40<-289 -263> 212 40<-433.5 -403>
LayerCount: 2
Fore
SplineSet
258 469 m 1xf740
 155 469 l 1xf740
 155 189 l 1x8040
 115 189 l 1
 115 469 l 1
 11 469 l 1
 11 504 l 1xe280
 258 504 l 1
 258 469 l 1xf740
272 -160 m 1x6280
 227 -160 l 1
 195 -65 l 1xdf40
 73 -65 l 1
 40 -160 l 1
 -3 -160 l 1
 110 155 l 1
 162 155 l 1
 272 -160 l 1x6280
184 -32 m 1
 135 112 l 1
 83 -32 l 1
 184 -32 l 1
252 -418 m 0
 252 -470 216 -508 159 -508 c 2
 17 -508 l 1
 17 -193 l 1
 145 -193 l 2
 205 -193 238 -227 238 -273 c 0
 238 -305 223 -328 195 -342 c 1
 235 -357 252 -380 252 -418 c 0
198 -279 m 0
 198 -247 180 -228 135 -228 c 2
 57 -228 l 1
 57 -329 l 1
 135 -329 l 2
 180 -329 198 -311 198 -279 c 0
212 -418 m 0
 212 -388 194 -364 156 -364 c 2
 57 -364 l 1
 57 -472 l 1
 156 -472 l 2
 194 -472 212 -449 212 -418 c 0
EndSplineSet
Validated: 1
AlternateSubs2: "'salt' Stylistic Alternatives lookup 5 subtable" uniE06E.salt01 uniE06E.salt02
EndChar

StartChar: uniE07A
Encoding: 57466 57466 67
Width: 440
Flags: HMW
HStem: -455 32<211 212> -181 32<208.5 253.5 208.5 254> 48 103<291 318.5>
VStem: 1 60 85 151<-344.5 -336.5> 133 49<-30 42.5> 192 34<450.5 468> 312 33<-363.5 -308.5> 339 37<523 539.5 461 543> 386 54<-45.5 -39 -39 -39>
LayerCount: 2
Fore
SplineSet
386 -46 m 2xf340
 386 -39 l 2
 383 16 346 48 291 48 c 1
 305 -26 309 -77 319 -136 c 1
 366 -116 386 -92 386 -46 c 2xf340
61 -5 m 2
 61 -11 l 1
 65 -125 173 -149 244 -149 c 0
 263 -149 277 -147 287 -143 c 1
 253 45 l 1
 218 38 182 22 182 -24 c 2xf940
 182 -30 l 2
 183 -57 206 -83 219 -88 c 0
 224 -91 229 -96 229 -100 c 0
 229 -103 226 -106 221 -106 c 0
 218 -106 213 -105 207 -103 c 0
 176 -93 147 -60 137 -16 c 0
 134 -7 133 3 133 13 c 0
 133 72 179 128 238 145 c 1
 226 224 l 1xf2c0
 140 160 61 101 61 -5 c 2
303 578 m 0
 251 576 226 502 226 434 c 0
 226 426 226 418 227 411 c 0
 227 407 230 394 232 378 c 1
 302 432 330 457 338 511 c 0
 339 516 339 521 339 525 c 0
 339 561 325 578 303 578 c 0
440 1 m 1
 440 -9 l 2
 440 -82 397 -142 324 -169 c 1
 331 -215 345 -262 345 -312 c 0
 345 -415 271 -451 225 -454 c 0
 220 -454 214 -455 210 -455 c 0
 102 -455 85 -380 85 -343 c 0
 85 -330 87 -320 88 -320 c 0xf2c0
 93 -279 129 -248 168 -248 c 0
 178 -248 187 -250 197 -255 c 0
 224 -266 236 -292 236 -320 c 2
 236 -325 l 2
 236 -364 200 -385 173 -393 c 0
 167 -396 162 -396 156 -397 c 0
 153 -399 150 -400 150 -403 c 0
 150 -405 152 -407 156 -410 c 0
 170 -420 189 -423 211 -423 c 2
 224 -423 l 2
 232 -423 312 -422 312 -315 c 0
 312 -302 308 -265 305 -249 c 2
 292 -178 l 1
 278 -178 264 -181 244 -181 c 0
 137 -181 13 -131 1 28 c 0xf740
 0 35 0 42 0 48 c 0
 0 174 108 271 205 353 c 1
 197 395 l 2
 193 418 192 440 192 461 c 0
 192 580 236 679 298 707 c 1
 298 707 322 703 347 644 c 0
 366 602 376 560 376 519 c 0
 376 403 344 320 256 239 c 1
 263 203 266 193 273 150 c 1
 275 151 279 151 281 151 c 2
 288 151 l 2
 372 151 434 85 440 1 c 1
EndSplineSet
Validated: 1
EndChar

StartChar: uniE07B
Encoding: 57467 57467 68
Width: 506
Flags: HMW
HStem: -332 27<311.5 353.5 311.5 394.5> -67 42<344 371> -34 68<187 187> 26 42<344 371 327.5 408> 306 26<317.5 353.5>
VStem: 0 102<-317 317> 150 37<-318 -34 34 317> 222 106<-246.5 -227.5 228 245.5> 395 111<-216 -140.5 -216.5 -138 -216.5 -112 140 216>
LayerCount: 2
Fore
SplineSet
102 317 m 2xde80
 102 -317 l 2
 102 -325 96 -332 87 -332 c 2
 15 -332 l 2
 7 -332 0 -325 0 -317 c 2
 0 317 l 2
 0 325 7 332 15 332 c 2
 87 332 l 2
 96 332 102 325 102 317 c 2xde80
395 137 m 2
 395 216 l 2
 395 257 382 306 325 306 c 0
 310 306 295 302 282 289 c 0
 280 288 280 287 280 286 c 0
 280 282 290 280 292 278 c 0
 298 273 328 257 328 234 c 0
 328 208 301 184 273 184 c 0
 244 184 222 214 222 242 c 0
 222 269 251 332 347 332 c 0
 442 332 506 254 506 178 c 0
 506 102 456 26 360 26 c 0
 328 26 317 45 308 45 c 0
 300 45 290 31 284 22 c 0
 284 20 282 20 281 18 c 0
 277 9 274 2 274 0 c 0
 274 -7 279 -13 282 -21 c 0
 288 -31 298 -46 308 -46 c 0
 317 -46 328 -25 360 -25 c 0
 456 -25 506 -102 506 -179 c 0
 506 -254 442 -332 347 -332 c 0
 251 -332 222 -268 222 -241 c 0
 222 -214 244 -183 273 -183 c 0
 301 -183 328 -207 328 -233 c 0
 328 -260 297 -271 290 -278 c 0
 288 -280 280 -282 280 -286 c 0
 280 -287 281 -288 283 -290 c 0
 289 -296 298 -305 325 -305 c 0
 382 -305 395 -258 395 -216 c 2
 395 -138 l 2
 395 -86 393 -67 349 -67 c 0
 306 -67 289 -86 279 -119 c 0
 274 -133 269 -138 264 -138 c 0xdf80
 257 -138 251 -128 249 -119 c 0
 232 -40 206 -36 187 -34 c 1
 187 -318 l 2
 187 -326 172 -332 164 -332 c 0
 156 -332 150 -326 150 -318 c 2
 150 317 l 2
 150 326 156 332 164 332 c 0
 172 332 187 326 187 317 c 2
 187 34 l 1
 206 36 232 40 249 119 c 0xae80
 251 128 257 138 264 138 c 0
 269 138 274 133 279 119 c 0
 289 86 306 68 349 68 c 0
 393 68 395 86 395 137 c 2
EndSplineSet
Validated: 1
AlternateSubs2: "'salt' Stylistic Alternatives lookup 5 subtable" uniE07B.salt01
EndChar

StartChar: uniE07C
Encoding: 57468 57468 69
Width: 462
Flags: HMW
HStem: -129 88<406.5 430.5> -94 153<70 84 84 88> 39 88<405.5 430> 136 34<128 166>
VStem: 0 169<4.5 19.5 -30 36.5> 234 116<-39.5 -22 -39.5 -22> 374 88<71.5 96>
LayerCount: 2
Fore
SplineSet
162 170 m 2x5c
 166 170 l 1
 166 170 234 166 288 122 c 0
 321 95 348 51 350 -18 c 2
 350 -22 l 2
 350 -57 340 -98 322 -139 c 0
 299 -193 262 -248 215 -295 c 0
 165 -345 75 -414 -2 -414 c 0
 -6 -414 -15 -408 -15 -403 c 0
 -15 -400 -12 -391 -2 -385 c 0
 32 -366 67 -351 98 -327 c 0
 154 -284 188 -241 211 -174 c 0
 226 -128 234 -77 234 -28 c 0
 234 -16 234 -3 232 9 c 0
 232 14 231 16 231 17 c 0
 227 51 224 82 200 110 c 0
 185 126 168 135 147 135 c 2
 147 135 143 136 137 136 c 0
 119 136 78 130 55 77 c 1
 55 77 54 75 54 73 c 0
 54 67 56 59 70 59 c 2
 89 59 l 2
 117 59 169 49 169 -10 c 0
 169 -50 128 -94 88 -94 c 2
 84 -94 l 2
 46 -94 8 -63 1 -3 c 0
 0 0 0 3 0 6 c 0
 0 67 50 170 162 170 c 2x5c
418 -41 m 0xbe
 443 -41 463 -61 463 -85 c 0
 463 -109 443 -129 418 -129 c 0
 395 -129 375 -109 375 -85 c 0
 375 -61 395 -41 418 -41 c 0xbe
418 127 m 0
 442 127 462 108 462 84 c 0
 462 59 442 39 418 39 c 0
 393 39 374 59 374 84 c 0
 374 108 393 127 418 127 c 0
EndSplineSet
Validated: 1
EndChar

StartChar: uniE07D
Encoding: 57469 57469 70
Width: 205
Flags: HMW
HStem: 0 12<82.5 99> 230 17<120 125 113 128.5>
VStem: 0 38<70 76.5 70 84> 39 50<178 205> 129 50<40 77> 169 36<190 194.5>
LayerCount: 2
Fore
SplineSet
55 109 m 0xe8
 52 107 49 104 48 101 c 0
 42 93 38 82 38 71 c 0
 38 69 38 67 39 64 c 0
 46 32 73 12 92 12 c 0
 112 12 129 32 129 48 c 0
 129 53 127 57 125 62 c 0
 120 75 111 86 100 96 c 0
 94 101 89 106 83 110 c 0
 79 112 71 116 69 116 c 0
 63 116 58 113 55 109 c 0xe8
89 205 m 0xd4
 89 191 99 180 107 171 c 0
 115 163 123 153 133 146 c 0
 138 144 143 142 146 142 c 0
 163 142 168 172 169 190 c 0
 169 199 166 210 160 216 c 0
 152 225 137 230 120 230 c 0
 105 229 91 222 89 205 c 0xd4
113 247 m 2
 117 247 l 2xd4
 133 247 205 237 205 187 c 0
 205 152 183 144 174 137 c 0
 168 132 166 127 166 121 c 0xe4
 166 115 166 110 170 105 c 0
 176 94 179 83 179 71 c 0
 179 44 161 18 133 6 c 0
 122 2 106 0 92 0 c 0
 58 0 10 21 2 58 c 0
 1 63 0 68 0 70 c 0xe8
 0 98 25 127 51 136 c 0
 55 137 57 138 57 141 c 0
 57 143 56 144 55 144 c 0
 44 157 39 171 39 185 c 0
 39 209 53 231 79 241 c 0
 89 246 101 247 113 247 c 2
EndSplineSet
Validated: 1
EndChar

StartChar: uniE07E
Encoding: 57470 57470 71
Width: 359
Flags: HMW
HStem: -3 13<207 213 207 239> 0 21G<120 123.5> 141 23<250.5 252.5> 203 45
VStem: 150 51<52.5 61.5> 179 41<120.5 167.5> 280 44<64 123>
LayerCount: 2
Fore
SplineSet
120 0 m 0x7a
 89 4 0 -9 0 9 c 1
 8 27 29 2 47 39 c 0
 55 55 87 136 86 136 c 2
 86 136 88 141 88 145 c 0
 88 149 87 152 81 152 c 0
 71 152 67 133 47 133 c 0
 41 133 36 136 36 141 c 0
 36 143 36 144 38 147 c 0
 44 154 118 240 125 246 c 0
 132 252 136 255 141 255 c 0
 151 255 158 244 174 244 c 0
 180 244 185 248 188 248 c 0
 192 248 193 247 193 243 c 2
 193 239 l 2
 192 232 106 39 105 31 c 0
 105 10 132 20 132 9 c 0
 132 4 127 0 120 0 c 0x7a
166 84 m 2xba
 173 86 l 1
 177 86 l 2
 191 86 201 74 201 60 c 0
 201 45 187 42 184 24 c 0
 184 13 201 10 213 10 c 0xba
 228 11 253 20 273 77 c 0
 278 91 280 101 280 109 c 0
 280 137 258 141 247 141 c 0
 220 141 200 114 190 114 c 0
 179 114 179 118 179 123 c 0
 179 139 215 246 227 248 c 2
 292 248 l 2
 326 248 359 249 359 244 c 0
 359 222 325 210 304 206 c 2
 275 200 l 2
 264 198 253 196 241 193 c 2
 227 190 l 2
 222 186 220 171 220 164 c 0
 220 163 221 161 224 161 c 0
 232 161 246 164 255 164 c 0xb6
 279 164 286 152 298 152 c 1
 301 149 l 2
 316 138 324 116 324 94 c 0
 324 34 266 -3 212 -3 c 0
 181 -3 150 17 150 55 c 0
 150 68 155 78 166 84 c 2xba
EndSplineSet
Validated: 33
EndChar

StartChar: uniE080
Encoding: 57472 57472 73
Width: 470
Flags: HMW
HStem: -250 45<214 255.5 214 294.5> 220 31<214 255.5>
VStem: 20 140<-51.5 66 -51.5 69.5> 310 140<-51.5 66>
LayerCount: 2
Fore
SplineSet
450 0 m 0
 450 -138 354 -250 235 -250 c 0
 116 -250 20 -138 20 0 c 0
 20 139 116 251 235 251 c 0
 354 251 450 139 450 0 c 0
235 220 m 0
 193 220 160 125 160 7 c 0
 160 -110 193 -205 235 -205 c 0
 276 -205 310 -110 310 7 c 0
 310 125 276 220 235 220 c 0
EndSplineSet
Validated: 1
AlternateSubs2: "'ss04' Style Set 4 lookup 3 subtable" uniE080.ss04
AlternateSubs2: "'ss01' Style Set 1 lookup 0 subtable" uniE080.ss01
EndChar

StartChar: uniE081
Encoding: 57473 57473 74
Width: 334
Flags: HMW
HStem: -250 31<78.5 85 85 90.5 292 298> 230 20G<142 143> 231 20G<133 138.5 240 247>
VStem: 124 143<-181 77 77 80>
LayerCount: 2
Fore
SplineSet
24 13 m 5xb0
 120 232 l 6
 124 241 128 251 138 251 c 4xb0
 139 251 141 250 143 250 c 4xd0
 158 248 176 247 195 247 c 4
 208 247 233 251 247 251 c 4
 261 250 267 244 267 228 c 6
 267 -184 l 6
 267 -201 285 -219 299 -219 c 4
 314 -219 314 -234 314 -234 c 5
 314 -234 314 -250 298 -250 c 6
 85 -250 l 6
 72 -250 63 -245 63 -234 c 4
 63 -222 73 -219 80 -219 c 4
 101 -219 124 -204 124 -181 c 6
 124 77 l 6
 124 83 122 91 118 91 c 4
 116 91 112 88 108 81 c 4
 97 62 54 -7 54 -7 c 5
 54 -7 50 -16 40 -16 c 4
 39 -16 35 -15 31 -14 c 4
 23 -11 20 -5 20 0 c 4
 20 7 24 13 24 13 c 5xb0
EndSplineSet
Validated: 1
AlternateSubs2: "'ss04' Style Set 4 lookup 3 subtable" uniE081.ss04
AlternateSubs2: "'ss01' Style Set 1 lookup 0 subtable" uniE081.ss01
EndChar

StartChar: uniE082
Encoding: 57474 57474 75
Width: 446
Flags: HMW
HStem: -257 21G<47 59> -250 117<240.5 366.5> -196 101<111.5 221.5> 20 234<93 240> 229 25<215.5 235.5>
VStem: 20 161<111 131.5> 281 145<114 125.5 80 147.5>
LayerCount: 2
Fore
SplineSet
421 -91 m 4x56
 405 -246 328 -250 285 -250 c 4x56
 196 -250 181 -196 141 -196 c 4
 82 -196 70 -257 48 -257 c 4
 46 -257 43 -257 40 -255 c 4
 29 -248 22 -235 22 -224 c 4
 22 -222 23 -220 23 -218 c 4
 40 -155 79 -106 134 -71 c 4
 183 -41 211 -17 247 31 c 4
 269 60 281 95 281 133 c 4
 281 162 280 229 191 229 c 4xae
 132 229 114 205 112 191 c 4
 112 171 181 168 181 108 c 4
 181 83 172 20 111 20 c 4
 75 20 44 44 29 75 c 4
 23 90 20 104 20 118 c 4
 20 145 31 170 48 191 c 4
 72 219 107 240 142 247 c 4
 168 253 202 254 229 254 c 4
 251 254 329 248 380 205 c 4
 406 183 426 149 426 102 c 4
 426 58 407 29 383 10 c 4
 350 -17 308 -25 293 -29 c 4
 271 -35 186 -65 164 -101 c 5
 175 -97 188 -95 201 -95 c 4xb6
 242 -95 289 -111 309 -119 c 4
 319 -124 326 -125 339 -130 c 4
 346 -132 351 -133 356 -133 c 4
 377 -133 385 -114 395 -90 c 4
 395 -89 396 -88 396 -87 c 4
 398 -81 401 -77 409 -77 c 4
 416 -77 421 -79 421 -91 c 4x56
EndSplineSet
Validated: 1
AlternateSubs2: "'ss04' Style Set 4 lookup 3 subtable" uniE082.ss04
AlternateSubs2: "'ss01' Style Set 1 lookup 0 subtable" uniE082.ss01
EndChar

StartChar: uniE083
Encoding: 57475 57475 76
Width: 421
Flags: HMW
HStem: -251 38<191 198 185 200 191 191> -4 29<139 139> 58 191<107 200.5 107 200.5> 215 34<162.5 200.5 155 209.5> 228 20G<210.5 213>
VStem: 26 152<122.5 123 123 131 106.5 165.5> 263 117 263 138<-148 -112 -112 -105 -156 -88.5>
LayerCount: 2
Fore
SplineSet
213 248 m 4xce
 255 245 380 218 380 126 c 4xce
 380 103 374 80 358 62 c 4
 347 49 334 42 319 35 c 4
 310 30 299 29 288 26 c 4
 285 25 284 21 284 17 c 4
 284 15 284 14 285 12 c 4
 287 8 290 8 295 7 c 6
 328 -2 l 5
 349 -14 l 6
 359 -20 367 -27 373 -35 c 4
 381 -44 388 -54 392 -64 c 4
 398 -77 400 -91 401 -105 c 6
 401 -112 l 6
 401 -200 299 -251 200 -251 c 6
 191 -251 l 6
 93 -249 22 -219 20 -141 c 4
 20 -119 25 -95 42 -80 c 4
 54 -67 73 -57 90 -54 c 4
 94 -53 97 -53 101 -53 c 4
 128 -53 157 -69 168 -94 c 4
 172 -104 173 -115 173 -125 c 4
 172 -154 150 -169 150 -191 c 6
 150 -196 l 6
 151 -211 170 -211 178 -212 c 4
 179 -212 183 -213 187 -213 c 4
 209 -213 263 -201 263 -95 c 4
 263 -82 254 -4 139 -4 c 4
 131 -4 114 -4 114 8 c 4
 114 19 128 24 138 25 c 4
 201 28 260 57 260 131 c 6
 260 138 l 6
 260 162 252 215 167 215 c 4xd5
 158 215 127 207 125 190 c 6
 125 186 l 6
 125 172 140 174 145 172 c 4
 150 170 175 168 178 131 c 6
 178 123 l 6
 178 90 156 58 112 58 c 6
 107 58 l 5
 45 62 26 106 26 139 c 4
 26 192 112 249 198 249 c 4xe6
 203 249 208 248 213 248 c 4xce
EndSplineSet
Validated: 1
AlternateSubs2: "'ss04' Style Set 4 lookup 3 subtable" uniE083.ss04
AlternateSubs2: "'ss01' Style Set 1 lookup 0 subtable" uniE083.ss01
EndChar

StartChar: uniE084
Encoding: 57476 57476 77
Width: 470
Flags: HMW
HStem: -250 40<178 182 182 195 178 395> -112 38<91 226 91 226 362 435> 231 20G<176.5 185 315.5 324>
VStem: 158 204 226 136<-175 -171 -171 -112 -187 -112 -74 10 10 16> 226 189<-236 -112 -236 -112 -236 10>
LayerCount: 2
Fore
SplineSet
362 -74 m 1xe8
 435 -74 l 2
 446 -74 450 -81 450 -93 c 0
 450 -105 445 -112 435 -112 c 2
 362 -112 l 1
 362 -171 l 2xf0
 362 -203 383 -209 393 -209 c 0
 403 -209 415 -215 415 -229 c 0xe4
 415 -243 405 -250 395 -250 c 2
 182 -250 l 2
 167 -250 163 -239 163 -229 c 0
 163 -219 170 -210 186 -210 c 0
 204 -210 226 -202 226 -175 c 2
 226 -112 l 1xe8
 40 -112 l 2
 28 -112 20 -105 20 -95 c 0
 20 -92 21 -88 23 -84 c 0
 23 -83 24 -82 24 -81 c 2
 30 -73 l 2
 60 -31 158 108 158 232 c 0xf0
 158 248 172 251 181 251 c 0
 189 251 234 249 252 249 c 0
 270 249 311 251 320 251 c 0
 328 251 335 245 335 237 c 0
 335 235 334 234 334 232 c 0
 331 221 171 -6 91 -74 c 1
 226 -74 l 1
 226 10 l 2
 226 22 231 28 235 33 c 2
 330 148 l 2
 336 155 341 157 350 157 c 0
 361 157 362 148 362 140 c 2
 362 -74 l 1xe8
EndSplineSet
Validated: 1
AlternateSubs2: "'ss04' Style Set 4 lookup 3 subtable" uniE084.ss04
AlternateSubs2: "'ss01' Style Set 1 lookup 0 subtable" uniE084.ss01
EndChar

StartChar: uniE085
Encoding: 57477 57477 78
Width: 403
Flags: HMW
HStem: -251 40<159 176 159 257> -251 216<73 257> 43 35<128 263.5> 128 108<189 221 189 267.5> 225 20G<321.5 333.5> 226 20G<61 70>
VStem: 20 158<-127 -124> 248 135<-132 -41.5 -132 -31.5>
LayerCount: 2
Fore
SplineSet
76 59 m 5xb3
 76 55 l 6
 76 52 76 48 80 48 c 4
 81 48 83 48 85 49 c 4
 117 68 160 78 218 78 c 4
 309 78 383 4 383 -87 c 4
 383 -177 317 -251 197 -251 c 4
 74 -251 20 -210 20 -127 c 4
 20 -121 20 -115 21 -109 c 4
 24 -74 46 -35 100 -35 c 4x73
 143 -35 178 -69 178 -113 c 4
 178 -141 163 -166 140 -180 c 4
 135 -183 128 -187 128 -194 c 4
 129 -201 135 -205 140 -208 c 4
 147 -211 155 -211 163 -211 c 4
 189 -211 248 -197 248 -87 c 4
 248 24 179 43 145 43 c 4
 111 43 87 20 77 10 c 4
 66 -1 65 -10 55 -10 c 4
 45 -10 35 -8 35 5 c 6
 35 7 l 5
 46 229 l 6
 47 237 52 246 70 246 c 4xa7
 87 244 173 236 205 236 c 4xb3
 237 236 315 245 328 245 c 4xab
 339 245 342 237 342 224 c 4
 342 208 337 128 198 128 c 4
 157 128 110 135 100 137 c 6
 96 137 l 6
 87 137 82 132 81 124 c 4
 80 115 76 59 76 59 c 5xb3
EndSplineSet
Validated: 1
AlternateSubs2: "'ss04' Style Set 4 lookup 3 subtable" uniE085.ss04
AlternateSubs2: "'ss01' Style Set 1 lookup 0 subtable" uniE085.ss01
EndChar

StartChar: uniE086
Encoding: 57478 57478 79
Width: 434
Flags: HMW
HStem: -249 27<212.5 238 206 247.5> 2 48<206 278.5> 227 24<242 250>
VStem: 20 137<-1 37 3 37> 281 133<-117.5 -79>
LayerCount: 2
Fore
SplineSet
260 100 m 4
 259 101 257 102 256 104 c 4
 246 115 241 130 241 145 c 4
 241 155 243 165 248 174 c 4
 254 186 273 198 273 212 c 4
 273 222 260 227 240 227 c 4
 219 227 160 222 157 37 c 4
 157 21 160 13 166 13 c 4
 168 13 170 13 172 15 c 4
 198 38 231 50 263 50 c 4
 294 50 325 39 352 19 c 4
 384 -5 414 -39 414 -95 c 4
 414 -140 391 -185 356 -213 c 4
 320 -242 270 -249 225 -249 c 4
 200 -249 170 -246 145 -235 c 4
 106 -218 72 -177 51 -139 c 4
 29 -99 21 -47 20 -1 c 6
 20 3 l 6
 20 50 37 103 59 145 c 4
 95 213 166 250 242 251 c 4
 268 251 297 248 321 238 c 4
 351 227 379 203 384 170 c 4
 385 166 385 163 385 159 c 4
 385 127 361 95 330 87 c 4
 322 85 313 83 305 83 c 4
 289 83 272 88 260 100 c 4
222 2 m 4
 190 2 164 -48 164 -110 c 4
 164 -172 190 -222 222 -222 c 4
 254 -222 281 -172 281 -110 c 4
 281 -48 254 2 222 2 c 4
EndSplineSet
Validated: 1
AlternateSubs2: "'ss04' Style Set 4 lookup 3 subtable" uniE086.ss04
AlternateSubs2: "'ss01' Style Set 1 lookup 0 subtable" uniE086.ss01
EndChar

StartChar: uniE087
Encoding: 57479 57479 80
Width: 441
Flags: HMW
HStem: -250 21G<129.5 148 281 291> 61 103<231 349.5> 136 113<91.5 223.5>
VStem: 120 182<-227.5 -199.5>
LayerCount: 2
Fore
SplineSet
421 204 m 6xd0
 421 200 l 6
 421 97 302 -46 302 -213 c 4
 302 -242 296 -250 286 -250 c 4
 276 -250 229 -241 204 -241 c 4
 179 -241 157 -250 139 -250 c 4
 120 -250 120 -240 120 -219 c 4
 120 -180 151 -122 189 -78 c 4
 249 -7 326 49 326 77 c 4
 325 83 323 86 319 86 c 4
 317 86 313 84 310 82 c 4
 302 76 288 61 260 61 c 4xd0
 202 61 154 136 114 136 c 4
 69 136 56 78 46 53 c 4
 42 42 39 33 31 33 c 4
 21 33 20 49 20 49 c 5
 20 214 l 6
 20 223 25 226 30 226 c 4
 35 226 40 223 42 219 c 4
 47 209 60 195 68 195 c 4
 75 196 81 200 95 213 c 4
 109 226 124 249 182 249 c 4xb0
 265 249 312 164 337 164 c 4
 362 164 376 221 383 233 c 4
 387 240 403 244 404 244 c 4
 421 244 421 231 421 204 c 6xd0
EndSplineSet
Validated: 1
AlternateSubs2: "'ss04' Style Set 4 lookup 3 subtable" uniE087.ss04
AlternateSubs2: "'ss01' Style Set 1 lookup 0 subtable" uniE087.ss01
EndChar

StartChar: uniE088
Encoding: 57480 57480 81
Width: 436
Flags: HMW
HStem: -259 33<171.5 238.5 171.5 259> 230 29<196 233.5 162 234>
VStem: 25 52 25 92<135.5 164> 303 113<-148.5 -119> 335 59<124 179>
LayerCount: 2
Fore
SplineSet
334 36 m 1xe4
 381 12 416 -21 416 -81 c 0xe8
 416 -216 309 -259 209 -259 c 0
 110 -259 20 -219 20 -132 c 0
 20 -69 60 -36 112 -11 c 1
 64 16 25 53 25 122 c 0
 25 206 104 259 220 259 c 0
 247 259 394 244 394 142 c 0
 394 92 370 59 334 36 c 1xe4
205 -226 m 0
 272 -226 303 -192 303 -152 c 0
 303 -86 229 -65 156 -33 c 1
 112 -50 77 -87 77 -127 c 0
 77 -192 138 -226 205 -226 c 0
282 59 m 1
 315 78 335 104 335 144 c 0
 335 214 250 230 218 230 c 0
 174 230 117 209 117 167 c 0xd4
 117 104 202 87 282 59 c 1
EndSplineSet
Validated: 1
AlternateSubs2: "'ss04' Style Set 4 lookup 3 subtable" uniE088.ss04
AlternateSubs2: "'ss01' Style Set 1 lookup 0 subtable" uniE088.ss01
EndChar

StartChar: uniE089
Encoding: 57481 57481 82
Width: 434
Flags: HMW
HStem: -249 24<184 192> -48 48<155.5 228> 224 27<196 221.5 186.5 228>
VStem: 20 133<81 119.5> 277 137<-35 -1>
LayerCount: 2
Fore
SplineSet
174 -98 m 4
 175 -99 177 -100 178 -102 c 4
 188 -113 193 -128 193 -143 c 4
 193 -153 191 -163 186 -172 c 4
 180 -184 161 -196 161 -210 c 4
 161 -220 174 -225 194 -225 c 4
 215 -225 274 -220 277 -35 c 4
 277 -19 274 -11 268 -11 c 4
 266 -11 264 -11 262 -13 c 4
 236 -36 203 -48 171 -48 c 4
 140 -48 109 -37 82 -17 c 4
 50 7 20 41 20 97 c 4
 20 142 43 187 78 215 c 4
 114 244 164 251 209 251 c 4
 234 251 264 248 289 237 c 4
 328 220 362 179 383 141 c 4
 405 101 413 49 414 3 c 6
 414 -1 l 6
 414 -48 397 -101 375 -143 c 4
 339 -211 268 -248 192 -249 c 4
 166 -249 137 -246 113 -236 c 4
 83 -225 55 -201 50 -168 c 4
 49 -164 49 -161 49 -157 c 4
 49 -125 73 -93 104 -85 c 4
 112 -83 121 -81 129 -81 c 4
 145 -81 162 -86 174 -98 c 4
212 0 m 4
 244 0 270 50 270 112 c 4
 270 174 244 224 212 224 c 4
 180 224 153 174 153 112 c 4
 153 50 180 0 212 0 c 4
EndSplineSet
Validated: 1
AlternateSubs2: "'ss04' Style Set 4 lookup 3 subtable" uniE089.ss04
AlternateSubs2: "'ss01' Style Set 1 lookup 0 subtable" uniE089.ss01
EndChar

StartChar: uniE08A
Encoding: 57482 57482 83
Width: 424
Flags: HMW
HStem: -249 33<211.5 268 211.5 310.5> 22 149<313 320.5 293 327> 227 24<231 242.5 218 284>
VStem: 5 123<-14.5 37.5> 250 153<68.5 112.5> 394 30<-75.5 -50 -75.5 -48.5>
LayerCount: 2
Fore
SplineSet
233 251 m 0xf4
 252 251 403 239 403 108 c 0
 403 25 327 22 327 22 c 1
 299 22 250 40 250 97 c 0xf8
 250 128 273 171 313 171 c 0
 328 171 331 184 331 193 c 0
 331 203 310 227 258 227 c 0
 204 227 128 193 128 28 c 0
 128 -137 171 -216 252 -216 c 0
 284 -216 394 -186 394 -57 c 0
 394 -40 401 -39 409 -39 c 0
 413 -39 424 -39 424 -61 c 0
 424 -90 398 -249 223 -249 c 0
 163 -249 108 -228 70 -182 c 0
 37 -142 11 -91 6 -37 c 0
 5 -28 5 -19 5 -10 c 0
 5 85 52 192 141 231 c 0
 168 243 203 251 233 251 c 0xf4
EndSplineSet
Validated: 1
AlternateSubs2: "'ss04' Style Set 4 lookup 3 subtable" uniE08A.ss04
EndChar

StartChar: uniE08B
Encoding: 57483 57483 84
Width: 417
Flags: HMW
HStem: -359 21G<188 197.5> -249 34 21 148<307 314.5 287 321> 225 24<226 277.5> 341 20G<188 197.5>
VStem: 0 123<-14.5 37.5> 175 35<-342 -265 -265 -263 -163 166 166 170 268.5 271 271 281 281 344> 244 153<67 110.5> 388 30<-74.5 -59 -74.5 -49.5>
LayerCount: 2
Fore
SplineSet
175 -163 m 2xfe80
 175 166 l 2
 175 174 169 182 164 182 c 0
 163 182 162 182 161 180 c 0
 139 149 123 102 123 26 c 0
 123 -67 137 -134 164 -172 c 0
 165 -174 167 -175 169 -175 c 0
 172 -175 175 -172 175 -163 c 2xfe80
398 -40 m 2
 402 -40 l 2
 407 -40 417 -40 418 -59 c 0xfe80
 418 -90 391 -246 221 -249 c 0
 214 -252 210 -257 210 -263 c 2
 210 -342 l 2
 210 -351 203 -359 192 -359 c 0
 184 -359 175 -351 175 -342 c 2
 175 -265 l 2
 175 -256 163 -243 156 -240 c 0
 121 -231 90 -211 66 -182 c 0
 31 -141 6 -91 1 -38 c 0
 0 -29 0 -19 0 -10 c 0
 0 85 46 191 136 230 c 1
 163 240 l 2
 165 240 175 249 175 256 c 2
 175 281 l 1
 175 344 l 2
 175 352 184 361 192 361 c 0
 203 361 210 352 210 344 c 2
 210 271 l 2
 210 266 215 249 221 248 c 0
 228 248 225 249 227 249 c 0
 246 249 397 237 397 107 c 0
 397 24 321 21 321 21 c 1
 293 21 244 39 244 95 c 0xff
 244 126 267 169 307 169 c 0
 322 169 325 183 325 191 c 0
 325 201 303 225 252 225 c 0
 247 225 241 225 235 224 c 0
 228 223 210 206 210 199 c 2
 210 -197 l 2
 210 -205 216 -211 220 -212 c 0
 228 -214 236 -215 246 -215 c 0
 278 -215 388 -185 388 -57 c 0
 388 -42 394 -40 398 -40 c 2
EndSplineSet
Validated: 1
AlternateSubs2: "'ss04' Style Set 4 lookup 3 subtable" uniE08B.ss04
EndChar

StartChar: uniE08C
Encoding: 57484 57484 85
Width: 500
Flags: HMW
HStem: -38 75<9.5 197 13 197 300 301 301 485>
VStem: 212 75<-236 -54 55 236>
LayerCount: 2
Fore
SplineSet
300 37 m 2
 485 37 l 2
 492 37 499 32 499 23 c 2
 499 -23 l 2
 499 -32 492 -38 485 -38 c 2
 301 -38 l 2
 294 -38 287 -44 287 -54 c 2
 287 -236 l 2
 287 -243 281 -250 272 -250 c 2
 226 -250 l 2
 217 -250 212 -243 212 -236 c 2
 212 -52 l 2
 212 -47 207 -38 197 -38 c 2
 13 -38 l 2
 6 -38 -1 -32 -1 -23 c 2
 -1 23 l 2
 -1 32 6 37 13 37 c 2
 197 37 l 2
 203 37 212 46 212 55 c 2
 212 236 l 2
 212 243 217 250 226 250 c 2
 272 250 l 2
 281 250 287 243 287 236 c 2
 287 55 l 2
 287 45 292 37 300 37 c 2
EndSplineSet
Validated: 1
AlternateSubs2: "'ss04' Style Set 4 lookup 3 subtable" uniE08C.ss04
EndChar

StartChar: uniE08D
Encoding: 57485 57485 86
Width: 254
Flags: HMW
HStem: -24 38<5 100 7 100 153 154 154 247>
VStem: 108 38<-125 -33 23 115>
LayerCount: 2
Fore
SplineSet
153 14 m 2
 247 14 l 2
 251 14 254 11 254 7 c 2
 254 -17 l 2
 254 -21 251 -24 247 -24 c 2
 154 -24 l 2
 150 -24 146 -27 146 -33 c 2
 146 -125 l 2
 146 -129 143 -132 139 -132 c 2
 115 -132 l 2
 111 -132 108 -129 108 -125 c 2
 108 -32 l 2
 108 -29 106 -24 100 -24 c 2
 7 -24 l 2
 3 -24 -1 -21 -1 -17 c 2
 -1 7 l 2
 -1 11 3 14 7 14 c 2
 100 14 l 2
 104 14 108 18 108 23 c 2
 108 115 l 2
 108 119 111 122 115 122 c 2
 139 122 l 2
 143 122 146 119 146 115 c 2
 146 23 l 2
 146 18 149 14 153 14 c 2
EndSplineSet
Validated: 1
EndChar

StartChar: uniE08F
Encoding: 57487 57487 87
Width: 448
Flags: HMW
HStem: -125 75<13.5 430 19 430> 49 75<13.5 430 19 430>
VStem: 0 448<-112 -63 -115.5 -59.5 62 111 -115.5 114.5>
LayerCount: 2
Fore
SplineSet
448 111 m 2
 448 62 l 2
 448 55 440 49 430 49 c 2
 19 49 l 2
 8 49 0 55 0 62 c 2
 0 111 l 2
 0 118 8 124 19 124 c 2
 430 124 l 2
 440 124 448 118 448 111 c 2
448 -63 m 2
 448 -112 l 2
 448 -119 440 -125 430 -125 c 2
 19 -125 l 2
 8 -125 0 -119 0 -112 c 2
 0 -63 l 2
 0 -56 8 -50 19 -50 c 2
 430 -50 l 2
 440 -50 448 -56 448 -63 c 2
EndSplineSet
Validated: 1
EndChar

StartChar: uniE090
Encoding: 57488 57488 88
Width: 448
Flags: HMW
HStem: -35 75<13.5 430 19 430>
VStem: 0 448<-22 27 -25.5 30.5>
LayerCount: 2
Fore
SplineSet
448 27 m 2
 448 -22 l 2
 448 -29 440 -35 430 -35 c 2
 19 -35 l 2
 8 -35 0 -29 0 -22 c 2
 0 27 l 2
 0 34 8 40 19 40 c 2
 430 40 l 2
 440 40 448 34 448 27 c 2
EndSplineSet
Validated: 1
EndChar

StartChar: uniE091
Encoding: 57489 57489 89
Width: 396
Flags: HMW
HStem: -198 396<46 50>
VStem: 0 395<-151 -149 149 151 -151 152.5>
LayerCount: 2
Fore
SplineSet
207 62 m 2
 338 193 l 2
 341 196 344 197 348 197 c 0
 351 197 355 196 358 193 c 2
 390 161 l 2
 393 157 395 153 395 149 c 0
 395 145 393 142 391 140 c 2
 261 10 l 2
 258 7 257 4 257 0 c 0
 257 -4 258 -8 262 -11 c 2
 391 -140 l 2
 393 -142 395 -145 395 -149 c 0
 395 -153 393 -157 390 -161 c 2
 358 -193 l 2
 355 -196 351 -197 348 -197 c 0
 344 -197 341 -196 338 -193 c 2
 338 -193 210 -66 208 -63 c 0
 206 -61 202 -59 198 -59 c 0
 194 -59 190 -61 187 -64 c 2
 57 -194 l 2
 55 -196 52 -198 48 -198 c 0
 44 -198 40 -196 36 -193 c 2
 4 -161 l 2
 1 -158 0 -154 0 -151 c 0
 0 -147 1 -144 4 -141 c 2
 134 -11 l 2
 136 -9 137 -5 137 -1 c 0
 137 4 135 9 132 13 c 2
 4 141 l 2
 1 144 0 147 0 151 c 0
 0 154 1 158 4 161 c 2
 36 193 l 2
 40 196 44 198 48 198 c 0
 52 198 55 196 57 194 c 2
 185 66 l 2
 189 62 194 59 199 59 c 0
 202 59 205 60 207 62 c 2
EndSplineSet
Validated: 1
EndChar

StartChar: uniE092
Encoding: 57490 57490 90
Width: 110
Flags: HMW
HStem: -251 500<107 108.5> 235 14<107 110>
VStem: 0 47<-50.5 51>
LayerCount: 2
Fore
SplineSet
110 -234 m 2xa0
 110 -247 l 2
 110 -248 109 -251 108 -251 c 2
 108 -251 107 -251 107 -250 c 0
 32 -189 0 -101 0 0 c 0
 0 102 34 189 107 249 c 0
 108 249 110 248 110 245 c 2
 110 235 l 1
 110 235 110 229 108 227 c 0x60
 68 171 47 111 47 0 c 0
 47 -111 67 -173 107 -228 c 0
 108 -229 110 -231 110 -234 c 2xa0
EndSplineSet
Validated: 1
EndChar

StartChar: uniE093
Encoding: 57491 57491 91
Width: 110
Flags: HMW
HStem: -251 500<1.5 3> 235 14<0 3>
VStem: 63 47<-50.5 51 -50.5 55.5>
LayerCount: 2
Fore
SplineSet
0 -247 m 2xa0
 0 -234 l 2
 0 -231 2 -229 3 -228 c 0
 43 -173 63 -111 63 0 c 0
 63 111 42 171 2 227 c 0
 0 229 0 235 0 235 c 1
 0 245 l 2
 0 248 2 249 3 249 c 0x60
 76 189 110 102 110 0 c 0
 110 -101 78 -189 3 -250 c 0
 3 -251 2 -251 2 -251 c 2
 1 -251 0 -248 0 -247 c 2xa0
EndSplineSet
Validated: 1
EndChar

StartChar: uniE094
Encoding: 57492 57492 92
Width: 184
Flags: HMW
HStem: -489 980<181.5 182 180.5 182.5>
VStem: 0 68<-97.5 101> 176 8
LayerCount: 2
Fore
SplineSet
184 -457 m 2
 184 -483 l 2
 184 -485 183 -489 182 -489 c 0
 181 -489 180 -489 179 -488 c 0
 54 -368 0 -196 0 1 c 0
 0 201 54 369 176 487 c 1
 176 487 180 491 181 491 c 0
 183 491 184 488 184 483 c 2
 184 462 l 1
 184 462 184 452 181 447 c 0
 106 349 68 219 68 1 c 0
 68 -216 108 -345 180 -445 c 0
 182 -447 184 -452 184 -457 c 2
EndSplineSet
Validated: 1
EndChar

StartChar: uniE095
Encoding: 57493 57493 93
Width: 184
Flags: HMW
HStem: -489 980<2 2.5>
VStem: 116 68<-97.5 101 -97.5 110>
LayerCount: 2
Fore
SplineSet
0 -483 m 2
 0 -457 l 2
 0 -452 2 -447 4 -445 c 0
 76 -345 116 -216 116 1 c 0
 116 219 78 349 3 447 c 0
 0 452 0 462 0 462 c 1
 0 483 l 2
 0 488 1 491 3 491 c 0
 4 491 8 487 8 487 c 1
 130 369 184 201 184 1 c 0
 184 -196 130 -368 5 -488 c 0
 4 -489 3 -489 2 -489 c 0
 1 -489 0 -485 0 -483 c 2
EndSplineSet
Validated: 1
EndChar

StartChar: uniE096
Encoding: 57494 57494 94
Width: 198
Flags: HMW
HStem: 1 21G<55 88>
VStem: 9 175<46 48 23 86>
LayerCount: 2
Fore
SplineSet
92 138 m 0
 112 138 134 131 151 119 c 0
 170 104 184 82 184 48 c 2
 184 39 l 2
 184 7 177 -35 154 -70 c 0
 135 -99 76 -150 38 -150 c 0
 34 -150 31 -147 30 -141 c 0
 30 -140 28 -138 28 -137 c 0
 28 -131 33 -129 38 -127 c 0
 40 -125 70 -107 90 -82 c 0
 101 -67 108 -53 108 -36 c 0
 108 -32 108 -29 106 -24 c 2
 106 -24 102 1 74 1 c 0
 36 1 9 26 9 66 c 0
 9 106 41 138 92 138 c 0
EndSplineSet
Validated: 1
EndChar

StartChar: uniE0A0
Encoding: 57504 57504 97
Width: 599
Flags: HMW
HStem: -125 24<321 331 321 375> 102 23<262.5 312>
VStem: 0 31<-148 147> 57 32<-148 147> 90 107<24 35.5> 401 108<-34 -1> 509 33<-148 147 -33.5 36.5> 566 33<-148 147>
LayerCount: 2
Fore
SplineSet
9 155 m 2xe2
 22 155 l 2
 27 155 31 151 31 147 c 2
 31 -148 l 2
 31 -152 27 -155 22 -155 c 2xd2
 9 -155 l 2
 3 -155 0 -152 0 -148 c 2
 0 147 l 2
 0 151 3 155 9 155 c 2xe2
67 155 m 2
 79 155 l 2
 84 155 89 151 89 147 c 2
 89 -148 l 2
 89 -152 84 -155 79 -155 c 2
 67 -155 l 2x54
 61 -155 57 -152 57 -148 c 2xe2
 57 147 l 2
 57 151 61 155 67 155 c 2
399 -49 m 0
 400 -44 401 -37 401 -31 c 0
 401 29 346 102 278 102 c 0x62
 247 102 210 97 199 63 c 0x54
 197 56 197 49 197 40 c 0
 197 8 212 -26 230 -49 c 0
 237 -57 244 -65 251 -71 c 0xcc
 265 -83 282 -92 299 -98 c 0
 308 -101 316 -101 326 -101 c 0
 336 -101 346 -101 355 -98 c 0
 380 -91 394 -74 399 -49 c 0
304 125 m 0
 397 125 509 72 509 1 c 0
 509 -68 456 -125 294 -125 c 0
 146 -125 90 -64 90 1 c 0
 90 70 172 125 304 125 c 0
519 155 m 2
 532 155 l 2
 537 155 542 151 542 147 c 2
 542 -148 l 2
 542 -152 537 -155 532 -155 c 2
 519 -155 l 2
 514 -155 509 -152 509 -148 c 2
 509 147 l 2
 509 151 514 155 519 155 c 2
576 155 m 2x41
 589 155 l 2
 595 155 599 151 599 147 c 2
 599 -148 l 2
 599 -152 595 -155 589 -155 c 2
 576 -155 l 2
 572 -155 566 -152 566 -148 c 2
 566 147 l 2
 566 151 572 155 576 155 c 2x41
EndSplineSet
Validated: 5
AlternateSubs2: "'salt' Stylistic Alternatives lookup 5 subtable" uniE0A0.salt01
AlternateSubs2: "'ss05' Style Set 5 lookup 4 subtable" uniE0A0.ss05
AlternateSubs2: "'ss01' Style Set 1 lookup 0 subtable" uniE0A0.ss01
EndChar

StartChar: uniE0A1
Encoding: 57505 57505 98
Width: 416
Flags: HMW
HStem: -125 78<41.5 338 81 338 338 354 81 367> 49 76<58.5 77 77 338>
VStem: 0 25<-177 -148 -24.5 -15 -15 16 141 149 149 186> 391 25<-177 -145 -145 -140.5 -15 21 21 29 151 186>
LayerCount: 2
Fore
SplineSet
25 16 m 2
 25 -15 l 2
 25 -34 46 -47 81 -47 c 2
 338 -47 l 2
 370 -47 391 -37 391 -15 c 2
 391 21 l 2
 391 37 370 49 338 49 c 2
 77 49 l 2
 40 49 25 38 25 16 c 2
391 151 m 2
 391 186 l 2
 391 193 396 198 403 198 c 0
 410 198 416 193 416 186 c 2
 416 -177 l 2
 416 -183 410 -190 403 -190 c 0
 396 -190 391 -183 391 -177 c 2
 391 -145 l 2
 391 -136 381 -125 367 -125 c 2
 46 -125 l 2
 37 -125 25 -137 25 -148 c 2
 25 -177 l 2
 25 -183 19 -190 12 -190 c 0
 5 -190 0 -183 0 -177 c 2
 0 186 l 2
 0 193 5 198 12 198 c 0
 19 198 25 193 25 186 c 2
 25 149 l 2
 25 133 36 125 43 125 c 2
 367 125 l 2
 378 125 391 133 391 151 c 2
EndSplineSet
Validated: 1
AlternateSubs2: "'ss05' Style Set 5 lookup 4 subtable" uniE0A1.ss05
EndChar

StartChar: uniE0A2
Encoding: 57506 57506 99
Width: 422
Flags: HMW
HStem: -125 23<232.5 242 232.5 288> 103 22<174.5 224.5>
VStem: 0 108<23 36> 314 108<-33 -1>
LayerCount: 2
Fore
SplineSet
216 125 m 0
 309 125 422 73 422 2 c 0
 422 -68 370 -125 206 -125 c 0
 57 -125 0 -65 0 2 c 0
 0 70 83 125 216 125 c 0
111 63 m 0
 109 55 108 47 108 39 c 0
 108 7 123 -27 143 -50 c 0
 149 -58 156 -65 164 -72 c 0
 178 -84 194 -93 211 -98 c 0
 220 -101 228 -102 237 -102 c 0
 247 -102 258 -101 268 -98 c 0
 293 -92 307 -75 312 -50 c 0
 313 -44 314 -38 314 -31 c 0
 314 29 259 103 190 103 c 0
 159 103 122 98 111 63 c 0
EndSplineSet
Validated: 1
AlternateSubs2: "'ss05' Style Set 5 lookup 4 subtable" uniE0A2.ss05
AlternateSubs2: "'ss01' Style Set 1 lookup 0 subtable" uniE0A2.ss01
EndChar

StartChar: uniE0A3
Encoding: 57507 57507 100
Width: 295
Flags: HMW
HStem: -125 38<69.5 86 64.5 179.5> 84 41<211 225 121.5 230.5>
VStem: 0 29<-47.5 -33 -47.5 -16> 264 31<34 47.5>
LayerCount: 2
Fore
SplineSet
97 -125 m 0
 42 -125 0 -95 0 -42 c 0
 0 10 47 125 196 125 c 0
 254 125 295 93 295 42 c 0
 295 9 262 -125 97 -125 c 0
173 -46 m 0
 243 0 264 24 264 44 c 0
 264 51 261 57 258 63 c 0
 251 75 240 84 221 84 c 0
 201 84 170 74 120 45 c 0
 51 5 29 -22 29 -44 c 0
 29 -51 32 -58 35 -64 c 0
 42 -76 54 -87 75 -87 c 0
 97 -87 128 -76 173 -46 c 0
EndSplineSet
Validated: 1
AlternateSubs2: "'ss05' Style Set 5 lookup 4 subtable" uniE0A3.ss05
AlternateSubs2: "'ss01' Style Set 1 lookup 0 subtable" uniE0A3.ss01
EndChar

StartChar: uniE0A4
Encoding: 57508 57508 101
Width: 295
Flags: HMW
HStem: -125 250<70 226.5>
VStem: 0 295<-0.5 1>
LayerCount: 2
Fore
SplineSet
97 -125 m 0
 43 -125 0 -94 0 -42 c 0
 0 44 88 125 198 125 c 0
 255 125 295 93 295 42 c 0
 295 -43 186 -125 97 -125 c 0
EndSplineSet
Validated: 1
AlternateSubs2: "'ss05' Style Set 5 lookup 4 subtable" uniE0A4.ss05
AlternateSubs2: "'ss01' Style Set 1 lookup 0 subtable" uniE0A4.ss01
EndChar

StartChar: uniE0C0
Encoding: 57536 57536 129
Width: 470
Flags: W
HStem: -250 40<163.027 223.114 365.438 414.965> -112 38<91 226 362 449.996> 268 117<251.5 374.21> 322 101<126.488 232.5> 747 25<144.142 255.905>
VStem: 226 136<-206.89 -112 -74 47.375> 292 140<567.444 702.5> 406 26<406.183 440.974>
LayerCount: 2
Fore
SplineSet
432 427 m 0xe9
 416 272 339 268 296 268 c 0xe9
 207 268 192 322 152 322 c 0
 93 322 81 261 59 261 c 0
 57 261 54 261 51 263 c 0
 40 270 33 283 33 294 c 0
 33 296 34 298 34 300 c 0
 51 363 90 412 145 447 c 0
 194 477 222 501 258 549 c 0
 280 578 292 613 292 651 c 0
 292 680 291 747 202 747 c 0
 143 747 125 723 123 709 c 0
 123 689 192 686 192 626 c 0
 192 601 183 538 122 538 c 0
 86 538 55 562 40 593 c 0
 34 608 31 622 31 636 c 0
 31 663 42 688 59 709 c 0
 83 737 118 758 153 765 c 0
 179 771 213 772 240 772 c 0
 262 772 340 766 391 723 c 0
 417 701 437 667 437 620 c 0
 437 576 418 547 394 528 c 0
 361 501 319 493 304 489 c 0
 282 483 197 453 175 417 c 1
 186 421 199 423 212 423 c 0xda
 253 423 300 407 320 399 c 0
 330 394 337 393 350 388 c 0
 357 386 362 385 367 385 c 0
 388 385 396 404 406 428 c 0
 406 429 407 430 407 431 c 0
 409 437 412 441 420 441 c 0
 427 441 432 439 432 427 c 0xe9
362 -74 m 1xcc
 435 -74 l 2
 446 -74 450 -81 450 -93 c 0
 450 -105 445 -112 435 -112 c 2
 362 -112 l 1
 362 -171 l 2
 362 -203 383 -209 393 -209 c 0
 403 -209 415 -215 415 -229 c 0
 415 -243 405 -250 395 -250 c 2
 182 -250 l 2
 167 -250 163 -239 163 -229 c 0
 163 -219 170 -210 186 -210 c 0
 204 -210 226 -202 226 -175 c 2
 226 -112 l 1
 40 -112 l 2
 28 -112 20 -105 20 -95 c 0
 20 -92 21 -88 23 -84 c 0
 23 -83 24 -82 24 -81 c 2
 30 -73 l 2
 60 -31 158 108 158 232 c 0
 158 248 172 251 181 251 c 0
 189 251 234 249 252 249 c 0
 270 249 311 251 320 251 c 0
 328 251 335 245 335 237 c 0
 335 235 334 234 334 232 c 0
 331 221 171 -6 91 -74 c 1
 226 -74 l 1
 226 10 l 2
 226 22 231 28 235 33 c 2
 330 148 l 2
 336 155 341 157 350 157 c 0
 361 157 362 148 362 140 c 2
 362 -74 l 1xcc
EndSplineSet
Validated: 1
EndChar

StartChar: uniE0C1
Encoding: 57537 57537 130
Width: 470
Flags: W
HStem: -250 40<163.027 223.114 365.438 414.965> -112 38<91 226 362 449.996> 264 38<172.375 252.719> 511 29<135.354 221.267> 730 34<152.081 253.009>
VStem: 41 130<314.327 380.959> 226 136<-206.89 -112 -74 47.375> 281 120<581.308 698.453> 284 138<338.333 472.35>
LayerCount: 2
Fore
SplineSet
234 763 m 0xfd
 276 760 401 733 401 641 c 0xfd
 401 618 395 595 379 577 c 0
 368 564 355 557 340 550 c 0
 331 545 320 544 309 541 c 0
 306 540 305 536 305 532 c 0
 305 530 305 529 306 527 c 0
 308 523 311 523 316 522 c 2
 349 513 l 1
 370 501 l 2
 380 495 388 488 394 480 c 0
 402 471 409 461 413 451 c 0
 419 438 421 424 422 410 c 2
 422 403 l 2
 422 315 320 264 221 264 c 2
 212 264 l 2
 114 266 43 296 41 374 c 0
 41 396 46 420 63 435 c 0
 75 448 94 458 111 461 c 0
 115 462 118 462 122 462 c 0
 149 462 178 446 189 421 c 0
 193 411 194 400 194 390 c 0
 193 361 171 346 171 324 c 2
 171 319 l 2
 172 304 191 304 199 303 c 0
 200 303 204 302 208 302 c 0
 230 302 284 314 284 420 c 0xfc80
 284 433 275 511 160 511 c 0
 152 511 135 511 135 523 c 0
 135 534 149 539 159 540 c 0
 222 543 281 572 281 646 c 2
 281 653 l 2
 281 677 273 730 188 730 c 0
 179 730 148 722 146 705 c 2
 146 701 l 2
 146 687 161 689 166 687 c 0
 171 685 196 683 199 646 c 2
 199 638 l 2
 199 605 177 573 133 573 c 2
 128 573 l 1
 66 577 47 621 47 654 c 0
 47 707 133 764 219 764 c 0
 224 764 229 763 234 763 c 0xfd
362 -74 m 1xfe
 435 -74 l 2
 446 -74 450 -81 450 -93 c 0
 450 -105 445 -112 435 -112 c 2
 362 -112 l 1
 362 -171 l 2
 362 -203 383 -209 393 -209 c 0
 403 -209 415 -215 415 -229 c 0
 415 -243 405 -250 395 -250 c 2
 182 -250 l 2
 167 -250 163 -239 163 -229 c 0
 163 -219 170 -210 186 -210 c 0
 204 -210 226 -202 226 -175 c 2
 226 -112 l 1
 40 -112 l 2
 28 -112 20 -105 20 -95 c 0
 20 -92 21 -88 23 -84 c 0
 23 -83 24 -82 24 -81 c 2
 30 -73 l 2
 60 -31 158 108 158 232 c 0
 158 248 172 251 181 251 c 0
 189 251 234 249 252 249 c 0
 270 249 311 251 320 251 c 0
 328 251 335 245 335 237 c 0
 335 235 334 234 334 232 c 0
 331 221 171 -6 91 -74 c 1
 226 -74 l 1
 226 10 l 2
 226 22 231 28 235 33 c 2
 330 148 l 2
 336 155 341 157 350 157 c 0
 361 157 362 148 362 140 c 2
 362 -74 l 1xfe
EndSplineSet
Validated: 1
EndChar

StartChar: uniE0C2
Encoding: 57538 57538 131
Width: 470
Flags: W
HStem: -250 40<163.027 223.114 365.438 414.965> -112 38<91 226 362 449.996> 262 40<163.027 223.114 365.438 414.965> 400 38<91 226 362 449.996> 649 20G<345.5 355.5>
VStem: 158 177<202.716 248.844 714.716 760.844> 226 136<-206.89 -112 -74 47.375 305.11 400 438 559.375>
LayerCount: 2
Fore
SplineSet
362 438 m 5xfa
 435 438 l 6
 446 438 450 431 450 419 c 4
 450 407 445 400 435 400 c 6
 362 400 l 5
 362 341 l 6
 362 309 383 303 393 303 c 4
 403 303 415 297 415 283 c 4
 415 269 405 262 395 262 c 6
 182 262 l 6
 167 262 163 273 163 283 c 4
 163 293 170 302 186 302 c 4
 204 302 226 310 226 337 c 6
 226 400 l 5xfa
 40 400 l 6
 28 400 20 407 20 417 c 4
 20 420 21 424 23 428 c 4
 23 429 24 430 24 431 c 6
 30 439 l 6
 60 481 158 620 158 744 c 4
 158 760 172 763 181 763 c 4
 189 763 234 761 252 761 c 4
 270 761 311 763 320 763 c 4
 328 763 335 757 335 749 c 4xfc
 335 747 334 746 334 744 c 4
 331 733 171 506 91 438 c 5
 226 438 l 5
 226 522 l 6
 226 534 231 540 235 545 c 6
 330 660 l 6
 336 667 341 669 350 669 c 4
 361 669 362 660 362 652 c 6
 362 438 l 5xfa
362 -74 m 1
 435 -74 l 2
 446 -74 450 -81 450 -93 c 0
 450 -105 445 -112 435 -112 c 2
 362 -112 l 1
 362 -171 l 2
 362 -203 383 -209 393 -209 c 0
 403 -209 415 -215 415 -229 c 0
 415 -243 405 -250 395 -250 c 2
 182 -250 l 2
 167 -250 163 -239 163 -229 c 0
 163 -219 170 -210 186 -210 c 0
 204 -210 226 -202 226 -175 c 2
 226 -112 l 1xfa
 40 -112 l 2
 28 -112 20 -105 20 -95 c 0
 20 -92 21 -88 23 -84 c 0
 23 -83 24 -82 24 -81 c 2
 30 -73 l 2
 60 -31 158 108 158 232 c 0
 158 248 172 251 181 251 c 0
 189 251 234 249 252 249 c 0
 270 249 311 251 320 251 c 0
 328 251 335 245 335 237 c 0xfc
 335 235 334 234 334 232 c 0
 331 221 171 -6 91 -74 c 1
 226 -74 l 1
 226 10 l 2
 226 22 231 28 235 33 c 2
 330 148 l 2
 336 155 341 157 350 157 c 0
 361 157 362 148 362 140 c 2
 362 -74 l 1
EndSplineSet
Validated: 1
EndChar

StartChar: uniE0C3
Encoding: 57539 57539 132
Width: 470
Flags: W
HStem: -250 40<163.027 223.114 365.438 414.965> -112 38<91 226 362 449.996> 265 40<166.395 244.536> 559 5<111 176> 644 108<111.211 328.117>
VStem: 51 158<349.92 457.125> 66 41<564.003 575> 226 136<-206.89 -112 -74 47.375> 279 135<346.943 511.101>
LayerCount: 2
Fore
SplineSet
107 575 m 5xfa80
 107 571 l 6xfa80
 107 568 107 564 111 564 c 4
 112 564 114 564 116 565 c 4
 148 584 191 594 249 594 c 4
 340 594 414 520 414 429 c 4
 414 339 348 265 228 265 c 4
 105 265 51 306 51 389 c 4
 51 395 51 401 52 407 c 4
 55 442 77 481 131 481 c 4
 174 481 209 447 209 403 c 4xfc80
 209 375 194 350 171 336 c 4
 166 333 159 329 159 322 c 4
 160 315 166 311 171 308 c 4
 178 305 186 305 194 305 c 4
 220 305 279 319 279 429 c 4
 279 540 210 559 176 559 c 4
 142 559 118 536 108 526 c 4
 97 515 96 506 86 506 c 4
 76 506 66 508 66 521 c 6
 66 523 l 5
 77 745 l 6
 78 753 83 762 101 762 c 4
 118 760 204 752 236 752 c 4
 268 752 346 761 359 761 c 4
 370 761 373 753 373 740 c 4
 373 724 368 644 229 644 c 4
 188 644 141 651 131 653 c 6
 127 653 l 6
 118 653 113 648 112 640 c 4
 111 631 107 575 107 575 c 5xfa80
362 -74 m 1xf9
 435 -74 l 2
 446 -74 450 -81 450 -93 c 0
 450 -105 445 -112 435 -112 c 2
 362 -112 l 1
 362 -171 l 2
 362 -203 383 -209 393 -209 c 0
 403 -209 415 -215 415 -229 c 0
 415 -243 405 -250 395 -250 c 2
 182 -250 l 2
 167 -250 163 -239 163 -229 c 0
 163 -219 170 -210 186 -210 c 0
 204 -210 226 -202 226 -175 c 2
 226 -112 l 1
 40 -112 l 2
 28 -112 20 -105 20 -95 c 0
 20 -92 21 -88 23 -84 c 0
 23 -83 24 -82 24 -81 c 2
 30 -73 l 2
 60 -31 158 108 158 232 c 0
 158 248 172 251 181 251 c 0
 189 251 234 249 252 249 c 0
 270 249 311 251 320 251 c 0
 328 251 335 245 335 237 c 0
 335 235 334 234 334 232 c 0
 331 221 171 -6 91 -74 c 1
 226 -74 l 1
 226 10 l 2
 226 22 231 28 235 33 c 2
 330 148 l 2
 336 155 341 157 350 157 c 0
 361 157 362 148 362 140 c 2
 362 -74 l 1xf9
EndSplineSet
Validated: 1
EndChar

StartChar: uniE0C4
Encoding: 57540 57540 133
Width: 470
Flags: W
HStem: -250 40<163.027 223.114 365.438 414.965> -112 38<91 226 362 449.996> 266 27<208.831 263.207> 517 11<180 236> 742 24<220.078 286.318>
VStem: 34 144<396.364 491.471> 34 137<528.006 619.855> 226 136<-206.89 -112 -74 47.375> 287 112<658 732> 295 133<344.904 491.097>
LayerCount: 2
Fore
SplineSet
274 615 m 4xfa80
 273 616 271 617 270 619 c 4
 260 630 255 645 255 660 c 4
 255 670 257 680 262 689 c 4
 268 701 287 713 287 727 c 4xfa80
 287 737 274 742 254 742 c 4
 233 742 174 737 171 552 c 4
 171 536 174 528 180 528 c 4
 182 528 184 528 186 530 c 4
 212 553 245 565 277 565 c 4
 308 565 339 554 366 534 c 4
 398 510 428 476 428 420 c 4xfa40
 428 375 405 330 370 302 c 4
 334 273 284 266 239 266 c 4
 214 266 184 269 159 280 c 4
 120 297 86 338 65 376 c 4
 43 416 35 468 34 514 c 6
 34 518 l 6
 34 565 51 618 73 660 c 4
 109 728 180 765 256 766 c 4
 282 766 311 763 335 753 c 4
 365 742 393 718 398 685 c 4
 399 681 399 678 399 674 c 4
 399 642 375 610 344 602 c 4
 336 600 327 598 319 598 c 4
 303 598 286 603 274 615 c 4xfa80
236 517 m 4
 204 517 178 467 178 405 c 4
 178 343 204 293 236 293 c 4
 268 293 295 343 295 405 c 4xfc40
 295 467 268 517 236 517 c 4
362 -74 m 1xf9
 435 -74 l 2
 446 -74 450 -81 450 -93 c 0
 450 -105 445 -112 435 -112 c 2
 362 -112 l 1
 362 -171 l 2
 362 -203 383 -209 393 -209 c 0
 403 -209 415 -215 415 -229 c 0
 415 -243 405 -250 395 -250 c 2
 182 -250 l 2
 167 -250 163 -239 163 -229 c 0
 163 -219 170 -210 186 -210 c 0
 204 -210 226 -202 226 -175 c 2
 226 -112 l 1
 40 -112 l 2
 28 -112 20 -105 20 -95 c 0
 20 -92 21 -88 23 -84 c 0
 23 -83 24 -82 24 -81 c 2
 30 -73 l 2
 60 -31 158 108 158 232 c 0
 158 248 172 251 181 251 c 0
 189 251 234 249 252 249 c 0
 270 249 311 251 320 251 c 0
 328 251 335 245 335 237 c 0
 335 235 334 234 334 232 c 0
 331 221 171 -6 91 -74 c 1
 226 -74 l 1
 226 10 l 2
 226 22 231 28 235 33 c 2
 330 148 l 2
 336 155 341 157 350 157 c 0
 361 157 362 148 362 140 c 2
 362 -74 l 1xf9
EndSplineSet
Validated: 1
EndChar

StartChar: uniE0C5
Encoding: 57541 57541 134
Width: 470
Flags: W
HStem: -250 40<163.027 223.114 365.438 414.965> -112 38<91 226 362 449.996> 656 59<105.186 129.998>
VStem: 51 26<569 606.783> 151 182<279.304 368.469> 226 136<-206.89 -112 -74 47.375> 414 38<710.227 763.513>
LayerCount: 2
Fore
SplineSet
452 724 m 6xfa
 452 720 l 6
 452 617 333 474 333 307 c 4
 333 278 327 270 317 270 c 4
 307 270 260 279 235 279 c 4
 210 279 188 270 170 270 c 4
 151 270 151 280 151 301 c 4
 151 340 182 398 220 442 c 4
 280 513 357 569 357 597 c 4
 356 603 354 606 350 606 c 4
 348 606 344 604 341 602 c 4
 333 596 319 581 291 581 c 4
 233 581 185 656 145 656 c 4
 100 656 87 598 77 573 c 4
 73 562 70 553 62 553 c 4
 52 553 51 569 51 569 c 5
 51 734 l 6
 51 743 56 746 61 746 c 4
 66 746 71 743 73 739 c 4
 78 729 91 715 99 715 c 4
 106 716 112 720 126 733 c 4
 140 746 155 769 213 769 c 4
 296 769 343 684 368 684 c 4
 393 684 407 741 414 753 c 4
 418 760 434 764 435 764 c 4
 452 764 452 751 452 724 c 6xfa
362 -74 m 1xf6
 435 -74 l 2
 446 -74 450 -81 450 -93 c 0
 450 -105 445 -112 435 -112 c 2
 362 -112 l 1
 362 -171 l 2
 362 -203 383 -209 393 -209 c 0
 403 -209 415 -215 415 -229 c 0
 415 -243 405 -250 395 -250 c 2
 182 -250 l 2
 167 -250 163 -239 163 -229 c 0
 163 -219 170 -210 186 -210 c 0
 204 -210 226 -202 226 -175 c 2
 226 -112 l 1
 40 -112 l 2
 28 -112 20 -105 20 -95 c 0
 20 -92 21 -88 23 -84 c 0
 23 -83 24 -82 24 -81 c 2
 30 -73 l 2
 60 -31 158 108 158 232 c 0
 158 248 172 251 181 251 c 0
 189 251 234 249 252 249 c 0
 270 249 311 251 320 251 c 0
 328 251 335 245 335 237 c 0
 335 235 334 234 334 232 c 0
 331 221 171 -6 91 -74 c 1
 226 -74 l 1
 226 10 l 2
 226 22 231 28 235 33 c 2
 330 148 l 2
 336 155 341 157 350 157 c 0
 361 157 362 148 362 140 c 2
 362 -74 l 1xf6
EndSplineSet
Validated: 1
EndChar

StartChar: uniE0C6
Encoding: 57542 57542 135
Width: 436
Flags: W
HStem: -259 33<133.021 270.4> 230 29<154.505 283.467> 269 38<158.375 238.719> 516 29<121.354 207.267> 735 34<138.081 239.009>
VStem: 20 57<-185.222 -72.7698> 25 92<87.2809 190.495> 27 130<319.327 385.959> 267 120<586.308 703.453> 270 138<343.333 477.35> 303 113<-170.987 -51> 335 59<83.7743 194.478>
LayerCount: 2
Fore
SplineSet
220 768 m 4xf880
 262 765 387 738 387 646 c 4xf880
 387 623 381 600 365 582 c 4
 354 569 341 562 326 555 c 4
 317 550 306 549 295 546 c 4
 292 545 291 541 291 537 c 4
 291 535 291 534 292 532 c 4
 294 528 297 528 302 527 c 6
 335 518 l 5xf810
 356 506 l 6
 366 500 374 493 380 485 c 4
 388 476 395 466 399 456 c 4
 405 443 407 429 408 415 c 6
 408 408 l 6
 408 320 306 269 207 269 c 6
 198 269 l 6
 100 271 29 301 27 379 c 4
 27 401 32 425 49 440 c 4
 61 453 80 463 97 466 c 4
 101 467 104 467 108 467 c 4
 135 467 164 451 175 426 c 4
 179 416 180 405 180 395 c 4
 179 366 157 351 157 329 c 6
 157 324 l 6
 158 309 177 309 185 308 c 4
 186 308 190 307 194 307 c 4
 216 307 270 319 270 425 c 4xf940
 270 438 261 516 146 516 c 4
 138 516 121 516 121 528 c 4
 121 539 135 544 145 545 c 4
 208 548 267 577 267 651 c 6
 267 658 l 6
 267 682 259 735 174 735 c 4
 165 735 134 727 132 710 c 6
 132 706 l 6
 132 692 147 694 152 692 c 4
 157 690 182 688 185 651 c 6
 185 643 l 6
 185 610 163 578 119 578 c 6
 114 578 l 5
 52 582 33 626 33 659 c 4
 33 712 119 769 205 769 c 4
 210 769 215 768 220 768 c 4xf880
334 36 m 1
 381 12 416 -21 416 -81 c 0
 416 -216 309 -259 209 -259 c 0
 110 -259 20 -219 20 -132 c 0xfc20
 20 -69 60 -36 112 -11 c 1
 64 16 25 53 25 122 c 0
 25 206 104 259 220 259 c 0
 247 259 394 244 394 142 c 0xfa10
 394 92 370 59 334 36 c 1
205 -226 m 0
 272 -226 303 -192 303 -152 c 0
 303 -86 229 -65 156 -33 c 1
 112 -50 77 -87 77 -127 c 0
 77 -192 138 -226 205 -226 c 0
282 59 m 1
 315 78 335 104 335 144 c 0
 335 214 250 230 218 230 c 0
 174 230 117 209 117 167 c 0xfa10
 117 104 202 87 282 59 c 1
EndSplineSet
Validated: 1
EndChar

StartChar: uniE0C7
Encoding: 57543 57543 136
Width: 436
Flags: W
HStem: -259 33<133.021 270.4> 230 29<154.505 283.467> 274 40<153.395 231.536> 568 5<98 163> 653 108<98.2113 315.117>
VStem: 20 57<-185.222 -72.7698> 25 92<87.2809 190.495> 38 158<358.92 466.125> 53 41<573.003 584> 266 135<355.943 520.101> 303 113<-170.987 -51> 335 59<83.7743 194.478>
LayerCount: 2
Fore
SplineSet
94 584 m 5xf8c0
 94 580 l 6xf8c0
 94 577 94 573 98 573 c 4
 99 573 101 573 103 574 c 4
 135 593 178 603 236 603 c 4
 327 603 401 529 401 438 c 4
 401 348 335 274 215 274 c 4
 92 274 38 315 38 398 c 4
 38 404 38 410 39 416 c 4
 42 451 64 490 118 490 c 4
 161 490 196 456 196 412 c 4xf940
 196 384 181 359 158 345 c 4
 153 342 146 338 146 331 c 4
 147 324 153 320 158 317 c 4
 165 314 173 314 181 314 c 4
 207 314 266 328 266 438 c 4
 266 549 197 568 163 568 c 4
 129 568 105 545 95 535 c 4
 84 524 83 515 73 515 c 4
 63 515 53 517 53 530 c 6
 53 532 l 5
 64 754 l 6
 65 762 70 771 88 771 c 4
 105 769 191 761 223 761 c 4
 255 761 333 770 346 770 c 4
 357 770 360 762 360 749 c 4
 360 733 355 653 216 653 c 4
 175 653 128 660 118 662 c 6
 114 662 l 6
 105 662 100 657 99 649 c 4
 98 640 94 584 94 584 c 5xf8c0
334 36 m 1
 381 12 416 -21 416 -81 c 0
 416 -216 309 -259 209 -259 c 0
 110 -259 20 -219 20 -132 c 0xfc20
 20 -69 60 -36 112 -11 c 1
 64 16 25 53 25 122 c 0
 25 206 104 259 220 259 c 0
 247 259 394 244 394 142 c 0xfa10
 394 92 370 59 334 36 c 1
205 -226 m 0
 272 -226 303 -192 303 -152 c 0
 303 -86 229 -65 156 -33 c 1
 112 -50 77 -87 77 -127 c 0
 77 -192 138 -226 205 -226 c 0
282 59 m 1
 315 78 335 104 335 144 c 0
 335 214 250 230 218 230 c 0
 174 230 117 209 117 167 c 0xfa10
 117 104 202 87 282 59 c 1
EndSplineSet
Validated: 1
EndChar

StartChar: uniE1D0
Encoding: 57808 57808 137
Width: 655
Flags: MW
HStem: -136 25<351 361.5 351 410> 111 26<287 341>
VStem: 0 34<-161 162> 63 34<-161 162> 98 117<26.5 38.5> 438 118<-36.5 -1> 557 35<-161 162> 619 36<-161 162>
LayerCount: 2
Fore
SplineSet
34 -161 m 2
 34 -165 30 -168 24 -168 c 2
 10 -168 l 2
 4 -168 0 -165 0 -161 c 2
 0 162 l 2
 0 166 4 170 10 170 c 2
 24 170 l 2
 30 170 34 166 34 162 c 2
 34 -161 l 2
97 -161 m 2
 97 -165 92 -168 87 -168 c 2
 73 -168 l 2
 67 -168 63 -165 63 -161 c 2
 63 162 l 2
 63 166 67 170 73 170 c 2
 87 170 l 2
 92 170 97 166 97 162 c 2
 97 -161 l 2
332 137 m 0
 434 137 556 79 556 1 c 0
 556 -74 499 -136 321 -136 c 0xcc
 160 -136 98 -70 98 1 c 0
 98 76 188 137 332 137 c 0
218 69 m 0
 216 61 215 53 215 44 c 0
 215 9 232 -28 252 -54 c 0
 259 -62 267 -71 275 -78 c 0
 290 -91 308 -101 327 -107 c 0
 337 -110 346 -111 356 -111 c 0
 367 -111 378 -110 388 -107 c 0
 415 -100 431 -81 436 -54 c 0
 437 -48 438 -41 438 -34 c 0xa2
 438 32 378 111 304 111 c 0
 270 111 230 106 218 69 c 0
592 -161 m 2
 592 -165 587 -168 582 -168 c 2
 567 -168 l 2
 562 -168 557 -165 557 -161 c 2
 557 162 l 2
 557 166 562 170 567 170 c 2
 582 170 l 2
 587 170 592 166 592 162 c 2
 592 -161 l 2
655 -161 m 2x81
 655 -165 650 -168 644 -168 c 2
 630 -168 l 2
 625 -168 619 -165 619 -161 c 2
 619 162 l 2
 619 166 625 170 630 170 c 2
 644 170 l 2
 650 170 655 166 655 162 c 2
 655 -161 l 2x81
EndSplineSet
Validated: 1
AlternateSubs2: "'salt' Stylistic Alternatives lookup 5 subtable" uniE1D0.salt01
EndChar

StartChar: uniE1D1
Encoding: 57809 57809 138
Width: 533
Flags: MW
HStem: -125 78<41.5 338 81 338 338 354 81 367> 49 76<58.5 77 77 338>
VStem: 0 25<-177 -148 -24.5 -15 -15 16 141 149 149 186> 391 25<-177 -145 -145 -140.5 -15 21 21 29 151 186>
LayerCount: 2
Fore
SplineSet
25 16 m 2
 25 -15 l 2
 25 -34 46 -47 81 -47 c 2
 338 -47 l 2
 370 -47 391 -37 391 -15 c 2
 391 21 l 2
 391 37 370 49 338 49 c 2
 77 49 l 2
 40 49 25 38 25 16 c 2
391 151 m 2
 391 186 l 2
 391 193 396 198 403 198 c 0
 410 198 416 193 416 186 c 2
 416 -177 l 2
 416 -183 410 -190 403 -190 c 0
 396 -190 391 -183 391 -177 c 2
 391 -145 l 2
 391 -136 381 -125 367 -125 c 2
 46 -125 l 2
 37 -125 25 -137 25 -148 c 2
 25 -177 l 2
 25 -183 19 -190 12 -190 c 0
 5 -190 0 -183 0 -177 c 2
 0 186 l 2
 0 193 5 198 12 198 c 0
 19 198 25 193 25 186 c 2
 25 149 l 2
 25 133 36 125 43 125 c 2
 367 125 l 2
 378 125 391 133 391 151 c 2
EndSplineSet
Validated: 1
EndChar

StartChar: uniE1D2
Encoding: 57810 57810 139
Width: 459
Flags: MW
HStem: -125 25<253 263.5 253 313> 123 25<190 244>
VStem: 0 117<36 50> 341 118<-25 10>
LayerCount: 2
Fore
SplineSet
235 148 m 0
 336 148 459 90 459 13 c 0
 459 -63 402 -125 224 -125 c 0
 62 -125 0 -60 0 13 c 0
 0 87 90 148 235 148 c 0
121 80 m 0
 118 71 117 62 117 53 c 0
 117 19 134 -18 155 -43 c 0
 162 -52 170 -60 178 -67 c 0
 193 -80 211 -90 229 -96 c 0
 239 -99 248 -100 258 -100 c 0
 269 -100 280 -99 291 -96 c 0
 318 -89 334 -70 339 -43 c 0
 340 -37 341 -30 341 -23 c 0
 341 43 281 123 207 123 c 0
 173 123 133 117 121 80 c 0
EndSplineSet
Validated: 1
EndChar

StartChar: uniE1D3
Encoding: 57811 57811 140
Width: 341
Flags: MW
HStem: -145 45<80.5 99.5 75 207> 97 48<244 244.5 140.5 267>
VStem: 0 34<-55 -38.5 -55 -19> 311 30<118 875>
LayerCount: 2
Fore
SplineSet
112 -145 m 0
 49 -145 0 -110 0 -49 c 0
 0 11 54 145 227 145 c 0
 262 145 291 135 311 118 c 1
 311 875 l 1
 341 875 l 1
 341 48 l 2
 341 9 302 -145 112 -145 c 0
139 52 m 0
 59 6 34 -26 34 -51 c 0
 34 -59 37 -67 41 -74 c 0
 49 -88 63 -100 87 -100 c 0
 112 -100 148 -88 200 -53 c 0
 281 0 305 28 305 51 c 0
 305 59 302 66 298 73 c 0
 290 87 278 97 256 97 c 0
 232 97 196 85 139 52 c 0
EndSplineSet
Validated: 1
EndChar

StartChar: uniE1D4
Encoding: 57812 57812 141
Width: 341
Flags: MW
HStem: -145 45<95.5 99.5 75 207.5> 97 48<244 260.5 140.5 267>
VStem: 0 30<-875 -117 -875 -48> 305 36<39.5 55>
LayerCount: 2
Fore
SplineSet
227 145 m 0
 294 145 341 107 341 48 c 0
 341 10 303 -145 112 -145 c 0
 79 -145 50 -135 30 -117 c 1
 30 -875 l 1
 0 -875 l 1
 0 -48 l 2
 0 12 54 145 227 145 c 0
200 -53 m 0
 281 0 305 28 305 51 c 0
 305 59 302 66 298 73 c 0
 290 87 278 97 256 97 c 0
 232 97 196 85 139 52 c 0
 59 6 34 -26 34 -51 c 0
 34 -59 37 -67 41 -74 c 0
 49 -88 63 -100 87 -100 c 0
 112 -100 148 -88 200 -53 c 0
EndSplineSet
Validated: 1
EndChar

StartChar: uniE1D5
Encoding: 57813 57813 142
Width: 332
Flags: MW
HStem: -141 1016<78.5 332>
VStem: 302 30<115 875>
LayerCount: 2
Fore
SplineSet
302 115 m 1
 302 875 l 1
 332 875 l 1
 332 47 l 2
 332 -48 209 -141 109 -141 c 0
 48 -141 0 -106 0 -47 c 0
 0 50 99 141 222 141 c 0
 255 141 283 132 302 115 c 1
EndSplineSet
Validated: 1
EndChar

StartChar: uniE1D6
Encoding: 57814 57814 143
Width: 332
Flags: MW
HStem: -875 1016<0 254.5 0 254.5>
VStem: 0 30<-875 -306 -306 -114 -875 -47>
LayerCount: 2
Fore
SplineSet
222 141 m 0
 287 141 332 104 332 47 c 0
 332 -48 209 -141 109 -141 c 0
 78 -141 50 -131 30 -114 c 1
 30 -875 l 1
 0 -875 l 1
 0 -306 l 2
 0 -47 0 -47 0 -47 c 2
 0 50 99 141 222 141 c 0
EndSplineSet
Validated: 1
EndChar

StartChar: uniE1D7
Encoding: 57815 57815 144
Width: 566
Flags: MW
HStem: -138 1011<78.5 321.5>
VStem: 302 30<118 611> 523 43<217.5 269.5>
LayerCount: 2
Fore
SplineSet
451 594 m 0
 514 494 566 376 566 251 c 0
 566 173 540 78 540 78 c 2
 535 61 523 57 514 58 c 2
 512 59 l 2
 506 63 496 72 496 88 c 0
 496 92 497 97 499 103 c 0
 516 148 523 195 523 240 c 0
 523 299 514 356 499 390 c 0
 468 463 394 573 332 611 c 1
 332 50 l 2
 332 -45 209 -138 109 -138 c 0
 48 -138 0 -103 0 -44 c 0
 0 53 99 144 222 144 c 0
 255 144 283 135 302 118 c 1
 302 623 l 1
 302 623 302 623 302 623 c 1
 302 858 l 2
 302 860 302 862 302 863 c 2
 302 864 l 1
 302 864 l 1
 303 871 307 873 312 873 c 0
 331 873 339 867 342 851 c 0
 358 755 400 673 451 594 c 0
EndSplineSet
Validated: 37
EndChar

StartChar: uniE1D8
Encoding: 57816 57816 145
Width: 332
Flags: MW
HStem: -882 1023<9.5 254.5>
VStem: 0 30<-879 -878 -879 -867 -621 -114> 261 45<-274.5 -222.5>
LayerCount: 2
Fore
SplineSet
275 -68 m 0
 276 -70 277 -72 278 -75 c 0
 286 -107 306 -178 306 -256 c 0
 306 -381 245 -500 182 -599 c 0
 131 -678 57 -765 40 -860 c 0
 39 -869 36 -875 30 -878 c 1
 30 -879 l 1
 29 -879 l 2
 24 -881 19 -882 11 -882 c 0
 8 -882 5 -881 3 -879 c 2
 0 -879 l 1
 0 -867 l 2
 0 -47 0 -47 0 -47 c 2
 0 50 99 141 222 141 c 0
 287 141 332 104 332 47 c 0
 332 6 309 -35 275 -68 c 0
221 -422 m 0
 236 -388 261 -304 261 -245 c 0
 261 -200 254 -150 240 -108 c 0
 239 -104 238 -101 237 -98 c 1
 198 -124 152 -141 109 -141 c 0
 78 -141 50 -131 30 -114 c 1
 30 -621 l 1
 142 -574 187 -500 221 -422 c 0
EndSplineSet
Validated: 1
EndChar

StartChar: uniE1D9
Encoding: 57817 57817 146
Width: 581
Flags: MW
HStem: -138 1011<78.5 322>
VStem: 302 30<118 474> 539 38<456.5 476> 541 40<167.5 185 185 207 161 208>
LayerCount: 2
Fore
SplineSet
552 327 m 0xd0
 570 290 581 249 581 207 c 2
 581 185 l 2
 581 137 578 80 574 75 c 0
 568 62 561 58 554 58 c 0
 551 58 549 59 546 60 c 0
 539 62 532 70 532 84 c 0
 532 87 532 89 533 93 c 0
 538 123 541 153 541 182 c 0
 541 234 532 283 509 331 c 0
 449 453 387 470 332 474 c 1xd0
 332 50 l 2
 332 -45 209 -138 109 -138 c 0
 48 -138 0 -103 0 -44 c 0
 0 53 99 144 222 144 c 0
 255 144 283 135 302 118 c 1
 302 475 l 1
 302 475 l 1
 302 872 l 1
 302 872 313 873 319 873 c 0
 325 873 337 871 339 860 c 0
 356 754 412 738 466 680 c 0
 538 602 564 574 574 506 c 0
 576 494 577 483 577 470 c 0xe0
 577 409 555 349 552 343 c 0
 551 340 551 338 551 336 c 0
 551 332 552 330 552 327 c 0xd0
538 440 m 0
 539 447 539 453 539 460 c 0
 539 492 530 523 512 549 c 0
 479 598 425 654 364 654 c 2
 356 654 l 2
 348 654 342 648 342 644 c 0
 342 643 342 642 343 641 c 0
 364 559 410 535 457 481 c 0
 478 457 495 437 511 412 c 0
 513 409 515 408 518 408 c 0
 523 408 530 411 531 414 c 0
 536 422 536 432 538 440 c 0
EndSplineSet
Validated: 1
EndChar

StartChar: uniE1DA
Encoding: 57818 57818 147
Width: 332
Flags: MW
HStem: -883 1024<15 254.5>
VStem: 0 30<-485 -114 -485 -47> 248 38<-486.5 -467> 250 42
LayerCount: 2
Fore
SplineSet
282 -84 m 0xd0
 298 -164 297 -262 261 -337 c 0
 261 -340 260 -342 260 -346 c 0
 260 -349 260 -351 261 -353 c 0
 264 -359 286 -419 286 -480 c 0
 286 -493 285 -505 283 -516 c 0xe0
 259 -673 62 -716 38 -870 c 0
 36 -881 24 -883 18 -883 c 0
 12 -883 1 -882 1 -882 c 1
 1 -879 l 1
 0 -879 l 1
 0 -47 0 -47 0 -47 c 2
 0 50 99 141 222 141 c 0
 287 141 332 104 332 47 c 0
 332 6 310 -35 276 -67 c 1
 278 -71 280 -76 282 -84 c 0xd0
221 -559 m 0xe0
 239 -533 248 -503 248 -470 c 0
 248 -464 248 -457 247 -450 c 0
 245 -442 245 -432 240 -425 c 0
 239 -421 232 -418 227 -418 c 0
 224 -418 222 -419 220 -422 c 0
 204 -448 187 -468 166 -491 c 0
 119 -546 63 -569 42 -651 c 0
 41 -652 41 -653 41 -654 c 0
 41 -659 47 -664 55 -664 c 2
 63 -664 l 2
 124 -664 188 -608 221 -559 c 0xe0
218 -341 m 0xd0
 255 -265 256 -177 242 -95 c 1
 202 -123 153 -141 109 -141 c 0
 78 -141 50 -131 30 -114 c 1
 30 -485 l 1
 88 -481 158 -464 218 -341 c 0xd0
EndSplineSet
Validated: 33
EndChar

StartChar: uniE1DB
Encoding: 57819 57819 148
Width: 563
Flags: MW
HStem: -138 1161<78.5 317> 1011 12<302 317>
VStem: 302 29<118 450> 523 36<438 452 417.5 456.5> 526 37<166 178 151.5 204>
LayerCount: 2
Fore
SplineSet
562 201 m 0xa8
 562 192 563 183 563 173 c 0
 563 130 559 84 556 78 c 0
 549 67 542 62 536 62 c 0
 534 62 532 63 530 64 c 0
 523 67 517 76 517 88 c 0
 517 90 518 92 518 95 c 0
 523 124 526 152 526 180 c 0
 526 228 517 273 495 317 c 0
 440 429 383 446 331 450 c 1
 331 50 l 2
 331 -45 208 -138 109 -138 c 0
 48 -138 0 -103 0 -44 c 0
 0 53 99 144 222 144 c 0
 254 144 282 135 302 118 c 1
 302 1011 l 1
 302 1011 308 1023 314 1023 c 0
 320 1023 333 1013 334 1004 c 0x68
 351 904 405 888 455 834 c 0
 522 761 545 734 556 673 c 0
 558 664 558 655 558 645 c 0
 558 606 547 565 538 539 c 1
 546 522 552 504 556 481 c 0
 558 469 559 458 559 446 c 0
 559 389 538 334 536 327 c 0
 535 325 535 323 535 321 c 0
 535 318 535 316 536 314 c 0xb0
 551 278 560 240 562 201 c 0xa8
521 418 m 0xb0
 522 426 523 434 523 442 c 0
 523 471 514 498 498 522 c 0
 467 568 416 619 353 619 c 0
 347 618 340 607 340 606 c 0
 360 529 404 508 447 457 c 1
 452 452 l 2
 469 432 483 415 498 393 c 0
 499 390 502 389 505 389 c 0
 510 389 515 392 516 395 c 0
 519 402 519 410 521 418 c 0xb0
522 624 m 0
 523 631 525 637 525 645 c 0
 525 658 521 673 510 693 c 0
 455 786 396 810 341 810 c 1
 357 713 406 696 455 642 c 0
 478 617 496 598 510 580 c 1
 515 597 520 614 522 624 c 0
EndSplineSet
Validated: 1
EndChar

StartChar: uniE1DC
Encoding: 57820 57820 149
Width: 332
Flags: MW
HStem: -1048 1189<9 254.5>
VStem: 0 30<-444 -114 -444 -47> 230 37<-445.5 -432> 232 41<-211 -200 -211 -192.5>
LayerCount: 2
Fore
SplineSet
222 141 m 0xe0
 287 141 332 104 332 47 c 0
 332 -2 299 -50 254 -86 c 1
 260 -104 273 -157 273 -200 c 2
 273 -211 l 1xd0
 269 -275 264 -286 251 -311 c 2
 247 -318 l 2
 245 -321 244 -323 244 -325 c 0
 244 -328 247 -331 247 -334 c 0
 251 -344 267 -387 267 -439 c 0
 267 -452 266 -465 264 -478 c 0
 260 -502 254 -522 244 -540 c 1
 253 -567 266 -611 266 -654 c 0
 266 -664 266 -674 264 -683 c 0
 253 -747 229 -775 159 -851 c 0
 107 -908 50 -924 33 -1028 c 0
 32 -1037 19 -1048 12 -1048 c 0
 6 -1048 0 -1035 0 -1035 c 1
 0 -47 l 2
 0 50 99 141 222 141 c 0xe0
232 -208 m 0xd0
 232 -177 222 -149 214 -111 c 1
 180 -130 143 -141 109 -141 c 0
 78 -141 50 -131 30 -114 c 1
 30 -444 l 1
 82 -439 138 -419 201 -306 c 0
 224 -265 232 -236 232 -208 c 0xd0
159 -646 m 0xe0
 107 -703 56 -719 39 -823 c 0
 39 -824 39 -825 41 -826 c 0
 98 -826 159 -800 216 -704 c 0
 228 -683 232 -667 232 -654 c 0
 232 -646 230 -640 229 -633 c 0
 226 -622 221 -601 215 -582 c 1
 201 -600 183 -620 159 -646 c 0xe0
151 -453 m 0
 106 -506 60 -528 39 -608 c 0
 39 -613 43 -621 52 -621 c 2
 57 -621 l 2
 119 -621 172 -568 203 -520 c 0
 220 -495 230 -466 230 -436 c 0
 230 -428 229 -419 228 -411 c 0
 226 -403 226 -395 223 -388 c 0
 222 -385 216 -382 211 -382 c 0
 208 -382 205 -383 203 -386 c 0
 187 -411 171 -430 151 -453 c 0
EndSplineSet
Validated: 1
EndChar

StartChar: uniE1E7
Encoding: 57831 57831 150
Width: 100
Flags: MW
HStem: -50 100<36 64>
VStem: 0 100<-14 14>
LayerCount: 2
Fore
SplineSet
100 0 m 0
 100 -28 78 -50 50 -50 c 0
 22 -50 0 -28 0 0 c 0
 0 28 22 50 50 50 c 0
 78 50 100 28 100 0 c 0
EndSplineSet
Validated: 1
EndChar

StartChar: uniE1F0
Encoding: 57840 57840 151
Width: 332
Flags: MW
HStem: -141 829<78.5 332>
VStem: 302 30<115 688 46 688>
LayerCount: 2
Fore
SplineSet
302 115 m 1
 302 688 l 1
 332 688 l 1
 332 46 l 2
 331 -48 209 -141 109 -141 c 0
 48 -141 0 -106 0 -47 c 0
 0 50 99 141 222 141 c 0
 255 141 283 131 302 115 c 1
EndSplineSet
Validated: 1
EndChar

StartChar: uniE1F1
Encoding: 57841 57841 152
Width: 332
Flags: MW
HStem: -141 1019<78.5 332>
VStem: 302 30<115 878 46 878>
LayerCount: 2
Fore
SplineSet
302 115 m 1
 302 878 l 1
 332 878 l 1
 332 46 l 2
 331 -48 209 -141 109 -141 c 0
 48 -141 0 -106 0 -47 c 0
 0 50 99 141 222 141 c 0
 255 141 283 131 302 115 c 1
EndSplineSet
Validated: 1
EndChar

StartChar: uniE1F2
Encoding: 57842 57842 153
Width: 342
Flags: MW
HStem: 563 125<0 312 0 342>
VStem: 312 30<115 563 563 563>
LayerCount: 2
Fore
SplineSet
0 688 m 1
 342 688 l 1
 342 46 l 2
 341 -48 219 -141 119 -141 c 0
 58 -141 10 -106 10 -47 c 0
 10 50 109 141 232 141 c 0
 265 141 292 131 312 115 c 1
 312 563 l 1
 0 563 l 1
 0 688 l 1
EndSplineSet
Validated: 1
EndChar

StartChar: uniE1F3
Encoding: 57843 57843 154
Width: 342
Flags: MW
HStem: 753 125<0 312 0 342>
VStem: 312 30<116 753 753 753>
LayerCount: 2
Fore
SplineSet
0 878 m 1
 342 878 l 1
 342 47 l 2
 341 -47 219 -140 119 -140 c 0
 58 -140 10 -105 10 -46 c 0
 10 51 109 142 232 142 c 0
 265 142 292 132 312 116 c 1
 312 753 l 1
 0 753 l 1
 0 878 l 1
EndSplineSet
Validated: 1
EndChar

StartChar: uniE1F4
Encoding: 57844 57844 155
Width: 342
Flags: MW
HStem: 376 125<0 312 0 312> 563 125<0 312 0 342>
VStem: 312 30<116 376 376 376 501 563 563 563>
LayerCount: 2
Fore
SplineSet
0 688 m 1
 342 688 l 1
 342 47 l 2
 341 -47 219 -140 119 -140 c 0
 58 -140 10 -105 10 -46 c 0
 10 51 109 142 232 142 c 0
 265 142 292 132 312 116 c 1
 312 376 l 1
 0 376 l 1
 0 501 l 1
 312 501 l 1
 312 563 l 1
 0 563 l 1
 0 688 l 1
EndSplineSet
Validated: 1
EndChar

StartChar: uniE1F5
Encoding: 57845 57845 156
Width: 342
Flags: MW
HStem: 566 125<0 312 0 312> 753 125<0 312 0 342>
VStem: 312 30<116 566 566 566 691 753 753 753>
LayerCount: 2
Fore
SplineSet
0 878 m 1
 342 878 l 1
 342 47 l 2
 341 -47 219 -140 119 -140 c 0
 58 -140 10 -105 10 -46 c 0
 10 51 109 142 232 142 c 0
 265 142 292 132 312 116 c 1
 312 566 l 1
 0 566 l 1
 0 691 l 1
 312 691 l 1
 312 753 l 1
 0 753 l 1
 0 878 l 1
EndSplineSet
Validated: 1
EndChar

StartChar: uniE1F6
Encoding: 57846 57846 157
Width: 342
Flags: MW
HStem: 376 125<0 312 0 312> 563 125<0 312 0 312> 753 125<0 312 0 342>
VStem: 312 30<116 376 376 376 501 563 563 563 688 753 753 753>
LayerCount: 2
Fore
SplineSet
0 878 m 1
 342 878 l 1
 342 47 l 2
 341 -47 219 -140 119 -140 c 0
 58 -140 10 -105 10 -46 c 0
 10 51 109 142 232 142 c 0
 265 142 292 132 312 116 c 1
 312 376 l 1
 0 376 l 1
 0 501 l 1
 312 501 l 1
 312 563 l 1
 0 563 l 1
 0 688 l 1
 312 688 l 1
 312 753 l 1
 0 753 l 1
 0 878 l 1
EndSplineSet
Validated: 1
EndChar

StartChar: uniE1F7
Encoding: 57847 57847 158
Width: 342
Flags: MW
HStem: 563 125<0 342 0 342>
VStem: 0 342<563 688 563 688>
LayerCount: 2
Fore
SplineSet
342 688 m 1
 342 563 l 1
 0 563 l 1
 0 688 l 1
 342 688 l 1
EndSplineSet
Validated: 1
EndChar

StartChar: uniE1F8
Encoding: 57848 57848 159
Width: 342
Flags: MW
HStem: 753 125<0 342 0 342>
VStem: 0 342<753 878 753 878>
LayerCount: 2
Fore
SplineSet
342 878 m 1
 342 753 l 1
 0 753 l 1
 0 878 l 1
 342 878 l 1
EndSplineSet
Validated: 1
EndChar

StartChar: uniE1F9
Encoding: 57849 57849 160
Width: 342
Flags: MW
HStem: 376 125<0 342 0 342> 563 125<0 342 0 342>
VStem: 0 342<376 501 376 501 563 688 376 688>
LayerCount: 2
Fore
SplineSet
342 501 m 1
 342 376 l 1
 0 376 l 1
 0 501 l 1
 342 501 l 1
342 688 m 1
 342 563 l 1
 0 563 l 1
 0 688 l 1
 342 688 l 1
EndSplineSet
Validated: 1
EndChar

StartChar: uniE1FA
Encoding: 57850 57850 161
Width: 342
Flags: MW
HStem: 566 125<0 342 0 342> 753 125<0 342 0 342>
VStem: 0 342<566 691 566 691 753 878 566 878>
LayerCount: 2
Fore
SplineSet
342 691 m 1
 342 566 l 1
 0 566 l 1
 0 691 l 1
 342 691 l 1
342 878 m 1
 342 753 l 1
 0 753 l 1
 0 878 l 1
 342 878 l 1
EndSplineSet
Validated: 1
EndChar

StartChar: uniE1FB
Encoding: 57851 57851 162
Width: 342
Flags: MW
HStem: 376 125<0 342 0 342> 563 125<0 342 0 342> 753 125<0 342 0 342>
VStem: 0 342<376 501 376 501 563 688 376 688 753 878>
LayerCount: 2
Fore
SplineSet
342 501 m 1
 342 376 l 1
 0 376 l 1
 0 501 l 1
 342 501 l 1
342 878 m 1
 342 753 l 1
 0 753 l 1
 0 878 l 1
 342 878 l 1
342 688 m 1
 342 563 l 1
 0 563 l 1
 0 688 l 1
 342 688 l 1
EndSplineSet
Validated: 1
EndChar

StartChar: uniE1FC
Encoding: 57852 57852 163
Width: 100
Flags: MW
HStem: -36 100<36 64>
VStem: 0 100<0 28>
LayerCount: 2
Fore
SplineSet
100 14 m 0
 100 -14 78 -36 50 -36 c 0
 22 -36 0 -14 0 14 c 0
 0 42 22 64 50 64 c 0
 78 64 100 42 100 14 c 0
EndSplineSet
Validated: 1
EndChar

StartChar: uniE1FD
Encoding: 57853 57853 164
Width: 365
Flags: MW
HStem: -326 51<142.5 215.5 142.5 216.5>
VStem: 0 365<-183 -183>
LayerCount: 2
Fore
SplineSet
365 -183 m 1
 333 -278 255 -326 178 -326 c 0
 103 -326 29 -279 0 -183 c 1
 4 -183 l 1
 34 -244 106 -275 179 -275 c 0
 252 -275 326 -244 361 -183 c 1
 365 -183 l 1
EndSplineSet
Validated: 1
EndChar

StartChar: uniE1FE
Encoding: 57854 57854 165
Width: 318
Flags: MW
HStem: 941 28<28 28 28 318>
VStem: 0 28<763 941 763 969>
LayerCount: 2
Fore
SplineSet
28 941 m 1
 28 763 l 1
 0 763 l 1
 0 969 l 1
 318 969 l 1
 318 941 l 1
 28 941 l 1
EndSplineSet
Validated: 1
EndChar

StartChar: uniE1FF
Encoding: 57855 57855 166
Width: 236
Flags: MW
HStem: 818 17<59.5 76.5 59.5 127> 945 33 1071 22<153.5 159 159 165>
VStem: 0 65<870.5 883.5> 77 63<1027.5 1038.5 1027.5 1053.5> 132 55<884.5 914.5 884.5 940> 183 52<1018.5 1039 1013.5 1048>
LayerCount: 2
Fore
SplineSet
161 1093 m 0xf4
 209 1093 235 1052 235 1026 c 0xf4
 235 1001 225 974 176 951 c 0
 170 949 169 946 169 943 c 0
 169 940 187 931 187 898 c 0
 187 871 170 818 84 818 c 0
 17 818 0 846 0 871 c 0
 0 896 15 913 34 913 c 0
 51 913 65 899 65 882 c 0
 65 859 42 852 42 846 c 0
 42 844 49 835 70 835 c 0
 83 835 132 850 132 911 c 0
 132 969 64 932 64 957 c 0
 64 977 76 980 96 980 c 0xfa
 105 980 115 979 126 979 c 0
 144 979 183 996 183 1041 c 0
 183 1055 177 1067 165 1071 c 1
 159 1071 l 2
 148 1071 137 1063 137 1049 c 0
 137 1044 140 1041 140 1036 c 0
 140 1019 125 1005 108 1005 c 0
 91 1005 77 1018 77 1036 c 0
 77 1071 112 1093 161 1093 c 0xf4
EndSplineSet
Validated: 1
EndChar

StartChar: uniE200
Encoding: 57856 57856 167
Width: 318
Flags: MW
HStem: 957 28<0 290 0 318>
VStem: 290 28<779 957 957 957>
LayerCount: 2
Fore
SplineSet
318 985 m 1
 318 779 l 1
 290 779 l 1
 290 957 l 1
 0 957 l 1
 0 985 l 1
 318 985 l 1
EndSplineSet
Validated: 1
EndChar

StartChar: uniE201
Encoding: 57857 57857 168
Width: 318
Flags: MW
HStem: 1163 28<28 28 28 318>
VStem: 0 28<985 1163 985 1191>
LayerCount: 2
Fore
SplineSet
28 1163 m 1
 28 985 l 1
 0 985 l 1
 0 1191 l 1
 318 1191 l 1
 318 1163 l 1
 28 1163 l 1
EndSplineSet
Validated: 1
EndChar

StartChar: uniE202
Encoding: 57858 57858 169
Width: 236
Flags: MW
HStem: 1050 17<64 78 64 122> 1178 33<79 126 92 108> 1303 22<153.5 159 159 165>
VStem: 0 65<1090.5 1122.5> 77 62<1266 1272 1266 1285.5> 132 55<1138 1141.5 1128 1152> 183 52<1269.5 1271 1245.5 1280>
LayerCount: 2
Fore
SplineSet
139 1272 m 2xea
 139 1266 l 2
 138 1250 125 1237 108 1237 c 0
 91 1237 77 1250 77 1268 c 0
 77 1303 112 1325 161 1325 c 0
 209 1325 235 1284 235 1258 c 0xea
 235 1233 225 1206 175 1183 c 0
 170 1181 169 1178 169 1175 c 0
 169 1173 170 1172 171 1171 c 0
 173 1169 187 1153 187 1130 c 0
 187 1126 187 1122 186 1119 c 0
 181 1091 160 1050 84 1050 c 0
 17 1050 0 1078 0 1103 c 0
 0 1109 1 1117 3 1122 c 0
 8 1136 20 1145 34 1145 c 0
 51 1145 65 1131 65 1114 c 0
 65 1101 58 1091 47 1086 c 0
 45 1084 42 1081 42 1078 c 0
 42 1076 44 1075 46 1073 c 0
 49 1071 58 1067 70 1067 c 0
 86 1067 109 1076 125 1113 c 0
 129 1122 132 1133 132 1143 c 0
 132 1161 125 1178 108 1178 c 2
 86 1178 l 2
 72 1178 64 1181 64 1189 c 0
 64 1191 64 1193 65 1195 c 0
 70 1208 82 1211 92 1211 c 2
 126 1211 l 2xf4
 139 1211 169 1222 178 1250 c 0
 181 1258 183 1266 183 1273 c 0
 183 1287 177 1299 165 1303 c 1
 159 1303 l 2
 148 1303 137 1295 137 1281 c 0
 137 1278 138 1275 139 1272 c 2xea
EndSplineSet
Validated: 1
EndChar

StartChar: uniE203
Encoding: 57859 57859 170
Width: 318
Flags: MW
HStem: 1163 28<0 290 0 318>
VStem: 290 28<985 1163 1163 1163>
LayerCount: 2
Fore
SplineSet
318 1191 m 1
 318 985 l 1
 290 985 l 1
 290 1163 l 1
 0 1163 l 1
 0 1191 l 1
 318 1191 l 1
EndSplineSet
Validated: 1
EndChar

StartChar: uniE210
Encoding: 57872 57872 171
Width: 15
Flags: MW
HStem: 0 21G<-15 15 -15 -15>
VStem: -15 30<0 875>
LayerCount: 2
Fore
SplineSet
15 0 m 1
 -15 0 l 1
 -15 875 l 1
 15 875 l 1
 15 0 l 1
EndSplineSet
Validated: 1
EndChar

StartChar: uniE240
Encoding: 57920 57920 172
Width: 264
Flags: MW
HStem: -810 819
VStem: 221 43<-650.5 -598.5>
LayerCount: 2
Fore
SplineSet
238 -790 m 2
 233 -807 216 -813 210 -809 c 0
 204 -805 194 -796 194 -780 c 0
 194 -776 195 -771 197 -765 c 0
 214 -720 221 -673 221 -628 c 0
 221 -569 212 -512 197 -478 c 0
 161 -393 66 -257 0 -245 c 1
 0 -6 l 2
 0 6 4 9 10 9 c 0
 29 9 37 3 40 -13 c 0
 56 -109 98 -195 149 -274 c 0
 212 -374 264 -492 264 -617 c 0
 264 -695 238 -790 238 -790 c 2
EndSplineSet
Validated: 33
AlternateSubs2: "'salt' Stylistic Alternatives lookup 5 subtable" uniE240.salt03
AlternateSubs2: "'ss03' Style Set 3 lookup 2 subtable" uniE240.ss03
AlternateSubs2: "'ss02' Style Set 2 lookup 1 subtable" uniE240.ss02
EndChar

StartChar: uniE241
Encoding: 57921 57921 173
Width: 306
Flags: MW
HStem: -14 822
VStem: 261 45<593.5 645.5>
LayerCount: 2
Fore
SplineSet
240 760 m 0
 225 803 270 825 278 793 c 0
 286 761 306 690 306 612 c 0
 306 487 245 368 182 269 c 0
 131 190 57 103 40 8 c 0
 38 -8 30 -14 11 -14 c 0
 5 -14 0 -11 0 1 c 2
 0 236 l 1
 134 281 184 362 221 446 c 0
 236 480 261 564 261 623 c 0
 261 668 254 718 240 760 c 0
EndSplineSet
Validated: 33
AlternateSubs2: "'salt' Stylistic Alternatives lookup 5 subtable" uniE241.salt02
AlternateSubs2: "'ss03' Style Set 3 lookup 2 subtable" uniE241.ss03
EndChar

StartChar: uniE242
Encoding: 57922 57922 174
Width: 279
Flags: MW
HStem: -813 815<14 255.5>
VStem: 0 40<-227.5 -225 -227.5 1> 237 38<-414.5 -395> 239 40<-703.5 -686 -686 -664 -710 -663>
LayerCount: 2
Fore
SplineSet
272 -796 m 0xd0
 266 -809 259 -813 252 -813 c 0
 249 -813 247 -812 244 -811 c 0
 237 -809 230 -801 230 -787 c 0
 230 -784 230 -782 231 -778 c 0
 236 -748 239 -718 239 -689 c 0
 239 -637 230 -588 207 -540 c 0xd0
 138 -400 67 -398 5 -396 c 2
 0 -396 l 1
 0 1 l 1
 0 1 11 2 17 2 c 0
 23 2 35 0 37 -11 c 0
 54 -117 110 -133 164 -191 c 0
 236 -269 262 -297 272 -365 c 0
 274 -377 275 -388 275 -401 c 0xe0
 275 -462 253 -522 250 -528 c 0
 249 -531 249 -533 249 -535 c 0
 249 -539 250 -541 250 -544 c 0
 268 -581 279 -622 279 -664 c 2
 279 -686 l 2
 279 -734 276 -791 272 -796 c 0xd0
209 -459 m 0
 211 -462 213 -463 216 -463 c 0
 221 -463 228 -460 229 -457 c 0
 234 -449 234 -439 236 -431 c 0
 237 -424 237 -418 237 -411 c 0
 237 -379 228 -348 210 -322 c 0xe0
 177 -273 123 -217 62 -217 c 2
 54 -217 l 2
 46 -217 40 -223 40 -227 c 0
 40 -228 40 -229 41 -230 c 0
 62 -312 108 -336 155 -390 c 0
 176 -414 193 -434 209 -459 c 0
EndSplineSet
Validated: 1
AlternateSubs2: "'salt' Stylistic Alternatives lookup 5 subtable" uniE242.salt03
AlternateSubs2: "'ss03' Style Set 3 lookup 2 subtable" uniE242.ss03
AlternateSubs2: "'ss02' Style Set 2 lookup 1 subtable" uniE242.ss02
EndChar

StartChar: uniE243
Encoding: 57923 57923 175
Width: 292
Flags: MW
HStem: -9 821<14 263>
VStem: 0 40<217.5 220.5 217.5 388> 247 38<387.5 407> 249 42
LayerCount: 2
Fore
SplineSet
240 786 m 0xd0
 237 803 245 811 257 812 c 0
 269 812 276 813 281 790 c 0xd0
 297 710 296 612 260 537 c 0
 260 534 259 532 259 528 c 0
 259 525 259 523 260 521 c 0
 263 515 285 455 285 394 c 0
 285 381 284 369 282 358 c 0xe0
 258 201 61 158 37 4 c 0
 35 -7 23 -9 17 -9 c 0
 11 -9 0 -8 0 -8 c 1
 0 388 l 1
 5 388 l 2
 67 390 148 393 217 533 c 0
 255 611 255 702 240 786 c 0xd0
226 456 m 0xe0
 223 456 221 455 219 452 c 0
 203 426 186 406 165 383 c 0
 118 328 62 305 41 223 c 0
 40 222 40 221 40 220 c 0
 40 215 46 210 54 210 c 2
 62 210 l 2
 123 210 187 266 220 315 c 0
 238 341 247 371 247 404 c 0
 247 410 247 417 246 424 c 0
 244 432 244 442 239 449 c 0
 238 453 231 456 226 456 c 0xe0
EndSplineSet
Validated: 33
AlternateSubs2: "'salt' Stylistic Alternatives lookup 5 subtable" uniE243.salt02
AlternateSubs2: "'ss03' Style Set 3 lookup 2 subtable" uniE243.ss03
EndChar

StartChar: uniE244
Encoding: 57924 57924 176
Width: 262
Flags: MW
HStem: -812 961<9 237> 137 12<0 15>
VStem: 0 38<-268 -267.5 -268 137> 221 36<-436 -422 -456.5 -417.5> 224 37<-708 -696 -722.5 -670>
LayerCount: 2
Fore
SplineSet
260 -673 m 0xa8
 260 -682 261 -691 261 -701 c 0
 261 -744 257 -790 254 -796 c 0
 247 -807 240 -812 234 -812 c 0
 232 -812 230 -811 228 -810 c 0
 221 -807 215 -798 215 -786 c 0
 215 -784 216 -782 216 -779 c 0
 221 -750 224 -722 224 -694 c 0
 224 -646 215 -601 193 -557 c 0
 129 -427 63 -425 5 -423 c 2
 0 -423 l 1
 0 137 l 1
 0 137 6 149 12 149 c 0
 18 149 31 139 32 130 c 0x68
 49 30 103 14 153 -40 c 0
 220 -113 243 -140 254 -201 c 0
 256 -210 256 -219 256 -229 c 0
 256 -268 245 -309 236 -335 c 1
 244 -352 250 -370 254 -393 c 0
 256 -405 257 -416 257 -428 c 0
 257 -485 236 -540 234 -547 c 0
 233 -549 233 -551 233 -553 c 0
 233 -556 233 -558 234 -560 c 0xb0
 249 -596 258 -634 260 -673 c 0xa8
208 -181 m 0xb0
 153 -88 94 -64 39 -64 c 1
 55 -161 104 -178 153 -232 c 0
 176 -257 194 -276 208 -294 c 1
 213 -277 218 -260 220 -250 c 0
 221 -243 223 -237 223 -229 c 0
 223 -216 219 -201 208 -181 c 0xb0
219 -456 m 0
 220 -448 221 -440 221 -432 c 0
 221 -403 212 -376 196 -352 c 0
 165 -306 114 -255 51 -255 c 0
 45 -256 38 -267 38 -268 c 0
 58 -345 102 -366 145 -417 c 1
 150 -422 l 2
 167 -442 181 -459 196 -481 c 0
 197 -484 200 -485 203 -485 c 0
 208 -485 213 -482 214 -479 c 0
 217 -472 217 -464 219 -456 c 0
EndSplineSet
Validated: 1
AlternateSubs2: "'salt' Stylistic Alternatives lookup 5 subtable" uniE244.salt03
AlternateSubs2: "'ss03' Style Set 3 lookup 2 subtable" uniE244.ss03
AlternateSubs2: "'ss02' Style Set 2 lookup 1 subtable" uniE244.ss02
EndChar

StartChar: uniE245
Encoding: 57925 57925 177
Width: 274
Flags: MW
HStem: -172 984<9 234.5>
VStem: 0 39<52.5 53 265.5 268> 230 37<430.5 444> 232 41<665 676 665 685>
LayerCount: 2
Fore
SplineSet
273 676 m 2xd0
 273 665 l 1xd0
 269 601 264 590 251 565 c 2
 247 558 l 2
 245 555 244 553 244 551 c 0
 244 548 247 545 247 542 c 0
 251 532 267 489 267 437 c 0
 267 424 266 411 264 398 c 0
 260 374 254 354 244 336 c 1
 253 309 266 265 266 222 c 0
 266 212 266 202 264 193 c 0xe0
 253 129 229 101 159 25 c 0
 107 -32 50 -48 33 -152 c 0
 32 -161 19 -172 12 -172 c 0
 6 -172 0 -159 0 -159 c 1
 0 430 l 1
 61 432 125 434 201 570 c 0
 224 611 232 640 232 668 c 0
 232 702 220 733 212 778 c 0
 212 781 211 783 211 785 c 0
 211 798 218 808 225 811 c 0
 227 812 229 812 231 812 c 0
 238 812 245 808 252 796 c 0
 256 789 273 726 273 676 c 2xd0
39 268 m 0
 39 263 43 255 52 255 c 2
 57 255 l 2
 119 255 172 308 203 356 c 0
 220 381 230 410 230 440 c 0
 230 448 229 457 228 465 c 0
 226 473 226 481 223 488 c 0
 222 491 216 494 211 494 c 0
 208 494 205 493 203 490 c 0
 187 465 171 446 151 423 c 0xe0
 106 370 60 348 39 268 c 0
229 243 m 0xe0
 226 254 221 275 215 294 c 1
 201 276 183 256 159 230 c 0
 107 173 56 157 39 53 c 0
 39 52 39 51 41 50 c 0
 98 50 159 76 216 172 c 0
 228 193 232 209 232 222 c 0
 232 230 230 236 229 243 c 0xe0
EndSplineSet
Validated: 1
AlternateSubs2: "'salt' Stylistic Alternatives lookup 5 subtable" uniE245.salt02
AlternateSubs2: "'ss03' Style Set 3 lookup 2 subtable" uniE245.ss03
EndChar

StartChar: uniE250
Encoding: 57936 57936 178
Width: 266
Flags: MW
HStem: -520 531<12.5 235>
VStem: 225 39<-380 -373 -411 -369.5>
LayerCount: 2
Fore
SplineSet
14 11 m 0
 23 11 30 11 31 -7 c 0
 48 -105 105 -130 155 -187 c 2
 171 -204 l 2
 227 -264 253 -293 262 -348 c 0
 264 -357 264 -368 264 -378 c 0
 264 -444 235 -520 235 -520 c 1
 199 -472 l 1
 199 -472 216 -419 222 -398 c 0
 224 -391 225 -384 225 -376 c 0
 225 -363 222 -349 210 -329 c 0
 154 -234 89 -210 34 -210 c 0
 22 -210 11 -211 0 -213 c 1
 0 2 l 2
 0 11 11 11 14 11 c 0
EndSplineSet
Validated: 1
EndChar

StartChar: uniE251
Encoding: 57937 57937 179
Width: 300
Flags: MW
HStem: -21 592<10.5 268>
VStem: 258 42<417 424.5>
LayerCount: 2
Fore
SplineSet
0 -7 m 1
 0 231 l 1
 12 229 25 228 39 228 c 0
 103 228 179 256 242 365 c 0
 255 388 258 406 258 420 c 0
 258 429 257 437 257 445 c 0
 257 470 234 539 234 539 c 1
 268 571 l 1
 268 571 300 496 300 423 c 0
 300 411 299 399 297 388 c 0
 285 316 257 285 179 200 c 0
 120 137 56 118 38 0 c 0
 35 -9 21 -21 14 -21 c 0
 7 -21 0 -7 0 -7 c 1
EndSplineSet
Validated: 1
EndChar

StartChar: uniE260
Encoding: 57952 57952 180
Width: 239
Flags: W
HStem: 98.3398 53.46<87.0749 171.125>
VStem: 1.1748 69.2998<248.893 441.468> 157.595 76.2305<-18.749 92.4193>
LayerCount: 2
Fore
SplineSet
72.455078125 31.01953125 m 2
 70.474609375 -22.4404296875 l 1
 70.474609375 -32.33984375 l 2
 70.474609375 -51.4794921875 72.125 -71.9404296875 75.4248046875 -93.7197265625 c 1
 92.5849609375 -77.2197265625 105.78515625 -64.01953125 115.025390625 -54.1201171875 c 0
 124.264648438 -44.2197265625 133.669921875 -31.0205078125 143.240234375 -14.51953125 c 0
 152.810546875 1.98046875 157.594726562 17.4892578125 157.594726562 32.009765625 c 2
 157.594726562 38.9404296875 l 2
 157.594726562 54.7802734375 154.129882812 68.6396484375 147.200195312 80.51953125 c 0
 140.26953125 92.400390625 130.865234375 98.33984375 118.985351562 98.33984375 c 0
 104.46484375 98.33984375 93.2451171875 91.7392578125 85.3251953125 78.5400390625 c 0
 77.4052734375 65.33984375 73.115234375 49.5 72.455078125 31.01953125 c 2
17.0146484375 -141.240234375 m 2
 1.1748046875 432.959960938 l 1
 13.0546875 439.560546875 24.60546875 442.860351562 35.8251953125 442.860351562 c 0
 47.044921875 442.860351562 58.5947265625 439.560546875 70.474609375 432.959960938 c 1
 61.5654296875 106.259765625 l 1
 86.64453125 136.620117188 119.314453125 151.799804688 159.575195312 151.799804688 c 0
 182.674804688 151.799804688 200.825195312 141.239257812 214.025390625 120.120117188 c 0
 227.224609375 99 233.825195312 73.919921875 233.825195312 44.8798828125 c 0
 233.825195312 27.720703125 229.205078125 10.890625 219.96484375 -5.6103515625 c 0
 210.725585938 -22.1103515625 201.155273438 -35.3095703125 191.254882812 -45.2099609375 c 0
 181.35546875 -55.1103515625 166.669921875 -68.474609375 147.200195312 -85.3046875 c 0
 127.729492188 -102.134765625 114.03515625 -114.180664062 106.115234375 -121.440429688 c 0
 101.495117188 -126.060546875 96.0498046875 -133.649414062 89.7802734375 -144.209960938 c 0
 83.5107421875 -154.770507812 77.2392578125 -163.185546875 70.9697265625 -169.455078125 c 0
 64.7001953125 -175.724609375 57.275390625 -178.860351562 48.6953125 -178.860351562 c 0
 39.455078125 -178.860351562 31.865234375 -175.065429688 25.9248046875 -167.474609375 c 0
 19.9853515625 -159.884765625 17.0146484375 -151.139648438 17.0146484375 -141.240234375 c 2
EndSplineSet
Validated: 1
AlternateSubs2: "'ss01' Style Set 1 lookup 0 subtable" uniE260.ss01
EndChar

StartChar: uniE261
Encoding: 57953 57953 181
Width: 192
Flags: W
VStem: 1 59<35.2727 92 174 391.367> 12 46<-97 92 174 184.727> 127 62<-373.435 -156 -74 17.6> 132 47<-201.6 -156 -74 115>
LayerCount: 2
Fore
SplineSet
1 384 m 1x80
 9.6669921875 389.333007812 20.3330078125 392 33 392 c 0
 45 392 55.3330078125 389.333007812 64 384 c 1
 60 174 l 1
 152 201 l 2
 153.333007812 201.666992188 155.333007812 202 158 202 c 0
 163.333007812 202 168.166992188 200 172.5 196 c 0
 176.833007812 192 179 187.333007812 179 182 c 2x90
 189 -366 l 1
 180.333007812 -371.333007812 170 -374 158 -374 c 0
 146 -374 135.666992188 -371.333007812 127 -366 c 1
 131 -156 l 1
 39 -183 l 2
 37.6669921875 -183.666992188 35.6669921875 -184 33 -184 c 0
 27.6669921875 -184 22.8330078125 -182 18.5 -178 c 0
 14.1669921875 -174 12 -169.333007812 12 -164 c 2x60
 1 384 l 1x80
132 -74 m 1
 136 115 l 1
 58 92 l 1x50
 55 -97 l 1
 132 -74 l 1
EndSplineSet
Validated: 1
AlternateSubs2: "'ss01' Style Set 1 lookup 0 subtable" uniE261.ss01
EndChar

StartChar: uniE262
Encoding: 57954 57954 182
Width: 254
Flags: W
VStem: 46.6543 47.0312<-335.683 -205.412 -76.3066 37.1201 165.304 296.496> 157.314 47.0312<-290.496 -159.304 -31.1201 82.3066 211.412 348.755>
LayerCount: 2
Fore
SplineSet
157.314453125 82.306640625 m 1
 93.685546875 56.486328125 l 1
 93.685546875 -76.306640625 l 1
 157.314453125 -50.486328125 l 1
 157.314453125 82.306640625 l 1
204.345703125 -31.1201171875 m 1
 210.494140625 -28.66015625 215.412109375 -27.4306640625 219.1015625 -27.4306640625 c 0
 227.70703125 -27.4306640625 235.393554688 -30.6591796875 242.155273438 -37.115234375 c 0
 248.916992188 -43.5703125 252.298828125 -51.4091796875 252.298828125 -60.6298828125 c 2
 252.298828125 -98.439453125 l 2
 252.298828125 -105.202148438 250.30078125 -111.350585938 246.305664062 -116.8828125 c 0
 242.309570312 -122.415039062 237.544921875 -126.412109375 232.010742188 -128.87109375 c 2
 204.345703125 -140.860351562 l 1
 204.345703125 -273.65234375 l 2
 204.345703125 -280.415039062 202.041015625 -286.102539062 197.4296875 -290.712890625 c 0
 192.818359375 -295.323242188 187.286132812 -297.629882812 180.831054688 -297.629882812 c 0
 174.375 -297.629882812 168.842773438 -295.169921875 164.23046875 -290.251953125 c 0
 159.620117188 -285.333007812 157.314453125 -279.801757812 157.314453125 -273.65234375 c 2
 157.314453125 -159.303710938 l 1
 93.685546875 -186.046875 l 1
 93.685546875 -319.76171875 l 2
 93.685546875 -325.909179688 91.2255859375 -331.2890625 86.3076171875 -335.899414062 c 0
 81.3896484375 -340.510742188 75.7021484375 -342.815429688 69.248046875 -342.815429688 c 0
 62.791015625 -342.815429688 57.412109375 -340.510742188 53.1103515625 -335.899414062 c 0
 48.8056640625 -331.2890625 46.654296875 -325.909179688 46.654296875 -319.76171875 c 2
 46.654296875 -205.412109375 l 1
 40.505859375 -207.87109375 35.587890625 -209.100585938 31.8984375 -209.100585938 c 0
 22.6767578125 -209.100585938 14.83984375 -205.873046875 8.3828125 -199.416992188 c 0
 1.9287109375 -192.962890625 -1.298828125 -185.124023438 -1.298828125 -175.901367188 c 2
 -1.298828125 -137.170898438 l 2
 -1.298828125 -130.408203125 0.5458984375 -124.260742188 4.234375 -118.727539062 c 0
 7.923828125 -113.194335938 12.83984375 -109.19921875 18.9892578125 -106.739257812 c 2
 46.654296875 -95.671875 l 1
 46.654296875 37.1201171875 l 1
 40.505859375 34.66015625 35.587890625 33.4306640625 31.8984375 33.4306640625 c 0
 22.6767578125 33.4306640625 14.83984375 36.6591796875 8.3828125 43.115234375 c 0
 1.9287109375 49.5703125 -1.298828125 57.4091796875 -1.298828125 66.6298828125 c 2
 -1.298828125 104.439453125 l 2
 -1.298828125 111.202148438 0.5458984375 117.350585938 4.234375 122.8828125 c 0
 7.923828125 128.415039062 12.83984375 132.412109375 18.9892578125 134.87109375 c 2
 46.654296875 146.860351562 l 1
 46.654296875 279.65234375 l 2
 46.654296875 286.415039062 48.8056640625 292.102539062 53.1103515625 296.712890625 c 0
 57.412109375 301.323242188 62.791015625 303.629882812 69.248046875 303.629882812 c 0
 75.7021484375 303.629882812 81.3896484375 301.169921875 86.3076171875 296.251953125 c 0
 91.2255859375 291.333007812 93.685546875 285.801757812 93.685546875 279.65234375 c 2
 93.685546875 165.303710938 l 1
 157.314453125 192.046875 l 1
 157.314453125 325.76171875 l 2
 157.314453125 331.909179688 159.620117188 337.2890625 164.23046875 341.899414062 c 0
 168.842773438 346.510742188 174.375 348.815429688 180.831054688 348.815429688 c 0
 187.286132812 348.815429688 192.818359375 346.510742188 197.4296875 341.899414062 c 0
 202.041015625 337.2890625 204.345703125 331.909179688 204.345703125 325.76171875 c 2
 204.345703125 211.412109375 l 1
 210.494140625 213.87109375 215.412109375 215.100585938 219.1015625 215.100585938 c 0
 227.70703125 215.100585938 235.393554688 211.873046875 242.155273438 205.416992188 c 0
 248.916992188 198.962890625 252.298828125 191.124023438 252.298828125 181.901367188 c 2
 252.298828125 143.170898438 l 2
 252.298828125 136.408203125 250.30078125 130.260742188 246.305664062 124.727539062 c 0
 242.309570312 119.194335938 237.544921875 115.19921875 232.010742188 112.739257812 c 2
 204.345703125 101.671875 l 1
 204.345703125 -31.1201171875 l 1
EndSplineSet
Validated: 1
AlternateSubs2: "'ss01' Style Set 1 lookup 0 subtable" uniE262.ss01
EndChar

StartChar: uniE263
Encoding: 57955 57955 183
Width: 291
Flags: W
HStem: -142 117<14.6723 89.875 198.125 273.328> 27 117<14.6723 89.875 198.125 273.328>
LayerCount: 2
Fore
SplineSet
178 1 m 5
 195.333007812 -16.3330078125 223 -25 261 -25 c 4
 265.666992188 -25 269.833007812 -26.6669921875 273.5 -30 c 4
 277.166992188 -33.3330078125 279 -37.6669921875 279 -43 c 6
 287 -124 l 6
 287.666992188 -128.666992188 286.333007812 -132.833007812 283 -136.5 c 4
 279.666992188 -140.166992188 275.666992188 -142 271 -142 c 6
 269 -142 l 5
 188 -134 l 6
 176 -132.666992188 170 -126.666992188 170 -116 c 4
 170 -78 161.333007812 -50.3330078125 144 -33 c 5
 126.666992188 -50.3330078125 118 -78 118 -116 c 4
 118 -126.666992188 112 -132.666992188 100 -134 c 6
 19 -142 l 5
 17 -142 l 6
 12.3330078125 -142 8.3330078125 -140.166992188 5 -136.5 c 4
 1.6669921875 -132.833007812 0.3330078125 -128.666992188 1 -124 c 6
 9 -43 l 6
 9 -37.6669921875 10.8330078125 -33.3330078125 14.5 -30 c 4
 18.1669921875 -26.6669921875 22.3330078125 -25 27 -25 c 4
 65 -25 92.6669921875 -16.3330078125 110 1 c 5
 92.6669921875 18.3330078125 65 27 27 27 c 4
 22.3330078125 27 18.1669921875 28.6669921875 14.5 32 c 4
 10.8330078125 35.3330078125 9 39.6669921875 9 45 c 6
 1 126 l 6
 0.3330078125 130.666992188 1.6669921875 134.833007812 5 138.5 c 4
 8.3330078125 142.166992188 12.3330078125 144 17 144 c 6
 19 144 l 5
 100 136 l 6
 112 134.666992188 118 128.666992188 118 118 c 4
 118 80 126.666992188 52.3330078125 144 35 c 5
 161.333007812 52.3330078125 170 80 170 118 c 4
 170 128.666992188 176 134.666992188 188 136 c 6
 269 144 l 5
 271 144 l 6
 275.666992188 144 279.666992188 142.166992188 283 138.5 c 4
 286.333007812 134.833007812 287.666992188 130.666992188 287 126 c 6
 279 45 l 6
 279 39.6669921875 277.166992188 35.3330078125 273.5 32 c 4
 269.833007812 28.6669921875 265.666992188 27 261 27 c 4
 223 27 195.333007812 18.3330078125 178 1 c 5
EndSplineSet
Validated: 1
EndChar

StartChar: uniE264
Encoding: 57956 57956 184
Width: 399
Flags: W
HStem: 88 54<80.0436 145.667 248.29 332>
VStem: 1 70<172.25 434.474> 17 41<-110.969 81.3593 96 99.75> 128 106<-51.3124 67.8883> 163 71<261 434.474> 172 52<132 327> 177 57<-104.97 -52> 315 83<-29.6116 84.6324>
LayerCount: 2
Fore
SplineSet
236 20 m 6x91
 234 -34 l 5
 234 -44 l 6
 234 -63.3330078125 235.666992188 -84 239 -106 c 5
 289.666992188 -56.6669921875 315 -12 315 28 c 4
 315 68 303 88 279 88 c 4
 265 88 254.5 81.5 247.5 68.5 c 4
 240.5 55.5 236.666992188 39.3330078125 236 20 c 6x91
180 -154 m 6
 177 -52 l 5
 168.333007812 -62 154.833007812 -76.1669921875 136.5 -94.5 c 4
 118.166992188 -112.833007812 105.666992188 -126 99 -134 c 4
 95 -138.666992188 90.5 -146.333007812 85.5 -157 c 4
 80.5 -167.666992188 75.3330078125 -176.166992188 70 -182.5 c 4
 64.6669921875 -188.833007812 57.6669921875 -192 49 -192 c 4
 39.6669921875 -192 32 -188.166992188 26 -180.5 c 4
 20 -172.833007812 17 -164 17 -154 c 6xa3
 1 426 l 5
 13 432.666992188 24.6669921875 436 36 436 c 4
 47.3330078125 436 59 432.666992188 71 426 c 5
 62 96 l 5
 78.6669921875 126.666992188 104 142 138 142 c 4
 153.333007812 142 164.666992188 138.666992188 172 132 c 5xc5
 163 426 l 5
 175 432.666992188 186.666992188 436 198 436 c 4
 210 436 222 432.666992188 234 426 c 5x89
 224 96 l 5x85
 247.333007812 126.666992188 279.333007812 142 320 142 c 4
 344 142 363 131.5 377 110.5 c 4
 391 89.5 398 64.6669921875 398 36 c 4
 398 18 393.333007812 0.5 384 -16.5 c 4
 374.666992188 -33.5 365.166992188 -46.8330078125 355.5 -56.5 c 4
 345.833007812 -66.1669921875 331 -79.6669921875 311 -97 c 4
 291 -114.333007812 277.333007812 -126.666992188 270 -134 c 4
 265.333007812 -138.666992188 259.833007812 -146.333007812 253.5 -157 c 4
 247.166992188 -167.666992188 240.666992188 -176.166992188 234 -182.5 c 4x83
 227.333007812 -188.833007812 219.666992188 -192 211 -192 c 4
 201.666992188 -192 194.166992188 -188.333007812 188.5 -181 c 4
 182.833007812 -173.666992188 180 -164.666992188 180 -154 c 6
60 20 m 6
 58 -34 l 5
 58 -46 l 6
 58 -68 60 -90 64 -112 c 5
 106.666992188 -63.3330078125 128 -16.6669921875 128 28 c 4xb1
 128 68 117.666992188 88 97 88 c 4
 73.6669921875 88 61.3330078125 65.3330078125 60 20 c 6
EndSplineSet
Validated: 1
AlternateSubs2: "'salt' Stylistic Alternatives lookup 5 subtable" uniE264.salt01
EndChar

StartChar: uniE26A
Encoding: 57962 57962 185
Width: 141
Flags: MW
HStem: -248 495<138 140.5>
VStem: 0 60<-50 48.5>
LayerCount: 2
Fore
SplineSet
141 230 m 2
 141 227 140 226 139 225 c 0
 83 174 60 110 60 0 c 0
 60 -111 82 -176 139 -227 c 0
 140 -228 141 -229 141 -231 c 2
 141 -246 l 2
 141 -247 139 -248 138 -248 c 0
 42 -187 0 -100 0 0 c 0
 0 97 42 195 140 247 c 0
 141 247 141 246 141 244 c 2
 141 230 l 2
EndSplineSet
Validated: 1
EndChar

StartChar: uniE26B
Encoding: 57963 57963 186
Width: 141
Flags: MW
HStem: -248 495<0.5 3>
VStem: 81 60<-50 48.5 -50 55>
LayerCount: 2
Fore
SplineSet
0 230 m 2
 0 244 l 2
 0 246 0 247 1 247 c 0
 99 195 141 97 141 0 c 0
 141 -100 99 -187 3 -248 c 0
 2 -248 0 -247 0 -246 c 2
 0 -231 l 2
 0 -229 1 -228 2 -227 c 0
 59 -176 81 -111 81 0 c 0
 81 110 58 174 2 225 c 0
 1 226 0 227 0 230 c 2
EndSplineSet
Validated: 1
EndChar

StartChar: uniE26C
Encoding: 57964 57964 187
Width: 77
Flags: MW
HStem: -250 21<32 75 32 75> 228 22<32 75 32 32>
VStem: 0 32<-229 228 -229 248 -229 248.5>
LayerCount: 2
Fore
SplineSet
75 -250 m 2
 2 -250 l 2
 1 -250 0 -249 0 -248 c 2
 0 248 l 2
 0 249 1 250 2 250 c 2
 75 250 l 2
 76 250 77 248 77 247 c 2
 77 231 l 2
 77 230 76 228 75 228 c 2
 32 228 l 1
 32 -229 l 1
 75 -229 l 2
 76 -229 77 -230 77 -232 c 2
 77 -247 l 2
 77 -248 76 -250 75 -250 c 2
EndSplineSet
Validated: 1
EndChar

StartChar: uniE26D
Encoding: 57965 57965 188
Width: 77
Flags: MW
HStem: -250 21<1.5 45 2 45 2 75> 228 22<1.5 75 2 45>
VStem: 45 32<-229 228 228 228>
LayerCount: 2
Fore
SplineSet
75 -250 m 2
 2 -250 l 2
 1 -250 0 -248 0 -247 c 2
 0 -232 l 2
 0 -230 1 -229 2 -229 c 2
 45 -229 l 1
 45 228 l 1
 2 228 l 2
 1 228 0 230 0 231 c 2
 0 247 l 2
 0 248 1 250 2 250 c 2
 75 250 l 2
 76 250 77 249 77 248 c 2
 77 -248 l 2
 77 -249 76 -250 75 -250 c 2
EndSplineSet
Validated: 1
EndChar

StartChar: uniE2B0
Encoding: 58032 58032 189
Width: 150
Flags: MW
HStem: -15 30<0 60 0 60 90 150>
VStem: 60 30<-75 -15 -75 -15 15 75>
LayerCount: 2
Fore
SplineSet
90 15 m 1
 150 15 l 1
 150 -15 l 1
 90 -15 l 1
 90 -75 l 1
 60 -75 l 1
 60 -15 l 1
 0 -15 l 1
 0 15 l 1
 60 15 l 1
 60 75 l 1
 90 75 l 1
 90 15 l 1
EndSplineSet
Validated: 1
EndChar

StartChar: uniE3F0
Encoding: 58352 58352 190
Width: 94
Flags: MW
HStem: -370 21G
VStem: 0 31<-359 78 -359 78>
LayerCount: 2
Fore
SplineSet
0 78 m 1
 16 172 l 1
 31 78 l 1
 31 -359 l 1
 0 -359 l 1
 0 78 l 1
EndSplineSet
Validated: 1
EndChar

StartChar: uniE3F1
Encoding: 58353 58353 191
Width: 94
Flags: MW
HStem: 339 20G<0 31 31 31>
VStem: 0 31<-78 359 -78 359>
LayerCount: 2
Fore
SplineSet
0 -78 m 1
 0 359 l 1
 31 359 l 1
 31 -78 l 1
 16 -172 l 1
 0 -78 l 1
EndSplineSet
Validated: 1
EndChar

StartChar: uniE3F2
Encoding: 58354 58354 192
Width: 187
Flags: MW
HStem: -62 187<0 125>
VStem: 0 125<-62 125 0 125>
LayerCount: 2
Fore
SplineSet
0 0 m 1
 125 125 l 1
 125 63 l 1
 0 -62 l 1
 0 0 l 1
EndSplineSet
Validated: 1
EndChar

StartChar: uniE3F3
Encoding: 58355 58355 193
Width: 187
Flags: MW
HStem: 0 21G<0 0>
VStem: 0 125<-125 62>
LayerCount: 2
Fore
SplineSet
0 0 m 1
 0 62 l 1
 125 -63 l 1
 125 -125 l 1
 0 0 l 1
EndSplineSet
Validated: 1
EndChar

StartChar: uniE425
Encoding: 58405 58405 194
Width: 250
Flags: MW
HStem: -348 698<59.5 188>
VStem: 50 30<-337 -214 -214 -211.5 171 175 175 295> 168 30<-293 -168 -168 -165 213 217 217 339> 237 12
LayerCount: 2
Fore
SplineSet
168 -45 m 0
 170 -36 172 -8 172 19 c 0
 172 46 170 71 168 76 c 0
 166 80 160 82 153 82 c 0
 128 82 82 61 80 44 c 0
 78 36 77 1 77 -30 c 0
 77 -54 78 -76 80 -80 c 0
 81 -83 86 -85 92 -85 c 0
 115 -85 162 -65 168 -45 c 0
237 118 m 2
 211 108 l 2
 203 105 198 86 198 79 c 2
 198 -14 l 2
 198 -26 205 -32 211 -32 c 2
 237 -22 l 2
 239 -21 240 -21 242 -21 c 0
 246 -21 249 -24 249 -29 c 2
 249 -100 l 2
 249 -106 244 -114 237 -117 c 2
 237 -117 216 -125 209 -128 c 0
 202 -131 198 -143 198 -151 c 2
 198 -293 l 2
 198 -299 192 -304 181 -304 c 0
 174 -304 168 -299 168 -293 c 2
 168 -168 l 2
 168 -162 163 -150 155 -150 c 0
 154 -150 152 -151 151 -151 c 2
 90 -176 l 2
 85 -178 80 -185 80 -198 c 2
 80 -337 l 2
 80 -343 73 -348 63 -348 c 0
 56 -348 50 -343 50 -337 c 2
 50 -214 l 2
 50 -209 45 -198 38 -198 c 0
 37 -198 36 -198 35 -199 c 0
 26 -202 12 -208 12 -208 c 2
 11 -208 9 -209 8 -209 c 0
 3 -209 0 -206 0 -200 c 2
 0 -129 l 2
 0 -123 5 -115 12 -113 c 2
 12 -113 33 -104 39 -102 c 0
 45 -99 50 -90 50 -79 c 2
 50 20 l 2
 50 28 44 38 37 38 c 0
 36 38 35 37 34 37 c 0
 27 33 12 27 12 27 c 2
 11 27 9 26 8 26 c 0
 3 26 0 29 0 35 c 2
 0 106 l 2
 0 112 5 120 12 122 c 2
 12 122 32 130 38 133 c 0
 44 136 50 146 50 160 c 2
 50 295 l 2
 50 301 56 306 66 306 c 0
 73 306 80 301 80 295 c 2
 80 175 l 2
 80 167 83 155 92 155 c 0
 109 159 143 173 155 180 c 0
 164 186 167 199 168 209 c 2
 168 339 l 2
 168 345 174 350 184 350 c 0
 192 350 198 345 198 339 c 2
 198 217 l 2
 198 209 205 204 212 204 c 0
 217 205 237 213 237 213 c 2
 239 214 240 214 242 214 c 0
 246 214 249 211 249 206 c 2
 249 135 l 2
 249 129 244 121 237 118 c 2
EndSplineSet
Validated: 1
EndChar

StartChar: uniE430
Encoding: 58416 58416 195
Width: 227
Flags: MW
HStem: 100 53<112 136>
VStem: 0 50<411 427.5> 157 69<34 51.5>
LayerCount: 2
Fore
SplineSet
47 -81 m 2
 47 -86 49 -96 58 -96 c 0
 61 -96 64 -95 68 -93 c 0
 98 -74 127 -42 140 -18 c 0
 152 3 157 24 157 42 c 0
 157 61 151 78 141 89 c 0
 135 96 126 100 116 100 c 0
 108 100 99 98 90 93 c 0
 76 85 50 63 46 51 c 0
 45 47 44 35 44 19 c 0
 44 -21 47 -81 47 -81 c 2
12 -170 m 0
 4 -160 0 411 0 411 c 2
 1 429 17 439 31 439 c 0
 41 439 50 433 50 422 c 0
 50 402 44 162 43 140 c 0
 43 133 47 126 54 123 c 0
 56 122 57 122 59 122 c 0
 64 122 75 131 81 136 c 0
 92 143 104 147 115 150 c 0
 122 152 129 153 136 153 c 0
 182 150 226 114 226 57 c 0
 226 11 195 -50 106 -112 c 0
 81 -129 57 -156 27 -173 c 1
 27 -173 24 -175 21 -175 c 0
 18 -175 15 -174 12 -170 c 0
EndSplineSet
Validated: 1
EndChar

StartChar: uniE441
Encoding: 58433 58433 196
Width: 227
Flags: MW
HStem: 100 53<112 136>
VStem: 0 50<411 427.5> 157 69<34 51.5>
LayerCount: 2
Fore
SplineSet
47 -81 m 2
 47 -86 49 -96 58 -96 c 0
 61 -96 64 -95 68 -93 c 0
 98 -74 127 -42 140 -18 c 0
 152 3 157 24 157 42 c 0
 157 61 151 78 141 89 c 0
 135 96 126 100 116 100 c 0
 108 100 99 98 90 93 c 0
 76 85 50 63 46 51 c 0
 45 47 44 35 44 19 c 0
 44 -21 47 -81 47 -81 c 2
12 -170 m 0
 4 -160 0 411 0 411 c 2
 1 429 17 439 31 439 c 0
 41 439 50 433 50 422 c 0
 50 402 44 162 43 140 c 0
 43 133 47 126 54 123 c 0
 56 122 57 122 59 122 c 0
 64 122 75 131 81 136 c 0
 92 143 104 147 115 150 c 0
 122 152 129 153 136 153 c 0
 182 150 226 114 226 57 c 0
 226 11 195 -50 106 -112 c 0
 81 -129 57 -156 27 -173 c 1
 27 -173 24 -175 21 -175 c 0
 18 -175 15 -174 12 -170 c 0
EndSplineSet
Validated: 1
EndChar

StartChar: uniE445
Encoding: 58437 58437 197
Width: 250
Flags: MW
HStem: -348 698<59.5 188>
VStem: 50 30<-337 -214 -214 -211.5 171 175 175 295> 168 30<-293 -168 -168 -165 213 217 217 339> 237 12
LayerCount: 2
Fore
SplineSet
168 -45 m 0
 170 -36 172 -8 172 19 c 0
 172 46 170 71 168 76 c 0
 166 80 160 82 153 82 c 0
 128 82 82 61 80 44 c 0
 78 36 77 1 77 -30 c 0
 77 -54 78 -76 80 -80 c 0
 81 -83 86 -85 92 -85 c 0
 115 -85 162 -65 168 -45 c 0
237 118 m 2
 211 108 l 2
 203 105 198 86 198 79 c 2
 198 -14 l 2
 198 -26 205 -32 211 -32 c 2
 237 -22 l 2
 239 -21 240 -21 242 -21 c 0
 246 -21 249 -24 249 -29 c 2
 249 -100 l 2
 249 -106 244 -114 237 -117 c 2
 237 -117 216 -125 209 -128 c 0
 202 -131 198 -143 198 -151 c 2
 198 -293 l 2
 198 -299 192 -304 181 -304 c 0
 174 -304 168 -299 168 -293 c 2
 168 -168 l 2
 168 -162 163 -150 155 -150 c 0
 154 -150 152 -151 151 -151 c 2
 90 -176 l 2
 85 -178 80 -185 80 -198 c 2
 80 -337 l 2
 80 -343 73 -348 63 -348 c 0
 56 -348 50 -343 50 -337 c 2
 50 -214 l 2
 50 -209 45 -198 38 -198 c 0
 37 -198 36 -198 35 -199 c 0
 26 -202 12 -208 12 -208 c 2
 11 -208 9 -209 8 -209 c 0
 3 -209 0 -206 0 -200 c 2
 0 -129 l 2
 0 -123 5 -115 12 -113 c 2
 12 -113 33 -104 39 -102 c 0
 45 -99 50 -90 50 -79 c 2
 50 20 l 2
 50 28 44 38 37 38 c 0
 36 38 35 37 34 37 c 0
 27 33 12 27 12 27 c 2
 11 27 9 26 8 26 c 0
 3 26 0 29 0 35 c 2
 0 106 l 2
 0 112 5 120 12 122 c 2
 12 122 32 130 38 133 c 0
 44 136 50 146 50 160 c 2
 50 295 l 2
 50 301 56 306 66 306 c 0
 73 306 80 301 80 295 c 2
 80 175 l 2
 80 167 83 155 92 155 c 0
 109 159 143 173 155 180 c 0
 164 186 167 199 168 209 c 2
 168 339 l 2
 168 345 174 350 184 350 c 0
 192 350 198 345 198 339 c 2
 198 217 l 2
 198 209 205 204 212 204 c 0
 217 205 237 213 237 213 c 2
 239 214 240 214 242 214 c 0
 246 214 249 211 249 206 c 2
 249 135 l 2
 249 129 244 121 237 118 c 2
EndSplineSet
Validated: 1
EndChar

StartChar: uniE4A2
Encoding: 58530 58530 198
Width: 84
Flags: MW
HStem: 0 84<30.5 53.5>
VStem: 0 84<30.5 53.5>
LayerCount: 2
Fore
SplineSet
84 42 m 0
 84 19 65 0 42 0 c 0
 19 0 0 19 0 42 c 0
 0 65 19 84 42 84 c 0
 65 84 84 65 84 42 c 0
EndSplineSet
Validated: 1
AlternateSubs2: "'ss01' Style Set 1 lookup 0 subtable" uniE4A2.ss01
EndChar

StartChar: uniE4A3
Encoding: 58531 58531 199
Width: 122
Flags: MW
HStem: -84 84<30.5 53.5>
VStem: 0 84<-53.5 -30.5>
LayerCount: 2
Fore
SplineSet
84 -42 m 0
 84 -65 65 -84 42 -84 c 0
 19 -84 0 -65 0 -42 c 0
 0 -19 19 0 42 0 c 0
 65 0 84 -19 84 -42 c 0
EndSplineSet
Validated: 1
AlternateSubs2: "'ss01' Style Set 1 lookup 0 subtable" uniE4A3.ss01
EndChar

StartChar: uniE4E0
Encoding: 58592 58592 200
Width: 381
Flags: MW
HStem: -249 499<11.5 108 16 108 16 272 272 364>
VStem: 0 125<-229 230> 256 125<-229 230>
LayerCount: 2
Fore
SplineSet
125 -229 m 2
 125 -246 118 -249 108 -249 c 2
 16 -249 l 2
 7 -249 0 -246 0 -229 c 2
 0 230 l 2
 0 247 7 250 16 250 c 2
 108 250 l 2
 118 250 125 247 125 230 c 2
 125 -229 l 2
381 -229 m 2xa0
 381 -246 374 -249 364 -249 c 2
 272 -249 l 2
 263 -249 256 -246 256 -229 c 2
 256 230 l 2
 256 247 263 250 272 250 c 2
 364 250 l 2
 374 250 381 247 381 230 c 2
 381 -229 l 2xa0
EndSplineSet
Validated: 1
EndChar

StartChar: uniE4E1
Encoding: 58593 58593 201
Width: 125
Flags: MW
HStem: -249 499<11.5 108 16 108>
VStem: 0 125<-229 230>
LayerCount: 2
Fore
SplineSet
125 -229 m 2
 125 -246 118 -249 108 -249 c 2
 16 -249 l 2
 7 -249 0 -246 0 -229 c 2
 0 230 l 2
 0 247 7 250 16 250 c 2
 108 250 l 2
 118 250 125 247 125 230 c 2
 125 -229 l 2
EndSplineSet
Validated: 1
EndChar

StartChar: uniE4E2
Encoding: 58594 58594 202
Width: 126
Flags: MW
HStem: 0 21G<11.5 16 16 108> 0 250<11.5 108 16 108>
VStem: 0 125<15 235>
LayerCount: 2
Fore
SplineSet
125 15 m 2xa0
 125 7 118 0 108 0 c 2
 16 0 l 2
 7 0 0 7 0 15 c 2
 0 235 l 2
 0 243 7 250 16 250 c 2
 108 250 l 2
 118 250 125 243 125 235 c 2x60
 125 15 l 2xa0
EndSplineSet
Validated: 1
EndChar

StartChar: uniE4E3
Encoding: 58595 58595 203
Width: 283
Flags: MW
HStem: -135 144<18.5 256 26 256>
VStem: 0 282<-109 -17 -116 -9.5>
LayerCount: 2
Fore
SplineSet
282 -109 m 2
 282 -123 270 -135 256 -135 c 2
 26 -135 l 2
 11 -135 0 -123 0 -109 c 2
 0 -17 l 2
 0 -2 11 9 26 9 c 2
 256 9 l 2
 270 9 282 -2 282 -17 c 2
 282 -109 l 2
EndSplineSet
Validated: 1
EndChar

StartChar: uniE4E4
Encoding: 58596 58596 204
Width: 283
Flags: MW
HStem: -2 144<18.5 256 26 256>
VStem: 0 282<24 116 17 123.5>
LayerCount: 2
Fore
SplineSet
282 24 m 2
 282 10 270 -2 256 -2 c 2
 26 -2 l 2
 11 -2 0 10 0 24 c 2
 0 116 l 2
 0 131 11 142 26 142 c 2
 256 142 l 2
 270 142 282 131 282 116 c 2
 282 24 l 2
EndSplineSet
Validated: 1
EndChar

StartChar: uniE4E5
Encoding: 58597 58597 205
Width: 270
Flags: MW
HStem: -375 37<139 144 137.5 146.5>
VStem: 1 113<-280.5 -184.5> 1 269<-219.5 -212 -219.5 -184.5>
LayerCount: 2
Fore
SplineSet
78 -38 m 2xa0
 29 22 l 1
 29 22 19 32 19 46 c 0
 19 54 23 65 33 75 c 0
 78 122 93 165 93 202 c 0
 93 274 36 325 32 336 c 0
 29 342 28 347 28 352 c 0
 28 366 38 373 48 373 c 0
 54 373 61 370 66 365 c 0
 83 348 231 172 231 172 c 1
 231 172 235 163 235 153 c 0
 235 148 234 143 231 138 c 0
 205 97 169 49 165 -9 c 0
 165 -13 164 -18 164 -22 c 0
 164 -78 195 -115 233 -161 c 0
 244 -173 270 -206 270 -218 c 0
 270 -221 268 -222 265 -222 c 0
 263 -222 261 -222 258 -221 c 0
 257 -221 256 -220 255 -220 c 0
 239 -214 206 -203 177 -203 c 0
 171 -203 166 -203 161 -204 c 0
 129 -210 114 -245 114 -276 c 0
 114 -285 115 -294 118 -302 c 0
 120 -311 131 -338 144 -338 c 1
 152 -345 160 -353 160 -362 c 0
 160 -364 159 -366 158 -369 c 0
 157 -373 150 -375 143 -375 c 0
 135 -375 125 -372 117 -366 c 0
 44 -310 1 -261 1 -211 c 0
 1 -158 40 -115 83 -115 c 0
 88 -115 94 -118 99 -118 c 0xc0
 103 -119 111 -121 115 -121 c 0
 120 -121 124 -120 126 -116 c 0
 127 -115 127 -113 127 -112 c 0
 127 -110 123 -102 121 -98 c 0
 108 -77 94 -58 78 -38 c 2xa0
EndSplineSet
Validated: 1
EndChar

StartChar: uniE4E6
Encoding: 58598 58598 206
Width: 250
Flags: MW
HStem: -251 425<48.5 106.5> 39 135<76.5 85.5 48.5 88> 62 35<134 163>
VStem: 0 134<97 107 97 125.5>
LayerCount: 2
Fore
SplineSet
134 107 m 2x50
 134 97 l 1
 167 97 217 157 224 163 c 0
 230 167 233 167 235 167 c 0
 237 166 247 161 247 151 c 0
 246 146 241 130 237 112 c 2
 237 112 139 -239 136 -241 c 0
 126 -249 112 -251 101 -251 c 0
 95 -251 72 -250 72 -238 c 0
 90 -172 162 27 165 42 c 0
 166 46 166 50 166 53 c 0
 166 58 165 62 161 62 c 0
 160 62 158 62 156 61 c 0x30
 143 54 134 50 120 46 c 0
 109 42 95 39 81 39 c 0
 72 39 63 41 55 43 c 0
 45 45 36 50 27 56 c 0
 12 68 0 86 0 107 c 0
 0 144 30 174 67 174 c 0
 104 174 134 144 134 107 c 2x50
EndSplineSet
Validated: 1
EndChar

StartChar: uniE4E7
Encoding: 58599 58599 207
Width: 320
Flags: MW
HStem: -209 136<75.5 86.5 49 87> 43 136<147.5 159> 67 34<208 238.5>
VStem: 0 136<-142.5 -122 -142.5 -122> 72 136<101 111 101 130>
LayerCount: 2
Fore
SplineSet
208 111 m 2xc8
 208 101 l 1xa8
 242 102 292 162 299 168 c 0
 302 170 305 172 310 172 c 0
 312 171 320 167 320 161 c 0
 320 160 319 159 319 157 c 0
 317 144 292 56 292 56 c 1
 292 56 273 -11 247 -96 c 2
 131 -477 l 2
 127 -488 122 -500 93 -500 c 0
 71 -500 62 -490 62 -482 c 0
 62 -481 63 -480 63 -479 c 2
 158 -196 l 2
 158 -195 159 -194 159 -193 c 0
 159 -190 157 -188 155 -188 c 0
 142 -195 136 -198 122 -202 c 0
 110 -206 94 -209 80 -209 c 0
 71 -209 63 -208 55 -206 c 0
 45 -203 36 -198 28 -192 c 0
 12 -180 0 -161 0 -141 c 0
 0 -103 30 -73 68 -73 c 0
 105 -73 136 -103 136 -141 c 0
 136 -144 136 -147 135 -151 c 1
 149 -151 176 -139 184 -120 c 0xb0
 193 -101 237 37 239 45 c 0
 241 52 242 57 242 60 c 0
 242 65 240 67 237 67 c 0
 235 67 233 66 230 65 c 0xa8
 217 58 208 54 194 50 c 0
 182 46 166 43 152 43 c 0
 143 43 135 44 128 46 c 0
 118 49 108 54 100 60 c 0
 84 72 72 91 72 111 c 0
 72 149 103 179 140 179 c 0
 178 179 208 149 208 111 c 2xc8
EndSplineSet
Validated: 1
EndChar

StartChar: uniE4E8
Encoding: 58600 58600 208
Width: 363
Flags: MW
HStem: -500 926<111.5 202> -209 136<75.5 87> 38 136<136 145.5 108 148> 290 136<192 202 164.5 204> 313 36<251 280.5>
VStem: 0 136<-142.5 -122 -142.5 -122> 0 363 59 136<104.5 125 104.5 125> 115 136<349 358 349 377>
LayerCount: 2
Fore
SplineSet
353 419 m 0x82
 355 419 363 417 363 408 c 0
 363 407 362 406 362 404 c 0
 360 392 336 303 336 303 c 1
 336 303 164 -467 161 -479 c 0
 157 -490 154 -500 122 -500 c 0
 101 -500 95 -492 95 -484 c 0
 95 -482 95 -480 96 -478 c 0
 98 -471 167 -196 167 -192 c 0
 167 -189 164 -186 161 -186 c 0
 160 -186 159 -186 158 -187 c 0
 145 -194 136 -198 122 -202 c 0
 110 -206 94 -209 80 -209 c 0
 71 -209 63 -208 56 -206 c 0
 46 -203 36 -198 28 -192 c 0
 12 -180 0 -161 0 -141 c 0
 0 -103 31 -73 68 -73 c 0
 106 -73 136 -103 136 -141 c 0
 136 -144 136 -147 135 -151 c 1
 150 -150 181 -137 186 -116 c 2
 226 48 l 2
 226 53 224 61 219 61 c 0
 218 61 217 61 216 60 c 0
 203 53 195 50 181 45 c 0
 170 41 155 38 141 38 c 0
 131 38 122 40 114 42 c 0x29
 104 45 95 49 87 56 c 0
 71 68 59 86 59 106 c 0
 59 144 89 174 127 174 c 0
 164 174 195 144 195 106 c 0
 195 103 195 100 194 97 c 1
 210 97 243 117 248 133 c 2
 287 293 l 2
 287 294 288 296 288 297 c 0
 288 303 284 313 277 313 c 0
 276 313 274 313 273 312 c 0x11
 260 305 252 302 238 297 c 0
 226 293 211 290 197 290 c 0
 187 290 179 292 171 294 c 0x1080
 161 297 151 301 143 308 c 0
 127 320 115 338 115 358 c 0
 115 396 146 426 183 426 c 0x0880
 221 426 251 396 251 358 c 2
 251 349 l 1
 285 349 335 410 342 415 c 0
 345 417 348 419 353 419 c 0x82
EndSplineSet
Validated: 1
EndChar

StartChar: uniE4F0
Encoding: 58608 58608 209
Width: 328
Flags: MW
HStem: -104 200<-8.5 329 -1 329>
VStem: -27 382<-78 70 -85 77.5>
LayerCount: 2
Fore
SplineSet
355 -78 m 2
 355 -92 343 -104 329 -104 c 2
 -1 -104 l 2
 -16 -104 -27 -92 -27 -78 c 2
 -27 70 l 2
 -27 85 -16 96 -1 96 c 2
 329 96 l 2
 343 96 355 85 355 70 c 2
 355 -78 l 2
EndSplineSet
Validated: 1
EndChar

StartChar: uniE4F4
Encoding: 58612 58612 210
Width: 282
Flags: MW
HStem: -16 36<-104 381 -99 0 331.5 381 381 386>
VStem: -117 516<-3 7> 0 282<-109 -17 -116 -16 -116 -16>
LayerCount: 2
Fore
SplineSet
-99 20 m 2xc0
 381 20 l 2
 391 20 399 12 399 2 c 0
 399 -8 391 -16 381 -16 c 0
 282 -16 282 -16 282 -17 c 2
 282 -109 l 2
 282 -123 270 -135 256 -135 c 2
 26 -135 l 2
 11 -135 0 -123 0 -109 c 2
 0 -16 l 1
 -99 -16 l 2xa0
 -109 -16 -117 -8 -117 2 c 0
 -117 12 -109 20 -99 20 c 2xc0
EndSplineSet
Validated: 1
EndChar

StartChar: uniE4F5
Encoding: 58613 58613 211
Width: 282
Flags: MW
HStem: -13 36<-104 0 -99 0 331.5 381>
VStem: -117 516<0 10> 0 282<23.5 24 24 116 23.5 123>
LayerCount: 2
Fore
SplineSet
381 -13 m 2xc0
 -99 -13 l 2
 -109 -13 -117 -5 -117 5 c 0
 -117 15 -109 23 -99 23 c 2
 0 23 l 1
 0 116 l 2
 0 130 11 142 26 142 c 2
 256 142 l 2
 270 142 282 130 282 116 c 2
 282 24 l 2
 282 23 282 23 381 23 c 0xa0
 391 23 399 15 399 5 c 0
 399 -5 391 -13 381 -13 c 2xc0
EndSplineSet
Validated: 1
EndChar

StartChar: uniE510
Encoding: 58640 58640 212
Width: 386
Flags: MW
HStem: -10 30<127.5 181.5 127.5 204.5> 433 30<223.5 270>
VStem: 0 78<79 112.5 79 132> 75 95<348.5 370.5> 243 95<86.5 115> 310 76<351.5 384.5>
LayerCount: 2
Fore
SplineSet
248 463 m 0xe4
 346 463 386 416 386 359 c 0
 386 322 365 281 311 253 c 0
 299 247 294 243 294 238 c 0xe4
 294 233 299 228 306 220 c 0
 329 195 338 169 338 132 c 0
 338 41 253 -10 156 -10 c 0
 48 -10 0 42 0 108 c 0
 0 156 25 200 89 226 c 0xe8
 102 232 107 235 107 240 c 0
 107 244 104 249 99 255 c 0
 83 274 75 299 75 328 c 0xd4
 75 413 146 463 248 463 c 0xe4
134 200 m 0
 92 174 78 128 78 97 c 0
 78 61 97 20 158 20 c 0
 205 20 243 49 243 100 c 0
 243 130 227 144 163 194 c 0xe8
 155 201 149 204 144 204 c 0
 141 204 138 202 134 200 c 0
246 433 m 0xd4
 201 433 170 407 170 363 c 0
 170 334 185 316 232 281 c 0
 240 275 245 273 250 273 c 0
 254 273 258 274 262 277 c 0
 295 300 310 335 310 368 c 0
 310 401 294 433 246 433 c 0xd4
EndSplineSet
Validated: 1
EndChar

StartChar: uniE511
Encoding: 58641 58641 213
Width: 885
Flags: MW
HStem: -10 30<127.5 181.5 127.5 204.5> 216 29<508 535 508 537.5> 419 32<467.5 476> 423 30<746.5 772 731.5 776> 433 30<223.5 270>
VStem: 0 78<79 112.5 79 132> 75 95<348.5 370.5> 243 95<86.5 115> 310 76<351.5 384.5> 439 51<265 291 265 300.5> 482 46<391.5 412> 592 33<340.5 357.5> 643 49<272 308 272 335>
LayerCount: 2
Fore
SplineSet
768 423 m 0xccd0
 725 423 692 332 692 284 c 0
 692 260 700 246 714 246 c 0
 747 246 790 348 790 392 c 0x0a
 790 408 784 423 768 423 c 0xccd0
863 435 m 2
 812 273 l 2
 810 268 809 262 809 258 c 0
 809 250 812 245 820 245 c 0
 838 245 853 282 863 307 c 0
 865 312 868 316 874 316 c 0
 879 316 885 313 885 306 c 0xd508
 885 300 880 293 880 288 c 0
 872 269 851 217 812 217 c 0
 790 217 779 228 775 245 c 0
 773 254 772 260 769 260 c 0
 764 260 759 250 758 249 c 0
 744 229 725 216 703 216 c 0
 675 216 643 239 643 297 c 0x0a80
 643 373 700 453 763 453 c 0xccd0
 781 453 792 447 800 434 c 0
 804 428 807 423 809 423 c 0
 812 423 813 427 816 439 c 0x0880
 818 447 821 451 830 451 c 2
 854 451 l 2
 862 451 865 449 865 444 c 0
 865 442 864 439 863 435 c 2
486 451 m 0
 512 451 528 428 528 399 c 0
 528 351 490 310 490 272 c 0
 490 258 498 245 518 245 c 0
 552 245 592 304 592 349 c 0
 592 366 585 374 574 382 c 0
 564 389 553 399 553 414 c 0
 553 432 567 449 586 449 c 0
 611 449 625 421 625 389 c 0
 625 292 569 216 506 216 c 0
 470 216 439 237 439 276 c 0
 439 325 482 374 482 409 c 0
 482 415 479 419 473 419 c 0
 456 419 441 382 433 356 c 0
 431 350 427 347 422 347 c 0
 417 347 411 350 411 357 c 0
 411 361 412 366 415 374 c 0
 429 413 449 451 486 451 c 0
246 433 m 0
 201 433 170 407 170 363 c 0
 170 334 185 316 232 281 c 0
 240 275 245 273 250 273 c 0
 254 273 258 274 262 277 c 0
 295 300 310 335 310 368 c 0
 310 401 294 433 246 433 c 0
134 200 m 0
 92 174 78 128 78 97 c 0
 78 61 97 20 158 20 c 0
 205 20 243 49 243 100 c 0
 243 130 227 144 163 194 c 0x2020
 155 201 149 204 144 204 c 0
 141 204 138 202 134 200 c 0
248 463 m 0
 346 463 386 416 386 359 c 0
 386 322 365 281 311 253 c 0
 299 247 294 243 294 238 c 0
 294 233 299 228 306 220 c 0
 329 195 338 169 338 132 c 0
 338 41 253 -10 156 -10 c 0
 48 -10 0 42 0 108 c 0
 0 156 25 200 89 226 c 0
 102 232 107 235 107 240 c 0x4050
 107 244 104 249 99 255 c 0
 83 274 75 299 75 328 c 0
 75 413 146 463 248 463 c 0
EndSplineSet
Validated: 1
EndChar

StartChar: uniE512
Encoding: 58642 58642 214
Width: 839
Flags: MW
HStem: -10 30<127.5 181.5 127.5 204.5 661 668> 193 32<421.5 430> 197 30<700.5 726 685.5 730> 433 30<223.5 270>
VStem: 0 78<79 112.5 79 132> 75 95<348.5 370.5> 243 95<86.5 115> 310 76<351.5 384.5> 393 51<39 65 39 74.5> 436 46<165.5 186> 546 33<114.5 131.5> 597 49<46 82 46 109>
LayerCount: 2
Fore
SplineSet
722 197 m 0x15
 679 197 646 106 646 58 c 0
 646 34 654 20 668 20 c 0
 701 20 744 122 744 166 c 0
 744 182 738 197 722 197 c 0x15
817 209 m 2
 766 47 l 2
 764 42 763 36 763 32 c 0
 763 24 766 19 774 19 c 0
 792 19 807 56 817 81 c 0
 819 86 822 90 828 90 c 0
 833 90 839 87 839 80 c 0xaa10
 839 74 834 67 834 62 c 0
 826 43 805 -9 766 -9 c 0
 744 -9 733 2 729 19 c 0
 727 28 726 34 723 34 c 0
 718 34 713 24 712 23 c 0
 698 3 679 -10 657 -10 c 0
 629 -10 597 13 597 71 c 0
 597 147 654 227 717 227 c 0x15
 735 227 746 221 754 208 c 0
 758 202 761 197 763 197 c 0
 766 197 767 201 770 213 c 0x11
 772 221 775 225 784 225 c 2
 808 225 l 2
 816 225 819 223 819 218 c 0
 819 216 818 213 817 209 c 2
440 225 m 0
 466 225 482 202 482 173 c 0
 482 125 444 84 444 46 c 0
 444 32 452 19 472 19 c 0
 506 19 546 78 546 123 c 0
 546 140 539 148 528 156 c 0
 518 163 507 173 507 188 c 0
 507 206 521 223 540 223 c 0
 565 223 579 195 579 163 c 0
 579 66 523 -10 460 -10 c 0
 424 -10 393 11 393 50 c 0
 393 99 436 148 436 183 c 0
 436 189 433 193 427 193 c 0
 410 193 395 156 387 130 c 0
 385 124 381 121 376 121 c 0
 371 121 365 124 365 131 c 0
 365 135 366 140 369 148 c 0
 383 187 403 225 440 225 c 0
246 433 m 0
 201 433 170 407 170 363 c 0
 170 334 185 316 232 281 c 0
 240 275 245 273 250 273 c 0
 254 273 258 274 262 277 c 0
 295 300 310 335 310 368 c 0
 310 401 294 433 246 433 c 0
134 200 m 0
 92 174 78 128 78 97 c 0
 78 61 97 20 158 20 c 0
 205 20 243 49 243 100 c 0
 243 130 227 144 163 194 c 0x4040
 155 201 149 204 144 204 c 0
 141 204 138 202 134 200 c 0
248 463 m 0
 346 463 386 416 386 359 c 0
 386 322 365 281 311 253 c 0
 299 247 294 243 294 238 c 0
 294 233 299 228 306 220 c 0
 329 195 338 169 338 132 c 0
 338 41 253 -10 156 -10 c 0
 48 -10 0 42 0 108 c 0
 0 156 25 200 89 226 c 0
 102 232 107 235 107 240 c 0x80a0
 107 244 104 249 99 255 c 0
 83 274 75 299 75 328 c 0
 75 413 146 463 248 463 c 0
EndSplineSet
Validated: 1
EndChar

StartChar: uniE513
Encoding: 58643 58643 215
Width: 875
Flags: MW
HStem: -10 25<476.5 507.5 476.5 520.5> -10 30<127.5 181.5 127.5 204.5 697 704> 197 30<736.5 762 721.5 766> 309 29 433 30<223.5 270>
VStem: 0 78<79 112.5 79 132> 75 95<348.5 370.5> 243 95<86.5 115> 310 76<351.5 384.5> 416 45<39.5 70.5> 565 50<145 174.5> 633 49<46 82 46 109>
LayerCount: 2
Fore
SplineSet
758 197 m 0x0a80
 715 197 682 106 682 58 c 0
 682 34 690 20 704 20 c 0
 737 20 780 122 780 166 c 0
 780 182 774 197 758 197 c 0x0a80
853 209 m 2
 802 47 l 2
 800 42 799 36 799 32 c 0
 799 24 802 19 810 19 c 0
 828 19 843 56 853 81 c 0
 855 86 858 90 864 90 c 0
 869 90 875 87 875 80 c 0x6510
 875 74 870 67 870 62 c 0
 862 43 841 -9 802 -9 c 0
 780 -9 769 2 765 19 c 0
 763 28 762 34 759 34 c 0
 754 34 749 24 748 23 c 0
 734 3 715 -10 693 -10 c 0
 665 -10 633 13 633 71 c 0
 633 147 690 227 753 227 c 0x0a80
 771 227 782 221 790 208 c 0
 794 202 797 197 799 197 c 0
 802 197 803 201 806 213 c 0x0880
 808 221 811 225 820 225 c 2
 844 225 l 2
 852 225 855 223 855 218 c 0
 855 216 854 213 853 209 c 2
542 199 m 0
 497 199 461 103 461 46 c 0
 461 27 469 15 484 15 c 0
 531 15 565 125 565 165 c 0
 565 184 560 199 542 199 c 0
444 333 m 2
 521 338 l 2
 529 338 533 334 533 328 c 0
 533 325 532 322 531 319 c 2
 506 236 l 2
 500 215 497 210 497 205 c 0
 497 203 498 202 500 202 c 0
 505 202 513 212 528 219 c 0
 537 223 546 225 556 225 c 0
 595 225 615 193 615 158 c 0
 615 68 556 -10 485 -10 c 0
 444 -10 416 18 416 61 c 0
 416 80 419 96 423 110 c 2
 473 293 l 2
 474 297 475 301 475 303 c 0
 475 308 471 309 462 309 c 2
 443 309 l 2
 429 309 428 316 428 320 c 0
 428 324 429 332 444 333 c 2
246 433 m 0
 201 433 170 407 170 363 c 0
 170 334 185 316 232 281 c 0xb060
 240 275 245 273 250 273 c 0
 254 273 258 274 262 277 c 0
 295 300 310 335 310 368 c 0
 310 401 294 433 246 433 c 0
134 200 m 0
 92 174 78 128 78 97 c 0
 78 61 97 20 158 20 c 0
 205 20 243 49 243 100 c 0
 243 130 227 144 163 194 c 0
 155 201 149 204 144 204 c 0
 141 204 138 202 134 200 c 0
248 463 m 0
 346 463 386 416 386 359 c 0
 386 322 365 281 311 253 c 0
 299 247 294 243 294 238 c 0
 294 233 299 228 306 220 c 0
 329 195 338 169 338 132 c 0
 338 41 253 -10 156 -10 c 0
 48 -10 0 42 0 108 c 0
 0 156 25 200 89 226 c 0
 102 232 107 235 107 240 c 0
 107 244 104 249 99 255 c 0
 83 274 75 299 75 328 c 0
 75 413 146 463 248 463 c 0
EndSplineSet
Validated: 1
EndChar

StartChar: uniE514
Encoding: 58644 58644 216
Width: 667
Flags: MW
HStem: -10 32<367.5 420.5 367.5 459> 0 36 245 40<458 464> 353 88<516 520>
VStem: 275 108<96 105.5> 500 100<152 199.5>
LayerCount: 2
Fore
SplineSet
292 459 m 0x7c
 300 459 304 454 304 447 c 0
 304 443 303 439 301 433 c 2
 182 55 l 2
 181 50 179 47 179 44 c 0
 179 41 181 39 186 38 c 2
 228 34 l 2
 239 33 245 27 245 17 c 0
 245 7 239 0 226 0 c 2
 19 0 l 2
 6 0 0 7 0 17 c 0
 0 27 6 33 17 34 c 2
 60 38 l 2
 71 39 72 42 75 51 c 2
 159 314 l 2
 161 320 162 324 162 328 c 0
 162 334 159 336 155 336 c 0
 150 336 146 333 139 325 c 2
 94 275 l 2
 87 267 81 262 71 262 c 0
 61 262 52 271 52 280 c 0
 52 287 55 293 62 301 c 2
 193 449 l 2
 199 456 204 459 212 459 c 0
 227 459 235 448 250 448 c 0
 263 448 279 459 292 459 c 0x7c
655 461 m 0
 662 461 667 455 667 449 c 0
 667 441 662 433 650 422 c 0
 612 387 556 353 484 353 c 0
 468 353 449 355 436 357 c 0
 432 358 430 358 427 358 c 0
 421 358 417 356 414 347 c 2
 395 291 l 2
 394 288 393 285 393 283 c 0
 393 278 396 275 402 275 c 0
 405 275 408 276 412 277 c 0
 428 282 446 285 470 285 c 0
 550 285 600 256 600 184 c 0
 600 68 516 -10 402 -10 c 0
 315 -10 275 36 275 85 c 0
 275 126 301 157 335 157 c 0
 361 157 383 142 383 112 c 0
 383 80 365 65 352 59 c 0
 342 54 336 52 336 44 c 0
 336 32 355 22 380 22 c 0xbc
 461 22 500 122 500 182 c 0
 500 217 485 245 443 245 c 0
 405 245 380 219 369 208 c 0
 360 199 354 195 345 195 c 0
 334 195 326 202 326 214 c 0
 326 221 327 225 331 237 c 2
 399 436 l 2
 404 450 412 457 426 457 c 0
 435 457 442 455 459 450 c 0
 474 446 499 441 533 441 c 0
 569 441 600 445 625 452 c 0
 642 457 648 461 655 461 c 0
EndSplineSet
Validated: 1
AlternateSubs2: "'salt' Stylistic Alternatives lookup 5 subtable" uniE514.salt01
EndChar

StartChar: uniE515
Encoding: 58645 58645 217
Width: 1315
Flags: MW
HStem: -10 32<367.5 420.5 367.5 459> 0 36 217 28<1246 1259> 245 40<458 464> 353 88<516 520> 409 44<830 875.5 854 911.5> 417 35<733.5 742.5> 423 30<1176.5 1202>
VStem: 275 108<96 105.5> 500 100<152 199.5> 932 51<252 271 252 275> 971 53<379.5 397.5> 1073 49<272 308 272 335>
LayerCount: 2
Fore
SplineSet
1198 423 m 0x51e8
 1155 423 1122 332 1122 284 c 0
 1122 260 1130 246 1144 246 c 0x61e8
 1177 246 1220 348 1220 392 c 0
 1220 408 1214 423 1198 423 c 0x51e8
1293 435 m 2
 1242 273 l 2
 1240 268 1239 262 1239 258 c 0
 1239 250 1242 245 1250 245 c 0
 1268 245 1283 282 1293 307 c 0
 1295 312 1298 316 1304 316 c 0
 1309 316 1315 313 1315 306 c 0
 1315 300 1310 293 1310 288 c 0
 1302 269 1281 217 1242 217 c 0
 1220 217 1209 228 1205 245 c 0
 1203 254 1202 260 1199 260 c 0
 1194 260 1189 250 1188 249 c 0
 1174 229 1155 216 1133 216 c 0x64d8
 1105 216 1073 239 1073 297 c 0
 1073 373 1130 453 1193 453 c 0
 1211 453 1222 447 1230 434 c 0
 1234 428 1237 423 1239 423 c 0
 1242 423 1243 427 1246 439 c 0
 1248 447 1251 451 1260 451 c 2
 1284 451 l 2
 1292 451 1295 449 1295 444 c 0
 1295 442 1294 439 1293 435 c 2
696 234 m 2
 743 377 l 2
 745 384 749 398 749 405 c 0
 749 412 746 417 739 417 c 0
 719 417 699 378 689 354 c 0
 687 349 684 345 678 345 c 0
 673 345 667 348 667 355 c 0
 667 361 669 366 672 373 c 0
 688 409 712 452 755 452 c 0
 773 452 785 443 790 430 c 0
 795 417 792 409 797 409 c 0x92e8
 798 409 805 417 813 426 c 0
 826 441 842 453 866 453 c 0
 885 453 898 445 904 430 c 0
 909 417 906 409 911 409 c 0
 912 409 919 417 927 426 c 0
 940 440 956 453 980 453 c 0
 1011 453 1024 429 1024 404 c 0x54d8
 1024 355 983 286 983 256 c 0
 983 248 987 243 994 243 c 0
 1009 243 1019 265 1027 285 c 0
 1030 293 1034 295 1038 295 c 0
 1044 295 1048 291 1048 286 c 0
 1048 282 1047 278 1045 273 c 0
 1034 244 1017 216 980 216 c 0
 952 216 932 228 932 255 c 0x61e8
 932 295 971 360 971 393 c 0
 971 402 966 409 957 409 c 0
 931 409 907 372 894 333 c 2
 860 231 l 2
 858 225 857 222 848 222 c 2
 818 222 l 2
 811 222 809 223 809 227 c 0
 809 229 809 231 810 234 c 2
 855 371 l 2
 858 380 859 386 859 392 c 0
 859 403 853 409 843 409 c 0
 817 409 793 372 780 333 c 2
 746 231 l 2
 744 225 743 222 734 222 c 2
 704 222 l 2
 697 222 695 223 695 227 c 0
 695 229 695 231 696 234 c 2
331 237 m 2
 399 436 l 2
 404 450 412 457 426 457 c 0
 435 457 442 455 459 450 c 0
 474 446 499 441 533 441 c 0
 569 441 600 445 625 452 c 0
 642 457 648 461 655 461 c 0
 662 461 667 455 667 449 c 0
 667 441 662 433 650 422 c 0
 612 387 556 353 484 353 c 0
 468 353 449 355 436 357 c 0
 432 358 430 358 427 358 c 0
 421 358 417 356 414 347 c 2x58e8
 395 291 l 2
 394 288 393 285 393 283 c 0
 393 278 396 275 402 275 c 0
 405 275 408 276 412 277 c 0
 428 282 446 285 470 285 c 0
 550 285 600 256 600 184 c 0
 600 68 516 -10 402 -10 c 0
 315 -10 275 36 275 85 c 0
 275 126 301 157 335 157 c 0
 361 157 383 142 383 112 c 0
 383 80 365 65 352 59 c 0
 342 54 336 52 336 44 c 0
 336 32 355 22 380 22 c 0
 461 22 500 122 500 182 c 0
 500 217 485 245 443 245 c 0
 405 245 380 219 369 208 c 0
 360 199 354 195 345 195 c 0
 334 195 326 202 326 214 c 0
 326 221 327 225 331 237 c 2
62 301 m 2
 193 449 l 2
 199 456 204 459 212 459 c 0
 227 459 235 448 250 448 c 0
 263 448 279 459 292 459 c 0
 300 459 304 454 304 447 c 0
 304 443 303 439 301 433 c 2
 182 55 l 2
 181 50 179 47 179 44 c 0
 179 41 181 39 186 38 c 2
 228 34 l 2
 239 33 245 27 245 17 c 0
 245 7 239 0 226 0 c 2
 19 0 l 2
 6 0 0 7 0 17 c 0
 0 27 6 33 17 34 c 2
 60 38 l 2
 71 39 72 42 75 51 c 2
 159 314 l 2
 161 320 162 324 162 328 c 0
 162 334 159 336 155 336 c 0
 150 336 146 333 139 325 c 2
 94 275 l 2
 87 267 81 262 71 262 c 0
 61 262 52 271 52 280 c 0
 52 287 55 293 62 301 c 2
EndSplineSet
Validated: 1
AlternateSubs2: "'salt' Stylistic Alternatives lookup 5 subtable" uniE515.salt01
EndChar

StartChar: uniE516
Encoding: 58646 58646 218
Width: 1285
Flags: MW
HStem: -10 32<367.5 420.5 367.5 459> -4 28<1216 1229 1216 1231.5> 0 36 188 44<800 845.5 824 881.5> 196 35<703.5 712.5> 202 30<1146.5 1172> 245 40<458 464> 353 88<516 520>
VStem: 275 108<96 105.5> 500 100<152 199.5> 902 51<31 50 31 54> 941 53<158.5 176.5> 1043 49<51 87 51 114>
LayerCount: 2
Fore
SplineSet
1168 202 m 0x25e8
 1125 202 1092 111 1092 63 c 0
 1092 39 1100 25 1114 25 c 0x45e8
 1147 25 1190 127 1190 171 c 0
 1190 187 1184 202 1168 202 c 0x25e8
1263 214 m 2
 1212 52 l 2
 1210 47 1209 41 1209 37 c 0
 1209 29 1212 24 1220 24 c 0
 1238 24 1253 61 1263 86 c 0
 1265 91 1268 95 1274 95 c 0
 1279 95 1285 92 1285 85 c 0
 1285 79 1280 72 1280 67 c 0
 1272 48 1251 -4 1212 -4 c 0
 1190 -4 1179 7 1175 24 c 0
 1173 33 1172 39 1169 39 c 0
 1164 39 1159 29 1158 28 c 0
 1144 8 1125 -5 1103 -5 c 0x45e8
 1075 -5 1043 18 1043 76 c 0
 1043 152 1100 232 1163 232 c 0
 1181 232 1192 226 1200 213 c 0
 1204 207 1207 202 1209 202 c 0
 1212 202 1213 206 1216 218 c 0
 1218 226 1221 230 1230 230 c 2
 1254 230 l 2
 1262 230 1265 228 1265 223 c 0
 1265 221 1264 218 1263 214 c 2
666 13 m 2x31d8
 713 156 l 2
 715 163 719 177 719 184 c 0
 719 191 716 196 709 196 c 0
 689 196 669 157 659 133 c 0
 657 128 654 124 648 124 c 0
 643 124 637 127 637 134 c 0
 637 140 639 145 642 152 c 0
 658 188 682 231 725 231 c 0
 743 231 755 222 760 209 c 0
 765 196 762 188 767 188 c 0x29e8
 768 188 775 196 783 205 c 0
 796 220 812 232 836 232 c 0
 855 232 868 224 874 209 c 0
 879 196 876 188 881 188 c 0
 882 188 889 196 897 205 c 0
 910 219 926 232 950 232 c 0
 981 232 994 208 994 183 c 0x31d8
 994 134 953 65 953 35 c 0
 953 27 957 22 964 22 c 0
 979 22 989 44 997 64 c 0
 1000 72 1004 74 1008 74 c 0
 1014 74 1018 70 1018 65 c 0x85e8
 1018 61 1017 57 1015 52 c 0
 1004 23 987 -5 950 -5 c 0
 922 -5 902 7 902 34 c 0x45e8
 902 74 941 139 941 172 c 0
 941 181 936 188 927 188 c 0
 901 188 877 151 864 112 c 2
 830 10 l 2
 828 4 827 1 818 1 c 2
 788 1 l 2
 781 1 779 2 779 6 c 0
 779 8 779 10 780 13 c 2
 825 150 l 2
 828 159 829 165 829 171 c 0
 829 182 823 188 813 188 c 0
 787 188 763 151 750 112 c 2
 716 10 l 2
 714 4 713 1 704 1 c 2
 674 1 l 2
 667 1 665 2 665 6 c 0
 665 8 665 10 666 13 c 2x31d8
331 237 m 2x87e8
 399 436 l 2
 404 450 412 457 426 457 c 0
 435 457 442 455 459 450 c 0
 474 446 499 441 533 441 c 0
 569 441 600 445 625 452 c 0
 642 457 648 461 655 461 c 0
 662 461 667 455 667 449 c 0
 667 441 662 433 650 422 c 0
 612 387 556 353 484 353 c 0
 468 353 449 355 436 357 c 0
 432 358 430 358 427 358 c 0
 421 358 417 356 414 347 c 2
 395 291 l 2
 394 288 393 285 393 283 c 0
 393 278 396 275 402 275 c 0
 405 275 408 276 412 277 c 0
 428 282 446 285 470 285 c 0
 550 285 600 256 600 184 c 0
 600 68 516 -10 402 -10 c 0
 315 -10 275 36 275 85 c 0
 275 126 301 157 335 157 c 0
 361 157 383 142 383 112 c 0
 383 80 365 65 352 59 c 0
 342 54 336 52 336 44 c 0
 336 32 355 22 380 22 c 0
 461 22 500 122 500 182 c 0
 500 217 485 245 443 245 c 0
 405 245 380 219 369 208 c 0
 360 199 354 195 345 195 c 0
 334 195 326 202 326 214 c 0
 326 221 327 225 331 237 c 2x87e8
62 301 m 2
 193 449 l 2
 199 456 204 459 212 459 c 0
 227 459 235 448 250 448 c 0
 263 448 279 459 292 459 c 0
 300 459 304 454 304 447 c 0
 304 443 303 439 301 433 c 2
 182 55 l 2
 181 50 179 47 179 44 c 0
 179 41 181 39 186 38 c 2
 228 34 l 2
 239 33 245 27 245 17 c 0
 245 7 239 0 226 0 c 2
 19 0 l 2
 6 0 0 7 0 17 c 0
 0 27 6 33 17 34 c 2
 60 38 l 2
 71 39 72 42 75 51 c 2x25e8
 159 314 l 2
 161 320 162 324 162 328 c 0
 162 334 159 336 155 336 c 0
 150 336 146 333 139 325 c 2
 94 275 l 2
 87 267 81 262 71 262 c 0
 61 262 52 271 52 280 c 0
 52 287 55 293 62 301 c 2
EndSplineSet
Validated: 1
AlternateSubs2: "'salt' Stylistic Alternatives lookup 5 subtable" uniE516.salt01
EndChar

StartChar: uniE517
Encoding: 58647 58647 219
Width: 750
Flags: MW
HStem: -7 99<248 268.5 600 620.5> 46 53<89.5 92.5 89.5 101.5 441.5 444.5> 428 35<213 251 565 603>
VStem: 87 110<317.5 343 317.5 360> 299 99<346 389.5 302.5 396.5> 439 110<317.5 343 317.5 360> 651 99<346 389.5 302.5 396.5>
LayerCount: 2
Fore
SplineSet
602 463 m 0x7e
 695 463 750 422 750 357 c 0
 750 248 663 202 565 180 c 0
 518 169 475 150 448 120 c 0
 442 113 438 107 438 103 c 0
 438 100 440 99 443 99 c 0
 446 99 453 102 463 106 c 0
 478 112 494 115 513 115 c 0x7e
 552 115 582 92 618 92 c 0
 640 92 656 100 670 120 c 0
 677 130 682 133 689 133 c 0
 698 133 707 128 707 119 c 0
 707 114 706 110 703 101 c 0
 680 32 652 -7 589 -7 c 0xbe
 507 -7 475 46 432 46 c 0
 414 46 406 35 400 19 c 0
 394 3 388 -4 375 -4 c 0
 363 -4 356 4 356 15 c 0
 356 20 357 25 359 34 c 0
 380 114 424 175 527 217 c 0
 623 256 651 317 651 375 c 0
 651 418 620 428 586 428 c 0
 544 428 521 409 521 394 c 0
 521 385 526 380 535 371 c 0
 542 364 549 352 549 334 c 0
 549 301 525 271 491 271 c 0
 453 271 439 297 439 325 c 0
 439 395 503 463 602 463 c 0x7e
250 463 m 0
 343 463 398 422 398 357 c 0
 398 248 311 202 213 180 c 0
 166 169 123 150 96 120 c 0
 90 113 86 107 86 103 c 0
 86 100 88 99 91 99 c 0
 94 99 101 102 111 106 c 0
 126 112 142 115 161 115 c 0x7e
 200 115 230 92 266 92 c 0
 288 92 304 100 318 120 c 0
 325 130 330 133 337 133 c 0
 346 133 355 128 355 119 c 0
 355 114 354 110 351 101 c 0
 328 32 300 -7 237 -7 c 0xbe
 155 -7 123 46 80 46 c 0
 62 46 54 35 48 19 c 0
 42 3 36 -4 23 -4 c 0
 11 -4 4 4 4 15 c 0
 4 20 5 25 7 34 c 0
 28 114 72 175 175 217 c 0
 271 256 299 317 299 375 c 0
 299 418 268 428 234 428 c 0
 192 428 169 409 169 394 c 0
 169 385 174 380 183 371 c 0
 190 364 197 352 197 334 c 0
 197 301 173 271 139 271 c 0
 101 271 87 297 87 325 c 0
 87 395 151 463 250 463 c 0
EndSplineSet
Validated: 1
AlternateSubs2: "'salt' Stylistic Alternatives lookup 5 subtable" uniE517.salt01
EndChar

StartChar: uniE518
Encoding: 58648 58648 220
Width: 1428
Flags: MW
HStem: -7 99<248 268.5 600 620.5> 46 53<89.5 92.5 89.5 101.5 441.5 444.5> 217 28<1359 1372 1359 1374.5> 409 44<943 988.5 967 1024.5> 417 35<846.5 855.5> 423 30<1289.5 1315> 428 35<213 251 565 603>
VStem: 87 110<317.5 343 317.5 360> 299 99<346 389.5 302.5 396.5> 439 110<317.5 343 317.5 360> 651 99<346 389.5 302.5 396.5> 1045 51<252 271 252 275> 1084 53<379.5 397.5> 1186 49<272 308 272 335>
LayerCount: 2
Fore
SplineSet
1311 423 m 0xa5f4
 1268 423 1235 332 1235 284 c 0
 1235 260 1243 246 1257 246 c 0
 1290 246 1333 348 1333 392 c 0
 1333 408 1327 423 1311 423 c 0xa5f4
1406 435 m 2
 1355 273 l 2
 1353 268 1352 262 1352 258 c 0
 1352 250 1355 245 1363 245 c 0
 1381 245 1396 282 1406 307 c 0
 1408 312 1411 316 1417 316 c 0
 1422 316 1428 313 1428 306 c 0
 1428 300 1423 293 1423 288 c 0
 1415 269 1394 217 1355 217 c 0
 1333 217 1322 228 1318 245 c 0
 1316 254 1315 260 1312 260 c 0
 1307 260 1302 250 1301 249 c 0
 1287 229 1268 216 1246 216 c 0
 1218 216 1186 239 1186 297 c 0
 1186 373 1243 453 1306 453 c 0
 1324 453 1335 447 1343 434 c 0
 1347 428 1350 423 1352 423 c 0
 1355 423 1356 427 1359 439 c 0
 1361 447 1364 451 1373 451 c 2
 1397 451 l 2
 1405 451 1408 449 1408 444 c 0
 1408 442 1407 439 1406 435 c 2
809 234 m 2
 856 377 l 2
 858 384 862 398 862 405 c 0
 862 412 859 417 852 417 c 0
 832 417 812 378 802 354 c 0
 800 349 797 345 791 345 c 0
 786 345 780 348 780 355 c 0
 780 361 782 366 785 373 c 0
 801 409 825 452 868 452 c 0
 886 452 898 443 903 430 c 0
 908 417 905 409 910 409 c 0xa9f4
 911 409 918 417 926 426 c 0
 939 441 955 453 979 453 c 0
 998 453 1011 445 1017 430 c 0
 1022 417 1019 409 1024 409 c 0
 1025 409 1032 417 1040 426 c 0
 1053 440 1069 453 1093 453 c 0
 1124 453 1137 429 1137 404 c 0xb1ec
 1137 355 1096 286 1096 256 c 0
 1096 248 1100 243 1107 243 c 0
 1122 243 1132 265 1140 285 c 0
 1143 293 1147 295 1151 295 c 0
 1157 295 1161 291 1161 286 c 0
 1161 282 1160 278 1158 273 c 0
 1147 244 1130 216 1093 216 c 0
 1065 216 1045 228 1045 255 c 0xa3f4
 1045 295 1084 360 1084 393 c 0
 1084 402 1079 409 1070 409 c 0
 1044 409 1020 372 1007 333 c 2
 973 231 l 2
 971 225 970 222 961 222 c 2
 931 222 l 2
 924 222 922 223 922 227 c 0
 922 229 922 231 923 234 c 2
 968 371 l 2
 971 380 972 386 972 392 c 0
 972 403 966 409 956 409 c 0
 930 409 906 372 893 333 c 2xb1ec
 859 231 l 2
 857 225 856 222 847 222 c 2
 817 222 l 2
 810 222 808 223 808 227 c 0
 808 229 808 231 809 234 c 2
602 463 m 0x63f4
 695 463 750 422 750 357 c 0
 750 248 663 202 565 180 c 0
 518 169 475 150 448 120 c 0
 442 113 438 107 438 103 c 0
 438 100 440 99 443 99 c 0
 446 99 453 102 463 106 c 0
 478 112 494 115 513 115 c 0x63f4
 552 115 582 92 618 92 c 0
 640 92 656 100 670 120 c 0
 677 130 682 133 689 133 c 0
 698 133 707 128 707 119 c 0
 707 114 706 110 703 101 c 0
 680 32 652 -7 589 -7 c 0xa3f4
 507 -7 475 46 432 46 c 0
 414 46 406 35 400 19 c 0
 394 3 388 -4 375 -4 c 0
 363 -4 356 4 356 15 c 0
 356 20 357 25 359 34 c 0
 380 114 424 175 527 217 c 0
 623 256 651 317 651 375 c 0
 651 418 620 428 586 428 c 0
 544 428 521 409 521 394 c 0
 521 385 526 380 535 371 c 0
 542 364 549 352 549 334 c 0
 549 301 525 271 491 271 c 0
 453 271 439 297 439 325 c 0
 439 395 503 463 602 463 c 0x63f4
250 463 m 0
 343 463 398 422 398 357 c 0
 398 248 311 202 213 180 c 0
 166 169 123 150 96 120 c 0
 90 113 86 107 86 103 c 0
 86 100 88 99 91 99 c 0
 94 99 101 102 111 106 c 0
 126 112 142 115 161 115 c 0x63f4
 200 115 230 92 266 92 c 0
 288 92 304 100 318 120 c 0
 325 130 330 133 337 133 c 0
 346 133 355 128 355 119 c 0
 355 114 354 110 351 101 c 0
 328 32 300 -7 237 -7 c 0xa3f4
 155 -7 123 46 80 46 c 0
 62 46 54 35 48 19 c 0
 42 3 36 -4 23 -4 c 0
 11 -4 4 4 4 15 c 0
 4 20 5 25 7 34 c 0
 28 114 72 175 175 217 c 0
 271 256 299 317 299 375 c 0
 299 418 268 428 234 428 c 0
 192 428 169 409 169 394 c 0
 169 385 174 380 183 371 c 0
 190 364 197 352 197 334 c 0
 197 301 173 271 139 271 c 0
 101 271 87 297 87 325 c 0
 87 395 151 463 250 463 c 0
EndSplineSet
Validated: 1
AlternateSubs2: "'salt' Stylistic Alternatives lookup 5 subtable" uniE518.salt01
EndChar

StartChar: uniE519
Encoding: 58649 58649 221
Width: 1378
Flags: MW
HStem: -7 99<248 268.5 600 620.5> -5 28<1309 1322 1309 1324.5> 0 21G 46 53<89.5 92.5 89.5 101.5 441.5 444.5> 187 44<893 938.5 917 974.5> 195 35<796.5 805.5> 201 30<1239.5 1265> 428 35<213 251 565 603>
VStem: 87 110<317.5 343 317.5 360> 299 99<346 389.5 302.5 396.5> 439 110<317.5 343 317.5 360> 651 99<346 389.5 302.5 396.5> 995 51<30 49 30 53> 1034 53<157.5 175.5> 1136 49<50 86 50 113>
LayerCount: 2
Fore
SplineSet
1261 201 m 0x23fa
 1218 201 1185 110 1185 62 c 0
 1185 38 1193 24 1207 24 c 0x43fa
 1240 24 1283 126 1283 170 c 0
 1283 186 1277 201 1261 201 c 0x23fa
1356 213 m 2
 1305 51 l 2
 1303 46 1302 40 1302 36 c 0
 1302 28 1305 23 1313 23 c 0
 1331 23 1346 60 1356 85 c 0
 1358 90 1361 94 1367 94 c 0
 1372 94 1378 91 1378 84 c 0
 1378 78 1373 71 1373 66 c 0
 1365 47 1344 -5 1305 -5 c 0
 1283 -5 1272 6 1268 23 c 0
 1266 32 1265 38 1262 38 c 0
 1257 38 1252 28 1251 27 c 0
 1237 7 1218 -6 1196 -6 c 0x43fa
 1168 -6 1136 17 1136 75 c 0
 1136 151 1193 231 1256 231 c 0
 1274 231 1285 225 1293 212 c 0
 1297 206 1300 201 1302 201 c 0
 1305 201 1306 205 1309 217 c 0
 1311 225 1314 229 1323 229 c 2
 1347 229 l 2
 1355 229 1358 227 1358 222 c 0
 1358 220 1357 217 1356 213 c 2
759 12 m 2x29f6
 806 155 l 2
 808 162 812 176 812 183 c 0
 812 190 809 195 802 195 c 0
 782 195 762 156 752 132 c 0
 750 127 747 123 741 123 c 0
 736 123 730 126 730 133 c 0
 730 139 732 144 735 151 c 0
 751 187 775 230 818 230 c 0
 836 230 848 221 853 208 c 0
 858 195 855 187 860 187 c 0x35fa
 861 187 868 195 876 204 c 0
 889 219 905 231 929 231 c 0
 948 231 961 223 967 208 c 0
 972 195 969 187 974 187 c 0
 975 187 982 195 990 204 c 0
 1003 218 1019 231 1043 231 c 0
 1074 231 1087 207 1087 182 c 0x29f6
 1087 133 1046 64 1046 34 c 0
 1046 26 1050 21 1057 21 c 0
 1072 21 1082 43 1090 63 c 0
 1093 71 1097 73 1101 73 c 0
 1107 73 1111 69 1111 64 c 0
 1111 60 1110 56 1108 51 c 0
 1097 22 1080 -6 1043 -6 c 0
 1015 -6 995 6 995 33 c 0x43fa
 995 73 1034 138 1034 171 c 0
 1034 180 1029 187 1020 187 c 0
 994 187 970 150 957 111 c 2
 923 9 l 2
 921 3 920 0 911 0 c 2
 881 0 l 2
 874 0 872 1 872 5 c 0
 872 7 872 9 873 12 c 2
 918 149 l 2
 921 158 922 164 922 170 c 0
 922 181 916 187 906 187 c 0
 880 187 856 150 843 111 c 2
 809 9 l 2
 807 3 806 0 797 0 c 2
 767 0 l 2
 760 0 758 1 758 5 c 0
 758 7 758 9 759 12 c 2x29f6
602 463 m 0
 695 463 750 422 750 357 c 0
 750 248 663 202 565 180 c 0
 518 169 475 150 448 120 c 0
 442 113 438 107 438 103 c 0
 438 100 440 99 443 99 c 0
 446 99 453 102 463 106 c 0
 478 112 494 115 513 115 c 0x33fa
 552 115 582 92 618 92 c 0
 640 92 656 100 670 120 c 0
 677 130 682 133 689 133 c 0
 698 133 707 128 707 119 c 0
 707 114 706 110 703 101 c 0
 680 32 652 -7 589 -7 c 0x83fa
 507 -7 475 46 432 46 c 0
 414 46 406 35 400 19 c 0
 394 3 388 -4 375 -4 c 0
 363 -4 356 4 356 15 c 0
 356 20 357 25 359 34 c 0
 380 114 424 175 527 217 c 0
 623 256 651 317 651 375 c 0
 651 418 620 428 586 428 c 0
 544 428 521 409 521 394 c 0
 521 385 526 380 535 371 c 0
 542 364 549 352 549 334 c 0
 549 301 525 271 491 271 c 0
 453 271 439 297 439 325 c 0
 439 395 503 463 602 463 c 0
250 463 m 0x33fa
 343 463 398 422 398 357 c 0
 398 248 311 202 213 180 c 0
 166 169 123 150 96 120 c 0
 90 113 86 107 86 103 c 0
 86 100 88 99 91 99 c 0
 94 99 101 102 111 106 c 0
 126 112 142 115 161 115 c 0x33fa
 200 115 230 92 266 92 c 0
 288 92 304 100 318 120 c 0
 325 130 330 133 337 133 c 0
 346 133 355 128 355 119 c 0
 355 114 354 110 351 101 c 0
 328 32 300 -7 237 -7 c 0x83fa
 155 -7 123 46 80 46 c 0
 62 46 54 35 48 19 c 0
 42 3 36 -4 23 -4 c 0
 11 -4 4 4 4 15 c 0
 4 20 5 25 7 34 c 0
 28 114 72 175 175 217 c 0
 271 256 299 317 299 375 c 0
 299 418 268 428 234 428 c 0
 192 428 169 409 169 394 c 0
 169 385 174 380 183 371 c 0
 190 364 197 352 197 334 c 0
 197 301 173 271 139 271 c 0
 101 271 87 297 87 325 c 0
 87 395 151 463 250 463 c 0x33fa
EndSplineSet
Validated: 1
AlternateSubs2: "'salt' Stylistic Alternatives lookup 5 subtable" uniE519.salt01
EndChar

StartChar: uniE51A
Encoding: 58650 58650 222
Width: 137
Flags: MW
HStem: -17 502<159 162> 469 15<159 163>
VStem: 0 69<183.5 285>
LayerCount: 2
Fore
SplineSet
163 0 m 2xa0
 163 -13 l 2
 163 -14 162 -17 162 -17 c 2
 160 -17 159 -17 159 -16 c 0
 48 45 0 133 0 234 c 0
 0 336 50 423 159 483 c 1
 159 485 l 1
 159 484 l 2
 162 484 163 482 163 480 c 2
 163 469 l 1
 163 469 163 464 160 461 c 0x60
 93 412 69 345 69 234 c 0
 69 123 96 57 159 6 c 0
 162 5 163 3 163 0 c 2xa0
EndSplineSet
Validated: 5
EndChar

StartChar: uniE51B
Encoding: 58651 58651 223
Width: 137
Flags: MW
HStem: -17 502<-25 -22> 469 15<-26 -22>
VStem: 68 69<183.5 285 183.5 289.5>
LayerCount: 2
Fore
SplineSet
-26 -13 m 2xa0
 -26 0 l 2
 -26 3 -25 5 -22 6 c 0
 41 57 68 123 68 234 c 0
 68 345 44 412 -23 461 c 0
 -26 464 -26 469 -26 469 c 1
 -26 480 l 2
 -26 482 -25 484 -22 484 c 2
 -22 485 l 1
 -22 483 l 1x60
 87 423 137 336 137 234 c 0
 137 133 89 45 -22 -16 c 0
 -22 -17 -23 -17 -25 -17 c 2
 -25 -17 -26 -14 -26 -13 c 2xa0
EndSplineSet
Validated: 5
EndChar

StartChar: uniE51C
Encoding: 58652 58652 224
Width: 796
Flags: MW
HStem: -10 25<657.5 688.5 657.5 701.5> -10 30<127.5 181.5 127.5 204.5> 193 32<417.5 426> 199 26 309 29 433 30<223.5 270>
VStem: 0 78<79 112.5 79 132> 75 95<348.5 370.5> 243 95<86.5 115> 310 76<351.5 384.5> 389 51<39 65 39 74.5> 432 46<165.5 186> 542 33<114.5 131.5> 597 45<39.5 70.5> 746 50<145 174.5>
LayerCount: 2
Fore
SplineSet
248 463 m 0x5eaa
 346 463 386 416 386 359 c 0
 386 322 365 281 311 253 c 0
 299 247 294 243 294 238 c 0x4280
 294 233 299 228 306 220 c 0
 329 195 338 169 338 132 c 0
 338 41 253 -10 156 -10 c 0
 48 -10 0 42 0 108 c 0
 0 156 25 200 89 226 c 0x0540
 102 232 107 235 107 240 c 0
 107 244 104 249 99 255 c 0
 83 274 75 299 75 328 c 0
 75 413 146 463 248 463 c 0x5eaa
134 200 m 0x0540
 92 174 78 128 78 97 c 0
 78 61 97 20 158 20 c 0
 205 20 243 49 243 100 c 0
 243 130 227 144 163 194 c 0
 155 201 149 204 144 204 c 0
 141 204 138 202 134 200 c 0x0540
246 433 m 0x4280
 201 433 170 407 170 363 c 0
 170 334 185 316 232 281 c 0
 240 275 245 273 250 273 c 0
 254 273 258 274 262 277 c 0
 295 300 310 335 310 368 c 0
 310 401 294 433 246 433 c 0x4280
436 225 m 0
 462 225 478 202 478 173 c 0
 478 125 440 84 440 46 c 0
 440 32 448 19 468 19 c 0
 502 19 542 78 542 123 c 0
 542 140 535 148 524 156 c 0
 514 163 503 173 503 188 c 0
 503 206 517 223 536 223 c 0
 561 223 575 195 575 163 c 0
 575 66 519 -10 456 -10 c 0
 420 -10 389 11 389 50 c 0
 389 99 432 148 432 183 c 0
 432 189 429 193 423 193 c 0
 406 193 391 156 383 130 c 0
 381 124 377 121 372 121 c 0
 367 121 361 124 361 131 c 0
 361 135 362 140 365 148 c 0
 379 187 399 225 436 225 c 0
625 333 m 2
 702 338 l 2
 710 338 714 334 714 328 c 0
 714 325 713 322 712 319 c 2
 687 236 l 2
 681 215 678 210 678 205 c 0x2010
 678 203 679 202 681 202 c 0
 686 202 694 212 709 219 c 0
 718 223 727 225 737 225 c 0
 776 225 796 193 796 158 c 0
 796 68 737 -10 666 -10 c 0
 625 -10 597 18 597 61 c 0
 597 80 600 96 604 110 c 2
 654 293 l 2x9d46
 655 297 656 301 656 303 c 0
 656 308 652 309 643 309 c 2
 624 309 l 2
 610 309 609 316 609 320 c 0
 609 324 610 332 625 333 c 2
723 199 m 0
 678 199 642 103 642 46 c 0
 642 27 650 15 665 15 c 0
 712 15 746 125 746 165 c 0
 746 184 741 199 723 199 c 0
EndSplineSet
Validated: 1
EndChar

StartChar: uniE51D
Encoding: 58653 58653 225
Width: 1231
Flags: MW
HStem: -10 32<367.5 420.5 367.5 459> -5 25<1093.5 1124.5 1093.5 1137.5> 0 20 0 36 188 44<790 835.5 814 871.5> 196 35<693.5 702.5> 204 26<1136.5 1192.5> 245 40<458 464> 314 29 353 88<516 520>
VStem: 275 108<96 105.5> 500 100<152 199.5> 892 51<31 50 31 54> 931 53<158.5 176.5> 1033 45<44.5 75.5> 1182 50<150 179.5>
LayerCount: 2
Fore
SplineSet
331 237 m 2x12bb
 399 436 l 2
 404 450 412 457 426 457 c 0
 435 457 442 455 459 450 c 0
 474 446 499 441 533 441 c 0
 569 441 600 445 625 452 c 0
 642 457 648 461 655 461 c 0
 662 461 667 455 667 449 c 0
 667 441 662 433 650 422 c 0
 612 387 556 353 484 353 c 0
 468 353 449 355 436 357 c 0
 432 358 430 358 427 358 c 0
 421 358 417 356 414 347 c 2
 395 291 l 2
 394 288 393 285 393 283 c 0
 393 278 396 275 402 275 c 0
 405 275 408 276 412 277 c 0
 428 282 446 285 470 285 c 0
 550 285 600 256 600 184 c 0
 600 68 516 -10 402 -10 c 0
 315 -10 275 36 275 85 c 0
 275 126 301 157 335 157 c 0
 361 157 383 142 383 112 c 0
 383 80 365 65 352 59 c 0
 342 54 336 52 336 44 c 0
 336 32 355 22 380 22 c 0
 461 22 500 122 500 182 c 0
 500 217 485 245 443 245 c 0x12bb
 405 245 380 219 369 208 c 0
 360 199 354 195 345 195 c 0x22bb
 334 195 326 202 326 214 c 0
 326 221 327 225 331 237 c 2x12bb
62 301 m 2
 193 449 l 2
 199 456 204 459 212 459 c 0
 227 459 235 448 250 448 c 0
 263 448 279 459 292 459 c 0
 300 459 304 454 304 447 c 0
 304 443 303 439 301 433 c 2
 182 55 l 2
 181 50 179 47 179 44 c 0x83fb
 179 41 181 39 186 38 c 2
 228 34 l 2
 239 33 245 27 245 17 c 0
 245 7 239 0 226 0 c 2
 19 0 l 2
 6 0 0 7 0 17 c 0
 0 27 6 33 17 34 c 2
 60 38 l 2
 71 39 72 42 75 51 c 2
 159 314 l 2
 161 320 162 324 162 328 c 0x42bb
 162 334 159 336 155 336 c 0
 150 336 146 333 139 325 c 2
 94 275 l 2
 87 267 81 262 71 262 c 0
 61 262 52 271 52 280 c 0
 52 287 55 293 62 301 c 2
1159 204 m 0
 1114 204 1078 108 1078 51 c 0
 1078 32 1086 20 1101 20 c 0
 1148 20 1182 130 1182 170 c 0
 1182 189 1177 204 1159 204 c 0
1061 338 m 2
 1138 343 l 2
 1146 343 1150 339 1150 333 c 0
 1150 330 1149 327 1148 324 c 2
 1123 241 l 2
 1117 220 1114 215 1114 210 c 0
 1114 208 1115 207 1117 207 c 0
 1122 207 1130 217 1145 224 c 0
 1154 228 1163 230 1173 230 c 0
 1212 230 1232 198 1232 163 c 0
 1232 73 1173 -5 1102 -5 c 0
 1061 -5 1033 23 1033 66 c 0
 1033 85 1036 101 1040 115 c 2
 1090 298 l 2
 1091 302 1092 306 1092 308 c 0
 1092 313 1088 314 1079 314 c 2
 1060 314 l 2
 1046 314 1045 321 1045 325 c 0
 1045 329 1046 337 1061 338 c 2
656 13 m 2x18b7
 703 156 l 2
 705 163 709 177 709 184 c 0
 709 191 706 196 699 196 c 0
 679 196 659 157 649 133 c 0
 647 128 644 124 638 124 c 0
 633 124 627 127 627 134 c 0
 627 140 629 145 632 152 c 0
 648 188 672 231 715 231 c 0
 733 231 745 222 750 209 c 0
 755 196 752 188 757 188 c 0x14bb
 758 188 765 196 773 205 c 0
 786 220 802 232 826 232 c 0
 845 232 858 224 864 209 c 0
 869 196 866 188 871 188 c 0
 872 188 879 196 887 205 c 0
 900 219 916 232 940 232 c 0
 971 232 984 208 984 183 c 0x18b7
 984 134 943 65 943 35 c 0
 943 27 947 22 954 22 c 0
 969 22 979 44 987 64 c 0
 990 72 994 74 998 74 c 0
 1004 74 1008 70 1008 65 c 0x22bb
 1008 61 1007 57 1005 52 c 0
 994 23 977 -5 940 -5 c 0
 912 -5 892 7 892 34 c 0x42bb
 892 74 931 139 931 172 c 0
 931 181 926 188 917 188 c 0
 891 188 867 151 854 112 c 2
 820 10 l 2
 818 4 817 1 808 1 c 2
 778 1 l 2
 771 1 769 2 769 6 c 0
 769 8 769 10 770 13 c 2
 815 150 l 2
 818 159 819 165 819 171 c 0
 819 182 813 188 803 188 c 0
 777 188 753 151 740 112 c 2
 706 10 l 2
 704 4 703 1 694 1 c 2
 664 1 l 2
 657 1 655 2 655 6 c 0
 655 8 655 10 656 13 c 2x18b7
EndSplineSet
Validated: 1
AlternateSubs2: "'salt' Stylistic Alternatives lookup 5 subtable" uniE51D.salt01
EndChar

StartChar: uniE51E
Encoding: 58654 58654 226
Width: 1335
Flags: MW
HStem: -7 99<248 268.5 600 620.5> -6 25<1196.5 1227.5 1196.5 1240.5> 0 21G 46 53<89.5 92.5 89.5 101.5 441.5 444.5> 187 44<893 938.5 917 974.5> 195 35<796.5 805.5> 203 26<1239.5 1295.5> 313 29 428 35<213 251 565 603>
VStem: 87 110<317.5 343 317.5 360> 299 99<346 389.5 302.5 396.5> 439 110<317.5 343 317.5 360> 651 99<346 389.5 302.5 396.5> 995 51<30 49 30 53> 1034 53<157.5 175.5> 1136 45<43.5 74.5> 1285 50<149 178.5>
LayerCount: 2
Fore
SplineSet
602 463 m 0x33fd80
 695 463 750 422 750 357 c 0
 750 248 663 202 565 180 c 0
 518 169 475 150 448 120 c 0
 442 113 438 107 438 103 c 0
 438 100 440 99 443 99 c 0
 446 99 453 102 463 106 c 0
 478 112 494 115 513 115 c 0
 552 115 582 92 618 92 c 0
 640 92 656 100 670 120 c 0
 677 130 682 133 689 133 c 0
 698 133 707 128 707 119 c 0
 707 114 706 110 703 101 c 0
 680 32 652 -7 589 -7 c 0
 507 -7 475 46 432 46 c 0
 414 46 406 35 400 19 c 0x53fd80
 394 3 388 -4 375 -4 c 0
 363 -4 356 4 356 15 c 0
 356 20 357 25 359 34 c 0
 380 114 424 175 527 217 c 0
 623 256 651 317 651 375 c 0
 651 418 620 428 586 428 c 0
 544 428 521 409 521 394 c 0
 521 385 526 380 535 371 c 0x33fd80
 542 364 549 352 549 334 c 0
 549 301 525 271 491 271 c 0x53fd80
 453 271 439 297 439 325 c 0
 439 395 503 463 602 463 c 0x33fd80
250 463 m 0
 343 463 398 422 398 357 c 0
 398 248 311 202 213 180 c 0
 166 169 123 150 96 120 c 0
 90 113 86 107 86 103 c 0x33fd80
 86 100 88 99 91 99 c 0x53fd80
 94 99 101 102 111 106 c 0
 126 112 142 115 161 115 c 0
 200 115 230 92 266 92 c 0
 288 92 304 100 318 120 c 0
 325 130 330 133 337 133 c 0
 346 133 355 128 355 119 c 0
 355 114 354 110 351 101 c 0x33fd80
 328 32 300 -7 237 -7 c 0
 155 -7 123 46 80 46 c 0
 62 46 54 35 48 19 c 0
 42 3 36 -4 23 -4 c 0
 11 -4 4 4 4 15 c 0
 4 20 5 25 7 34 c 0x83fd80
 28 114 72 175 175 217 c 0
 271 256 299 317 299 375 c 0
 299 418 268 428 234 428 c 0
 192 428 169 409 169 394 c 0
 169 385 174 380 183 371 c 0x33fd80
 190 364 197 352 197 334 c 0
 197 301 173 271 139 271 c 0
 101 271 87 297 87 325 c 0
 87 395 151 463 250 463 c 0
1262 203 m 0
 1217 203 1181 107 1181 50 c 0
 1181 31 1189 19 1204 19 c 0
 1251 19 1285 129 1285 169 c 0
 1285 188 1280 203 1262 203 c 0
1164 337 m 2
 1241 342 l 2
 1249 342 1253 338 1253 332 c 0
 1253 329 1252 326 1251 323 c 2
 1226 240 l 2
 1220 219 1217 214 1217 209 c 0
 1217 207 1218 206 1220 206 c 0
 1225 206 1233 216 1248 223 c 0
 1257 227 1266 229 1276 229 c 0x33fd80
 1315 229 1335 197 1335 162 c 0
 1335 72 1276 -6 1205 -6 c 0
 1164 -6 1136 22 1136 65 c 0
 1136 84 1139 100 1143 114 c 2
 1193 297 l 2
 1194 301 1195 305 1195 307 c 0x83fd80
 1195 312 1191 313 1182 313 c 2
 1163 313 l 2
 1149 313 1148 320 1148 324 c 0
 1148 328 1149 336 1164 337 c 2
759 12 m 2x39fb80
 806 155 l 2
 808 162 812 176 812 183 c 0
 812 190 809 195 802 195 c 0
 782 195 762 156 752 132 c 0
 750 127 747 123 741 123 c 0
 736 123 730 126 730 133 c 0
 730 139 732 144 735 151 c 0
 751 187 775 230 818 230 c 0
 836 230 848 221 853 208 c 0
 858 195 855 187 860 187 c 0x35fd80
 861 187 868 195 876 204 c 0
 889 219 905 231 929 231 c 0
 948 231 961 223 967 208 c 0
 972 195 969 187 974 187 c 0
 975 187 982 195 990 204 c 0
 1003 218 1019 231 1043 231 c 0
 1074 231 1087 207 1087 182 c 0x39fb80
 1087 133 1046 64 1046 34 c 0
 1046 26 1050 21 1057 21 c 0
 1072 21 1082 43 1090 63 c 0
 1093 71 1097 73 1101 73 c 0
 1107 73 1111 69 1111 64 c 0
 1111 60 1110 56 1108 51 c 0
 1097 22 1080 -6 1043 -6 c 0
 1015 -6 995 6 995 33 c 0x53fd80
 995 73 1034 138 1034 171 c 0
 1034 180 1029 187 1020 187 c 0
 994 187 970 150 957 111 c 2
 923 9 l 2
 921 3 920 0 911 0 c 2
 881 0 l 2
 874 0 872 1 872 5 c 0
 872 7 872 9 873 12 c 2
 918 149 l 2
 921 158 922 164 922 170 c 0
 922 181 916 187 906 187 c 0
 880 187 856 150 843 111 c 2
 809 9 l 2
 807 3 806 0 797 0 c 2
 767 0 l 2
 760 0 758 1 758 5 c 0
 758 7 758 9 759 12 c 2x39fb80
EndSplineSet
Validated: 1
AlternateSubs2: "'salt' Stylistic Alternatives lookup 5 subtable" uniE51E.salt01
EndChar

StartChar: uniE51F
Encoding: 58655 58655 227
Width: 1063
Flags: MW
HStem: -10 25<60.5 91.5 60.5 104.5> -9 28<382 395 382 397.5 994 1007> 197 30<312.5 338 297.5 342 924.5 950> 207 28<567 611.5> 309 29
VStem: 0 45<39.5 70.5> 149 50<145 174.5> 209 49<46 82 46 109> 510 40<147 182> 570 49<43.5 70> 684 40<147 182> 744 49<43.5 70> 821 49<46 82 46 109>
LayerCount: 2
Fore
SplineSet
715 97 m 2xada8
 712 100 l 2
 694 118 684 137 684 157 c 0
 684 182 692 196 709 211 c 0
 725 225 747 235 770 235 c 0
 801 235 826 215 826 189 c 0
 826 167 808 160 800 160 c 0
 795 160 790 164 787 168 c 0
 777 178 761 207 746 207 c 0x6108
 736 207 726 197 724 187 c 2
 724 182 l 2
 724 163 746 147 758 135 c 0
 774 118 792 97 793 70 c 0
 793 61 790 51 786 44 c 0
 777 28 761 15 746 6 c 0
 729 -5 706 -10 686 -10 c 0
 660 -10 630 6 630 34 c 0
 630 52 643 67 658 67 c 0
 664 67 670 63 675 55 c 0xada8
 684 40 700 18 717 18 c 0
 723 18 728 21 734 26 c 0x4008
 741 33 744 40 744 47 c 0
 744 66 727 84 715 97 c 2xada8
541 97 m 2
 538 100 l 2
 520 118 510 137 510 157 c 0
 510 182 518 196 535 211 c 0
 551 225 573 235 596 235 c 0
 627 235 652 215 652 189 c 0
 652 167 634 160 626 160 c 0
 621 160 616 164 613 168 c 0
 603 178 587 207 572 207 c 0
 562 207 552 197 550 187 c 2
 550 182 l 2
 550 163 572 147 584 135 c 0
 600 118 618 97 619 70 c 0
 619 61 616 51 612 44 c 0
 603 28 587 15 572 6 c 0
 555 -5 532 -10 512 -10 c 0
 486 -10 456 6 456 34 c 0
 456 52 469 67 484 67 c 0
 490 67 496 63 501 55 c 0
 510 40 526 18 543 18 c 0
 549 18 554 21 560 26 c 0
 567 33 570 40 570 47 c 0
 570 66 553 84 541 97 c 2
946 197 m 0
 903 197 870 106 870 58 c 0
 870 34 878 20 892 20 c 0
 925 20 968 122 968 166 c 0
 968 182 962 197 946 197 c 0
1041 209 m 2
 990 47 l 2
 988 42 987 36 987 32 c 0
 987 24 990 19 998 19 c 0
 1016 19 1031 56 1041 81 c 0
 1043 86 1046 90 1052 90 c 0
 1057 90 1063 87 1063 80 c 0
 1063 74 1058 67 1058 62 c 0
 1050 43 1029 -9 990 -9 c 0
 968 -9 957 2 953 19 c 0
 951 28 950 34 947 34 c 0
 942 34 937 24 936 23 c 0
 922 3 903 -10 881 -10 c 0
 853 -10 821 13 821 71 c 0
 821 147 878 227 941 227 c 0
 959 227 970 221 978 208 c 0
 982 202 985 197 987 197 c 0
 990 197 991 201 994 213 c 0
 996 221 999 225 1008 225 c 2xae
 1032 225 l 2
 1040 225 1043 223 1043 218 c 0
 1043 216 1042 213 1041 209 c 2
334 197 m 0
 291 197 258 106 258 58 c 0
 258 34 266 20 280 20 c 0
 313 20 356 122 356 166 c 0
 356 182 350 197 334 197 c 0
429 209 m 2x4020
 378 47 l 2
 376 42 375 36 375 32 c 0
 375 24 378 19 386 19 c 0
 404 19 419 56 429 81 c 0
 431 86 434 90 440 90 c 0
 445 90 451 87 451 80 c 0
 451 74 446 67 446 62 c 0
 438 43 417 -9 378 -9 c 0
 356 -9 345 2 341 19 c 0x1020
 339 28 338 34 335 34 c 0
 330 34 325 24 324 23 c 0
 310 3 291 -10 269 -10 c 0
 241 -10 209 13 209 71 c 0
 209 147 266 227 329 227 c 0
 347 227 358 221 366 208 c 0
 370 202 373 197 375 197 c 0
 378 197 379 201 382 213 c 0
 384 221 387 225 396 225 c 2
 420 225 l 2
 428 225 431 223 431 218 c 0x5010
 431 216 430 213 429 209 c 2x4020
126 199 m 0x4020
 81 199 45 103 45 46 c 0
 45 27 53 15 68 15 c 0x5040
 115 15 149 125 149 165 c 0x4080
 149 184 144 199 126 199 c 0x4020
28 333 m 2
 105 338 l 2x4080
 113 338 117 334 117 328 c 0
 117 325 116 322 115 319 c 2
 90 236 l 2
 84 215 81 210 81 205 c 0
 81 203 82 202 84 202 c 0
 89 202 97 212 112 219 c 0
 121 223 130 225 140 225 c 0
 179 225 199 193 199 158 c 0
 199 68 140 -10 69 -10 c 0x1080
 28 -10 0 18 0 61 c 0
 0 80 3 96 7 110 c 2
 57 293 l 2
 58 297 59 301 59 303 c 0
 59 308 55 309 46 309 c 2
 27 309 l 2
 13 309 12 316 12 320 c 0
 12 324 13 332 28 333 c 2
EndSplineSet
Validated: 1
EndChar

StartChar: uniE874
Encoding: 59508 59508 228
Width: 476
Flags: MW
HStem: 205 64<0 475 0 475>
VStem: 0 475<205 269 205 269>
LayerCount: 2
Fore
SplineSet
475 205 m 1
 0 205 l 1
 0 269 l 1
 475 269 l 1
 475 205 l 1
EndSplineSet
Validated: 1
EndChar

StartChar: uniE875
Encoding: 59509 59509 229
Width: 371
Flags: MW
HStem: 0 21G<366 368>
VStem: 3 126<797 1201> 361 10
LayerCount: 2
Fore
SplineSet
371 66 m 2
 371 12 l 2
 371 8 369 0 367 0 c 0
 365 0 363 0 361 2 c 0
 111 246 3 596 3 998 c 0
 3 1404 117 1752 361 1992 c 1
 361 1992 364 1994 366 1994 c 0
 370 1994 371 1988 371 1978 c 2
 371 1936 l 1
 371 1936 371 1914 365 1904 c 0
 215 1706 129 1440 129 998 c 0
 129 556 219 294 363 90 c 0
 367 86 371 76 371 66 c 2
EndSplineSet
Validated: 1
EndChar

StartChar: uniE876
Encoding: 59510 59510 230
Width: 371
Flags: MW
HStem: 0 21G<6 8>
VStem: 245 126<797 1201 797 1219>
LayerCount: 2
Fore
SplineSet
3 12 m 2
 3 66 l 2
 3 76 7 86 11 90 c 0
 155 294 245 556 245 998 c 0
 245 1440 159 1706 9 1904 c 0
 3 1914 3 1936 3 1936 c 1
 3 1978 l 2
 3 1988 4 1994 8 1994 c 0
 10 1994 13 1992 13 1992 c 1
 257 1752 371 1404 371 998 c 0
 371 596 263 246 13 2 c 0
 11 0 9 0 7 0 c 0
 5 0 3 8 3 12 c 2
EndSplineSet
Validated: 1
EndChar

